<svg width="60" height="63" viewBox="0 0 60 63" fill="none" xmlns="http://www.w3.org/2000/svg">
<path d="M13.4483 23.8277H5.17241C2.8716 23.8277 1 21.9561 1 19.6553V11.3794C1 9.07863 2.8716 7.20703 5.17241 7.20703H13.4483C15.7491 7.20703 17.6207 9.07863 17.6207 11.3794V19.6553C17.6207 21.9561 15.7491 23.8277 13.4483 23.8277Z" stroke="white" stroke-width="2"/>
<path d="M54.8277 54.8619H46.5518C44.251 54.8619 42.3794 52.9903 42.3794 50.6895V42.4136C42.3794 40.1128 44.251 38.2412 46.5518 38.2412H54.8277C57.1285 38.2412 59.0001 40.1128 59.0001 42.4136V50.6895C59.0001 52.9903 57.1285 54.8619 54.8277 54.8619Z" stroke="white" stroke-width="2"/>
<path d="M34.1377 38.3101H25.8619C23.561 38.3101 21.6895 36.4385 21.6895 34.1377V25.8619C21.6895 23.561 23.561 21.6895 25.8619 21.6895H34.1377C36.4385 21.6895 38.3101 23.561 38.3101 25.8619V34.1377C38.3101 36.4385 36.4385 38.3101 34.1377 38.3101Z" stroke="white" stroke-width="2"/>
<path fill-rule="evenodd" clip-rule="evenodd" d="M9.31036 8.27586C8.73933 8.27586 8.27588 7.81241 8.27588 7.24138V1.03448C8.27588 0.463448 8.73933 0 9.31036 0C9.8814 0 10.3448 0.463448 10.3448 1.03448V7.24138C10.3448 7.81241 9.8814 8.27586 9.31036 8.27586Z" fill="white"/>
<path fill-rule="evenodd" clip-rule="evenodd" d="M9.31036 62.0691C8.73933 62.0691 8.27588 61.6057 8.27588 61.0346V23.7933C8.27588 23.2222 8.73933 22.7588 9.31036 22.7588C9.8814 22.7588 10.3448 23.2222 10.3448 23.7933V61.0346C10.3448 61.6057 9.8814 62.0691 9.31036 62.0691Z" fill="white"/>
<path fill-rule="evenodd" clip-rule="evenodd" d="M29.9998 62.0688C29.4288 62.0688 28.9653 61.6054 28.9653 61.0343V38.2757C28.9653 37.7047 29.4288 37.2412 29.9998 37.2412C30.5708 37.2412 31.0343 37.7047 31.0343 38.2757V61.0343C31.0343 61.6054 30.5708 62.0688 29.9998 62.0688Z" fill="white"/>
<path fill-rule="evenodd" clip-rule="evenodd" d="M29.9998 22.7586C29.4288 22.7586 28.9653 22.2952 28.9653 21.7241V1.03448C28.9653 0.463448 29.4288 0 29.9998 0C30.5708 0 31.0343 0.463448 31.0343 1.03448V21.7241C31.0343 22.2952 30.5708 22.7586 29.9998 22.7586Z" fill="white"/>
<path fill-rule="evenodd" clip-rule="evenodd" d="M50.6898 39.3103C50.1187 39.3103 49.6553 38.8469 49.6553 38.2759V1.03448C49.6553 0.463448 50.1187 0 50.6898 0C51.2608 0 51.7242 0.463448 51.7242 1.03448V38.2759C51.7242 38.8469 51.2608 39.3103 50.6898 39.3103Z" fill="white"/>
<path fill-rule="evenodd" clip-rule="evenodd" d="M50.6898 62.0688C50.1187 62.0688 49.6553 61.6054 49.6553 61.0343V54.8275C49.6553 54.2564 50.1187 53.793 50.6898 53.793C51.2608 53.793 51.7242 54.2564 51.7242 54.8275V61.0343C51.7242 61.6054 51.2608 62.0688 50.6898 62.0688Z" fill="white"/>
</svg>
