<svg width="60" height="51" viewBox="0 0 60 51" fill="none" xmlns="http://www.w3.org/2000/svg">
<path fill-rule="evenodd" clip-rule="evenodd" d="M5.99936 2.0393C3.79342 2.0393 1.99947 3.86855 1.99947 6.1179V28.5502C1.99947 30.7996 3.79342 32.6288 5.99936 32.6288H10.9992C11.5512 32.6288 11.9992 33.0856 11.9992 33.6485V39.6828L20.373 32.8511C20.551 32.7084 20.771 32.6288 20.999 32.6288H35.9986C38.2045 32.6288 39.9985 30.7996 39.9985 28.5502V6.1179C39.9985 3.86855 38.2045 2.0393 35.9986 2.0393H5.99936ZM10.9997 42.8253C10.8517 42.8253 10.7057 42.7927 10.5657 42.7254C10.2197 42.5541 9.99973 42.1972 9.99973 41.8057V34.6681H5.99984C2.69193 34.6681 0 31.9232 0 28.5502V6.1179C0 2.7449 2.69193 0 5.99984 0H35.999C39.3069 0 41.9989 2.7449 41.9989 6.1179V28.5502C41.9989 31.9232 39.3069 34.6681 35.999 34.6681H21.3494L11.6257 42.603C11.4437 42.7499 11.2217 42.8253 10.9997 42.8253Z" fill="white"/>
<path fill-rule="evenodd" clip-rule="evenodd" d="M49.0002 50.9826C48.7783 50.9826 48.5563 50.9071 48.3763 50.7603L38.6505 42.8254H24.0009C22.749 42.8254 21.543 42.4256 20.511 41.6691C20.063 41.3407 19.959 40.7024 20.283 40.2456C20.605 39.7888 21.229 39.6848 21.679 40.0152C22.367 40.5189 23.1709 40.786 24.0009 40.786H39.0005C39.2285 40.786 39.4485 40.8656 39.6265 41.0083L48.0003 47.84V41.8057C48.0003 41.2429 48.4483 40.786 49.0002 40.786H54.0001C56.2061 40.786 58 38.9568 58 36.7074V14.2751C58 12.0258 56.2061 10.1965 54.0001 10.1965H47.0003C46.4483 10.1965 46.0003 9.73972 46.0003 9.17688C46.0003 8.61403 46.4483 8.15723 47.0003 8.15723H54.0001C57.308 8.15723 60 10.9021 60 14.2751V36.7074C60 40.0805 57.308 42.8254 54.0001 42.8254H50.0002V49.9629C50.0002 50.3545 49.7802 50.7113 49.4342 50.8826C49.2962 50.9499 49.1482 50.9826 49.0002 50.9826Z" fill="white"/>
</svg>
