<svg width="23" height="24" viewBox="0 0 23 24" fill="none" xmlns="http://www.w3.org/2000/svg">
<path fill-rule="evenodd" clip-rule="evenodd" d="M21.5 24H1.5C0.673 24 0 23.327 0 22.5V17.5C0 17.224 0.224 17 0.5 17C0.776 17 1 17.224 1 17.5V22.5C1 22.775 1.225 23 1.5 23H21.5C21.775 23 22 22.775 22 22.5V17.5C22 17.224 22.224 17 22.5 17C22.776 17 23 17.224 23 17.5V22.5C23 23.327 22.327 24 21.5 24Z" fill="black"/>
<path fill-rule="evenodd" clip-rule="evenodd" d="M11.5 20C11.224 20 11 19.776 11 19.5V0.5C11 0.224 11.224 0 11.5 0C11.776 0 12 0.224 12 0.5V19.5C12 19.776 11.776 20 11.5 20Z" fill="black"/>
<path fill-rule="evenodd" clip-rule="evenodd" d="M11.5002 20C11.3723 20 11.2442 19.951 11.1462 19.854L5.14625 13.854C4.95125 13.658 4.95125 13.342 5.14625 13.147C5.34225 12.951 5.65825 12.951 5.85325 13.147L11.5002 18.793L17.1462 13.147C17.3422 12.951 17.6582 12.951 17.8532 13.147C18.0492 13.342 18.0492 13.658 17.8532 13.854L11.8533 19.854C11.7562 19.951 11.6282 20 11.5002 20Z" fill="black"/>
</svg>
