<svg width="24" height="17" viewBox="0 0 24 17" fill="none" xmlns="http://www.w3.org/2000/svg">
<path fill-rule="evenodd" clip-rule="evenodd" d="M23.5 9H0.5C0.224 9 0 8.776 0 8.5C0 8.224 0.224 8 0.5 8H23.5C23.776 8 24 8.224 24 8.5C24 8.776 23.776 9 23.5 9Z" fill="white"/>
<path fill-rule="evenodd" clip-rule="evenodd" d="M23.5 9.00025C23.372 9.00025 23.244 8.95125 23.147 8.85425L15.147 0.85425C14.951 0.65825 14.951 0.34225 15.147 0.14625C15.342 -0.04875 15.658 -0.04875 15.854 0.14625L23.854 8.14625C24.049 8.34225 24.049 8.65825 23.854 8.85425C23.756 8.95125 23.628 9.00025 23.5 9.00025Z" fill="white"/>
<path fill-rule="evenodd" clip-rule="evenodd" d="M15.5 17.0002C15.372 17.0002 15.244 16.9513 15.147 16.8542C14.951 16.6582 14.951 16.3422 15.147 16.1462L23.147 8.14625C23.342 7.95125 23.658 7.95125 23.854 8.14625C24.049 8.34225 24.049 8.65825 23.854 8.85425L15.854 16.8542C15.756 16.9513 15.628 17.0002 15.5 17.0002Z" fill="white"/>
</svg>
