<svg width="25" height="17" viewBox="0 0 25 17" fill="none" xmlns="http://www.w3.org/2000/svg">
<path fill-rule="evenodd" clip-rule="evenodd" d="M23.9678 9H0.996447C0.720791 9 0.49707 8.776 0.49707 8.5C0.49707 8.224 0.720791 8 0.996447 8H23.9678C24.2434 8 24.4671 8.224 24.4671 8.5C24.4671 8.776 24.2434 9 23.9678 9Z" fill="white"/>
<path fill-rule="evenodd" clip-rule="evenodd" d="M23.9679 9.00024C23.8401 9.00024 23.7122 8.95124 23.6153 8.85424L15.6253 0.854249C15.4296 0.65825 15.4296 0.34225 15.6253 0.14625C15.8201 -0.04875 16.1357 -0.04875 16.3314 0.14625L24.3215 8.14624C24.5162 8.34224 24.5162 8.65824 24.3215 8.85424C24.2236 8.95124 24.0957 9.00024 23.9679 9.00024Z" fill="white"/>
<path fill-rule="evenodd" clip-rule="evenodd" d="M15.9779 17.0002C15.8501 17.0002 15.7222 16.9512 15.6253 16.8542C15.4296 16.6582 15.4296 16.3422 15.6253 16.1462L23.6153 8.14625C23.8101 7.95125 24.1257 7.95125 24.3215 8.14625C24.5162 8.34225 24.5162 8.65825 24.3215 8.85425L16.3314 16.8542C16.2336 16.9512 16.1057 17.0002 15.9779 17.0002Z" fill="white"/>
</svg>
