<svg width="21" height="20" viewBox="0 0 21 20" fill="none" xmlns="http://www.w3.org/2000/svg">
<path fill-rule="evenodd" clip-rule="evenodd" d="M7.28662 0.833984C3.84426 0.833984 1.04443 3.63729 1.04443 7.08393C1.04443 10.5306 3.84426 13.3339 7.28662 13.3339C10.729 13.3339 13.5288 10.5306 13.5288 7.08393C13.5288 3.63729 10.729 0.833984 7.28662 0.833984ZM7.2868 14.1665C3.3859 14.1665 0.212402 10.9891 0.212402 7.08327C0.212402 3.17747 3.3859 0 7.2868 0C11.1869 0 14.3612 3.17747 14.3612 7.08327C14.3612 10.9891 11.1869 14.1665 7.2868 14.1665Z" fill="white"/>
<path fill-rule="evenodd" clip-rule="evenodd" d="M19.7733 19.9999C19.6668 19.9999 19.5602 19.9591 19.4787 19.8783L11.7034 12.0925C11.5403 11.9292 11.5403 11.6659 11.7034 11.5034C11.8657 11.34 12.1287 11.34 12.2918 11.5034L20.0671 19.2883C20.2302 19.4516 20.2302 19.7149 20.0671 19.8783C19.9864 19.9591 19.8798 19.9999 19.7733 19.9999Z" fill="white"/>
</svg>
