<svg width="215" height="130" viewBox="0 0 215 130" fill="none" xmlns="http://www.w3.org/2000/svg">
<rect x="0.5" y="0.5" width="214" height="129" fill="black" stroke="black"/>
<path d="M131.944 16.2326C130.615 16.7326 127.779 17.6582 126.831 17.897C124.54 18.4792 122.48 18.7479 119.89 18.8076C117.188 18.8673 115.74 18.7479 110.672 18.009C105.851 17.3074 103.417 17.0984 100.372 17.0984C98.1628 17.0984 96.6701 17.2178 94.8489 17.5238C89.5795 18.412 85.9745 20.5093 85.2132 23.1216C85.049 23.7038 85.049 24.704 85.2207 25.2861C85.5192 26.3236 86.1163 27.2192 87.2135 28.2716C88.1241 29.1598 88.9525 29.7719 91.5499 31.5109C94.3414 33.3769 94.9086 33.9292 95.2146 35.1308C95.3415 35.5936 95.2893 36.1086 95.0803 36.5116C94.9012 36.8475 94.3264 37.3103 93.9383 37.4222C92.5351 37.8327 91.5872 37.2804 86.4522 33.0858C82.7427 30.0629 81.2798 29.0031 79.9587 28.3911C79.2272 28.0477 78.6824 27.9358 77.7942 27.9358C76.8836 27.9358 76.3537 28.0552 75.5775 28.4209C74.8311 28.7717 74.4131 29.0703 73.8011 29.6898C73.3757 30.1226 73.2114 30.2421 72.9054 30.3242C72.2337 30.5033 71.4724 30.8914 71.1216 31.2422C70.7409 31.6229 70.6364 31.9737 70.7559 32.429C70.8305 32.7051 70.823 32.72 70.6364 32.7574C70.0095 32.8917 69.7557 33.0484 69.0989 33.7202C68.7108 34.1158 68.3376 34.4292 68.2257 34.4516C67.9346 34.5263 67.7704 34.8845 67.8077 35.3622C67.8525 35.8698 68.0988 36.3698 68.5391 36.8176C69.0019 37.2953 69.2183 37.3103 69.4348 36.8998C69.8602 36.0638 70.9798 35.8474 71.4276 36.5116C71.6366 36.8176 71.6441 37.0565 71.4575 37.467C71.2634 37.8775 70.9574 38.0417 70.4349 37.9969C70.1214 37.9671 69.9647 37.9074 69.6886 37.6909C69.1437 37.2655 69.1064 37.2953 69.1661 38.0641C69.2034 38.4298 69.2482 39.124 69.2706 39.6166C69.3228 40.4749 69.4199 40.8481 69.5915 40.8481C69.6363 40.8481 69.6512 40.7958 69.6288 40.7287C69.5766 40.5869 69.7632 40.1166 69.9647 39.9002C70.2259 39.6315 70.8305 39.4076 71.1738 39.4598C72.0993 39.6091 72.368 39.93 76.3761 45.5876C79.8617 50.5137 80.817 51.8049 81.7724 52.8871L82.2202 53.3947L82.0635 53.9843C81.4664 56.2085 80.1154 58.7313 78.8018 60.0971L78.1898 60.7241L77.7942 60.53C77.0926 60.1792 76.1149 60.2763 75.6521 60.739C75.2714 61.1197 75.3162 61.5824 75.7641 62.0676L75.9581 62.2691H65.9791H56V63.3513V64.4336H107.5H159V63.3513V62.2691H143.759H128.511L128.779 62.0527C128.921 61.9332 129.137 61.6571 129.257 61.4406C129.451 61.0824 129.481 60.9555 129.503 60.239C129.541 59.3209 129.429 58.7163 129.018 57.5296C128.518 56.0891 126.913 53.0737 126.577 52.9394C126.488 52.9021 126.182 52.805 125.883 52.7229C125.174 52.514 124.764 52.2005 124.48 51.6332C124.264 51.1929 124.256 51.1555 124.256 50.1032C124.264 49.5061 124.286 48.2298 124.323 47.2669C124.376 45.804 124.361 45.3861 124.264 44.7367C124.196 44.3038 124.144 43.9232 124.144 43.8933C124.144 43.7888 125.727 44.6322 126.465 45.1248C128.063 46.1921 130.093 48.0208 132.19 50.2823C135.108 53.4171 135.765 54.0291 137.392 55.1263C138.937 56.1637 140.654 56.8952 142.43 57.2833C143.11 57.4251 143.431 57.4475 144.819 57.4475C146.207 57.4475 146.528 57.4251 147.207 57.2758C150.76 56.5071 153.096 54.6187 154.044 51.7452C154.231 51.1705 154.253 51.0063 154.253 50.0285C154.261 48.8567 154.163 48.3492 153.835 47.864C153.462 47.3192 153.238 47.4013 152.947 48.185C152.626 49.0582 152.462 49.3045 151.723 49.9837C150.797 50.8346 150.566 51.2675 150.566 52.1333C150.566 52.5289 150.611 52.8349 150.708 53.0961L150.857 53.4768L150.506 53.85C149.775 54.6337 148.528 55.2979 147.155 55.6413C146.618 55.7756 146.282 55.8055 145.267 55.8055C143.408 55.8129 142.117 55.4995 140.303 54.6187C138.169 53.5738 136.698 52.3945 134.616 50.036C133.198 48.4387 130.018 45.2517 128.846 44.2665C126.324 42.1319 123.958 40.557 121.972 39.6837C121.032 39.2658 119.39 38.6537 118.808 38.5045C117.613 38.1984 114.964 37.9671 113.322 38.0268C112.605 38.0566 104.216 37.8626 104.156 37.8178C104.141 37.8103 104.179 37.5715 104.238 37.2879C104.47 36.2504 104.47 35.922 104.246 34.3471C104.201 34.0411 104.216 33.9889 104.358 33.9142C104.44 33.862 105.164 33.7948 105.948 33.7575C109.314 33.5858 112.523 33.1305 116.27 32.2946C121.898 31.0407 125.749 29.4285 126.697 27.9432C126.958 27.5178 126.966 27.1969 126.712 26.8983C126.57 26.7266 126.548 26.6595 126.622 26.6371C126.674 26.6147 126.988 26.5251 127.316 26.443C128.055 26.2415 128.891 25.8608 129.376 25.5026C130.235 24.8756 130.376 24.1069 129.675 23.8456C129.526 23.7934 129.585 23.7486 130.175 23.5396C131.309 23.1366 132.198 22.3976 132.324 21.7558C132.377 21.4945 132.272 21.3154 132.018 21.2184C131.892 21.1736 131.914 21.1437 132.205 20.9945C133.459 20.3675 134.034 19.3151 133.459 18.7031C133.369 18.6061 133.168 18.509 133.019 18.4866L132.735 18.4419L133.041 18.203C133.556 17.8149 133.787 17.4641 133.832 17.0461C133.929 16.0385 133.235 15.74 131.944 16.2326ZM111.098 48.9985C111.142 49.7748 111.321 50.3644 111.687 50.9316C112.031 51.469 113.008 52.514 114.083 53.4992C115.262 54.574 115.479 54.9397 115.352 55.5965C115.143 56.619 114.24 57.9774 112.702 59.5523L111.747 60.5375L111.329 60.3509C110.194 59.8284 108.911 60.3434 109.015 61.2839C109.052 61.6272 109.247 61.8884 109.627 62.1273C109.844 62.2691 109.612 62.2691 98.745 62.2691H87.6389L88.2211 61.9631C90.199 60.9331 93.0128 58.694 94.319 57.1266C95.2743 55.9771 96.2446 54.4247 96.3491 53.8724C96.379 53.6858 96.4536 53.6186 96.7746 53.4842C96.991 53.3947 97.924 52.9916 98.8495 52.5811C102.895 50.7973 106.769 49.3866 109.545 48.685C110.329 48.4835 110.993 48.3193 111.015 48.3193C111.045 48.3119 111.083 48.6253 111.098 48.9985ZM119.211 54.2455C120.293 54.7904 121.838 55.2084 123.069 55.2979C123.584 55.3353 123.793 55.3875 124.002 55.5144C124.734 55.9846 126.144 58.485 126.533 59.9927C126.615 60.3136 126.674 60.5823 126.667 60.5972C126.652 60.6047 126.458 60.5674 126.234 60.5077C125.749 60.3808 125.547 60.3808 125.159 60.4853C124.525 60.6569 124.346 61.2242 124.697 61.9183L124.868 62.2691H119.039H113.21L113.605 62.0825C113.829 61.978 114.299 61.7093 114.65 61.4779C117.001 59.9479 119.091 57.343 119.435 55.5219C119.494 55.1934 119.487 55.186 119.158 54.865C118.882 54.5963 118.621 54.1858 118.621 54.0216C118.621 53.9545 118.673 53.9769 119.211 54.2455ZM88.654 55.9398C88.5495 56.4324 88.0121 57.6938 87.6464 58.3058C87.2284 59.0074 86.6462 59.8061 86.1462 60.3584L85.8178 60.7166L85.5267 60.5524C85.1311 60.3136 84.2653 60.2613 83.8025 60.433C83.0114 60.739 82.8322 61.575 83.4517 62.0974L83.6533 62.2691H81.8022H79.9587L80.6006 61.9332C82.877 60.739 85.8103 58.2984 87.1986 56.425L87.7359 55.701H88.2211H88.7062L88.654 55.9398Z" fill="white"/>
<path d="M71.129 69.7255C70.9274 70.0763 69.7108 71.1809 69.1511 71.5317L68.6286 71.8601L68.0912 73.4275C67.0761 76.3757 65.4789 80.645 63.5383 85.5562C61.7769 90.0269 60.0527 94.2589 59.6945 94.9978C59.0078 96.4234 57.7987 97.4459 56.4477 97.7445C56.1716 97.8042 56.0298 97.8788 56.0148 97.9609C55.9551 98.252 56.9179 98.3043 58.5376 98.0953C59.269 98.0057 60.2393 98.0057 60.8812 98.0953C61.6127 98.2072 62.9636 98.2072 63.1577 98.0953C63.4189 97.9609 63.3144 97.7893 62.8815 97.64C62.1277 97.3788 61.747 96.916 61.747 96.2293C61.747 95.3113 62.2919 93.4752 63.3965 90.6315C63.7697 89.6687 64.2921 88.2879 64.5534 87.5714C64.8146 86.8548 65.143 86.0488 65.2774 85.7801L65.5162 85.2949L68.2405 85.3024C69.7407 85.3098 71.6216 85.3397 72.4277 85.3696L73.898 85.4218L73.9876 85.6233C74.6519 87.0564 76.9731 93.3633 77.503 95.1844C77.7045 95.8487 77.6971 96.5727 77.503 96.9683C77.3239 97.3191 77.0627 97.4758 76.376 97.64C75.7789 97.7893 75.6968 97.9609 76.1297 98.1475C76.3611 98.252 76.6596 98.2744 77.7195 98.2744C80.4139 98.2744 85.0041 98.1848 85.131 98.1326C85.2653 98.0729 85.3027 97.9087 85.1907 97.8415C85.1534 97.8191 84.8847 97.7669 84.5861 97.7221C83.9293 97.6325 83.4516 97.4012 82.7724 96.8563C81.5633 95.8711 80.5035 94.2888 79.6227 92.1392C78.9286 90.4225 72.7486 72.8006 72.2709 71.1511C72.0843 70.5316 71.8977 70.1136 71.6216 69.7479C71.3977 69.4568 71.2932 69.4493 71.129 69.7255ZM71.0021 76.7862C71.5469 78.2641 72.3008 80.3838 72.6889 81.5033L73.383 83.5335L72.9203 83.5783C72.1067 83.6678 67.3448 83.6529 66.7925 83.5633C66.5164 83.5111 66.27 83.4588 66.2551 83.4439C66.2402 83.429 66.3671 83.1006 66.5313 82.7125C66.9493 81.7571 67.0985 81.3764 67.9793 78.8761C69.054 75.8383 69.8452 73.9201 69.9646 74.0396C69.9945 74.0694 70.4647 75.3084 71.0021 76.7862Z" fill="white"/>
<path d="M88.6318 70.4791C86.43 70.5313 86.0642 70.5761 86.2732 70.7701C86.3105 70.8075 86.6688 70.9045 87.0719 70.9866C87.4674 71.0762 87.9974 71.2329 88.2437 71.3449C88.7064 71.5538 89.2363 72.039 89.3632 72.3823C89.6095 73.0317 89.6692 76.1515 89.505 80.1297C89.4379 81.7717 89.4379 83.7496 89.505 88.4518C89.6021 94.8184 89.5797 95.6021 89.3184 96.4007C89.1617 96.8635 88.9079 97.162 88.4601 97.3934C88.0272 97.6099 87.2883 97.7964 86.8479 97.7964C86.3852 97.7964 86.4225 97.983 86.9151 98.1323C87.3928 98.2741 87.9227 98.2741 89.2438 98.1323C90.4977 98.0054 92.0054 98.0428 93.5728 98.2592C94.7147 98.4085 95.1253 98.401 95.5955 98.1995C96.1179 97.983 95.9911 97.7964 95.3268 97.7964C94.1699 97.7964 93.2593 97.177 92.9458 96.1843C92.8264 95.8111 92.7667 95.3185 92.707 94.4004C92.6174 92.7883 92.5876 87.7875 92.6697 86.7277L92.7368 85.9291L94.8715 85.9365C96.0508 85.9365 97.1554 85.9664 97.3345 85.9888C97.6405 86.041 97.6629 86.0634 98.2078 86.9217C100.066 89.8625 102.656 92.9823 104.701 94.7363C106.746 96.4903 108.859 97.7517 110.359 98.1249C112.337 98.61 115.203 98.3413 116.77 97.5203C117.382 97.1993 117.949 96.6918 117.949 96.4679C117.949 96.3783 117.92 96.3037 117.882 96.3037C117.845 96.3037 117.494 96.4679 117.106 96.662C116.195 97.1322 115.703 97.2367 114.404 97.2292C113.076 97.2217 112.337 97.0501 111.195 96.4903C108.478 95.1543 105.843 92.6614 103.753 89.437C103.447 88.9593 102.783 88.004 102.276 87.3173C101.283 85.944 100.559 84.8692 100.559 84.7498C100.559 84.705 100.745 84.5632 100.969 84.4363C101.574 84.093 102.634 83.2496 103.082 82.757C103.955 81.8016 104.53 80.8015 104.821 79.6968C105.03 78.928 105.045 77.4875 104.858 76.7188C104.567 75.5022 103.738 73.9348 103.029 73.2481C101.873 72.136 99.8424 71.1284 98.0212 70.7478C96.9315 70.5238 92.3935 70.397 88.6318 70.4791ZM95.894 72.1584C98.2974 72.5017 99.7229 73.1735 100.514 74.3453C100.887 74.8976 101.156 75.5544 101.402 76.5172C101.537 77.0621 101.559 77.3681 101.559 78.5772C101.559 79.8013 101.537 80.0775 101.395 80.5925C101.126 81.5777 100.835 82.0852 100.156 82.757C99.6483 83.2645 99.4244 83.4212 98.7676 83.7496C98.3272 83.9586 97.6704 84.2124 97.2674 84.3169C96.4389 84.5259 94.9611 84.6826 94.364 84.6229C93.3414 84.5184 92.7145 84.4139 92.6771 84.3542C92.6324 84.2721 92.7891 72.3898 92.8413 72.1286L92.8787 71.9494L94.0132 72.0017C94.6401 72.0241 95.4835 72.0987 95.894 72.1584Z" fill="white"/>
<path d="M131.795 70.6359C129.257 70.7702 124.1 70.8598 118.472 70.8523L112.389 70.8374L112.382 71.7629C112.374 72.2704 112.315 73.0093 112.247 73.4049C112.18 73.808 112.128 74.3827 112.128 74.6887C112.128 75.7709 112.277 75.7485 112.867 74.5618C113.113 74.0617 113.486 73.4273 113.688 73.1586C114.136 72.554 114.584 72.3077 115.412 72.1958C116.039 72.1137 120.868 72.1062 121.159 72.1883L121.346 72.2406L121.435 75.8157C121.48 77.7861 121.555 80.2865 121.599 81.3762C121.711 84.1751 121.853 92.863 121.808 94.5124C121.749 96.8337 121.585 97.0725 119.689 97.5278C119.069 97.6845 118.883 97.8264 119.107 97.9906C119.278 98.1174 119.86 98.1249 121.92 98.013C123.219 97.9383 123.786 97.9458 125.518 98.0503C126.652 98.1249 127.645 98.1548 127.727 98.1324C127.809 98.11 127.876 98.0279 127.876 97.9532C127.876 97.7965 127.63 97.6771 127.078 97.5726C126.272 97.4233 125.705 97.0277 125.413 96.3933C125.122 95.7813 125.055 95.0573 124.966 91.8255C124.921 90.1238 124.831 87.8846 124.764 86.8621C124.607 84.2722 124.533 72.2107 124.682 72.1585C124.995 72.054 127.526 71.8748 128.772 71.8823C130.981 71.8823 132.392 72.1809 132.989 72.778C133.235 73.0243 133.474 73.487 133.691 74.1438C133.952 74.935 134.154 75.0917 134.243 74.5693C134.303 74.1961 134.168 71.3897 134.071 70.9419L133.982 70.5538L133.415 70.5687C133.101 70.5687 132.37 70.606 131.795 70.6359Z" fill="white"/>
<path d="M136.474 70.7629C136.415 70.8002 136.385 70.8972 136.4 70.9719C136.415 71.0838 136.556 71.1361 137.027 71.2405C138.184 71.4794 139.102 72.1138 139.527 72.9796C139.736 73.3976 139.773 73.5767 139.833 74.3753C139.87 74.8829 139.96 76.1293 140.042 77.1593C140.132 78.3535 140.206 80.2344 140.236 82.384C140.311 87.0861 140.311 86.9667 140.206 90.4075C140.109 93.7737 140.005 94.8111 139.706 95.4605C139.333 96.289 138.295 97.0204 137.094 97.3115C136.542 97.4384 136.385 97.5279 136.385 97.6921C136.385 97.9086 136.653 97.9384 138.333 97.8713C140.348 97.7966 153.775 97.9086 154.634 98.0131C154.962 98.0579 155.335 98.1101 155.455 98.1325C155.671 98.1773 155.701 98.14 156.432 97.11C157.694 95.3187 158.261 94.4379 158.567 93.7886C159.291 92.2511 159.022 91.6465 158.142 92.8183C157.149 94.1618 155.425 95.3858 153.671 95.9979C151.753 96.6696 149.058 96.8935 147.133 96.5278C145.991 96.3113 144.946 95.8113 144.378 95.1992C143.946 94.7365 143.505 93.7961 143.431 93.1691C143.401 92.9004 143.371 91.0046 143.363 88.9446V85.2053L145.789 85.153C148.319 85.1008 148.685 85.1306 149.29 85.4366C149.737 85.6755 150.417 86.5189 150.417 86.8473C150.417 86.907 150.469 86.9966 150.536 87.0563C150.633 87.1309 150.663 87.1309 150.715 87.0488C150.782 86.9443 150.738 82.1675 150.67 81.8391C150.611 81.5405 150.461 81.7048 150.267 82.2795C150.066 82.8766 149.812 83.2572 149.446 83.5259C148.976 83.8767 148.775 83.8991 145.983 83.9588L143.326 84.0111L143.311 79.4283C143.281 73.1065 143.289 72.5766 143.393 72.2631L143.475 71.9944L145.326 71.9496C149.364 71.8376 150.275 71.8974 151.208 72.3377C152.596 72.9871 153.499 74.6739 153.372 76.3831C153.313 77.1519 153.387 77.2713 153.708 76.913C154.096 76.4801 154.149 76.1144 154.149 73.8006C154.149 71.9571 154.089 70.9868 153.962 70.8674C153.94 70.845 150.223 70.8226 145.692 70.8151C141.169 70.8076 137.265 70.7778 137.019 70.7479C136.765 70.7181 136.527 70.7255 136.474 70.7629Z" fill="white"/>
<path d="M89.2511 109.507L87.9076 112.784L87.4822 112.993C87.1389 113.157 87.0493 113.239 87.0493 113.373V113.545H88.2808H89.5124V113.373C89.5124 113.239 89.4228 113.157 89.1019 113L88.6988 112.806L88.8705 112.336C88.9675 112.075 89.1392 111.604 89.2586 111.283L89.475 110.709L90.5871 110.724L91.6992 110.746L92.065 111.783C92.2665 112.351 92.4158 112.821 92.4083 112.828C92.3934 112.836 92.2068 112.925 91.9978 113.022C91.6843 113.157 91.6022 113.231 91.6022 113.373V113.545H93.0203H94.4384V113.373C94.4384 113.246 94.334 113.157 94.0055 112.985L93.5801 112.761L92.4232 109.514L91.2663 106.268L90.9305 106.245L90.5946 106.223L89.2511 109.507ZM91.4529 110.127C91.4529 110.164 91.0499 110.186 90.5648 110.186H89.6766L90.1169 109.022C90.3558 108.387 90.5797 107.828 90.6095 107.775C90.6469 107.708 91.4529 109.94 91.4529 110.127Z" fill="white"/>
<path d="M57.9404 106.484C57.9404 106.626 58.0225 106.693 58.3883 106.85L58.8361 107.044V109.94V112.836L58.3883 113.008C58.0151 113.157 57.9404 113.217 57.9404 113.366V113.545H60.3214H62.6948L62.7471 112.776C62.777 112.358 62.8217 111.94 62.8441 111.843C62.8814 111.701 62.8516 111.679 62.6277 111.679C62.3814 111.679 62.3664 111.701 62.0455 112.351L61.7171 113.022H60.7991H59.881V110.037V107.044L60.3288 106.85C60.6946 106.693 60.7767 106.626 60.7767 106.484V106.305H59.3585H57.9404V106.484Z" fill="white"/>
<path d="M118.994 106.484C118.994 106.641 119.061 106.693 119.442 106.843L119.89 107.014V109.925V112.836L119.442 113.015C119.069 113.165 118.994 113.224 118.994 113.374V113.545H120.226H121.457V113.374C121.457 113.224 121.383 113.165 121.009 113.015L120.562 112.836L120.569 110.373C120.569 108.739 120.599 107.962 120.644 108.059C120.681 108.141 121.196 109.418 121.778 110.896C122.748 113.344 122.86 113.583 123.017 113.583C123.174 113.583 123.286 113.344 124.264 110.896C124.853 109.418 125.368 108.141 125.406 108.059C125.45 107.962 125.48 108.761 125.48 110.381L125.488 112.859L125.04 113.023C124.667 113.165 124.592 113.217 124.592 113.366V113.545H126.047H127.503V113.374C127.503 113.224 127.428 113.165 127.055 113.015L126.607 112.836V109.925V107.014L127.055 106.843C127.436 106.693 127.503 106.641 127.503 106.484V106.298L126.443 106.32L125.383 106.343L124.331 108.977L123.278 111.612L122.233 108.977L121.188 106.343L120.091 106.32L118.994 106.298V106.484Z" fill="white"/>
<path d="M152.506 106.477C152.506 106.626 152.581 106.693 152.954 106.85L153.402 107.044V109.94V112.836L152.954 113.008C152.581 113.157 152.506 113.217 152.506 113.366V113.545H154.036H155.566V113.373C155.566 113.224 155.492 113.172 155.007 113.022L154.447 112.843V111.672V110.5L155.328 110.47C156.096 110.447 156.253 110.418 156.626 110.231C157.44 109.843 157.865 109.067 157.783 108.149C157.709 107.35 157.201 106.678 156.477 106.447C156.305 106.387 155.507 106.342 154.357 106.327L152.506 106.29V106.477ZM156.029 107.037C156.761 107.492 156.858 108.999 156.186 109.604C155.947 109.821 155.499 109.97 154.962 110.015L154.447 110.059V108.432V106.813L155.104 106.842C155.619 106.865 155.82 106.91 156.029 107.037Z" fill="white"/>
</svg>
