<svg width="215" height="130" viewBox="0 0 215 130" fill="none" xmlns="http://www.w3.org/2000/svg">
<rect width="215" height="130" fill="black"/>
<path d="M70.916 59.4191C74.523 58.7564 78.3752 56.2253 79.1619 52.3689H79.5809V59.4191H83.2492V59.9601H79.5809V78.6379C79.5809 79.2996 79.7648 80.3304 80.6027 80.2036C81.6756 80.041 82.35 78.0969 82.585 77.0722H82.9528C82.2887 80.1433 80.3575 82.252 76.9957 82.252C74.523 82.252 70.916 80.8663 70.916 77.9742" fill="white"/>
<path d="M154.755 80.8087C153.611 80.8087 153.182 80.1439 153.182 79.0599V59.4198H141.145V59.9618H141.87C143.74 59.9618 144.333 60.6848 144.333 62.5522V78.8789C144.333 79.7819 144.221 80.8087 143.076 80.8087H141.472C140.695 80.8087 140.154 80.0846 140.154 79.3626V65.0239C140.154 60.6255 137.323 58.5157 133.052 58.5157C130.344 58.5157 127.749 59.3594 126.605 61.9498C125.828 59.3001 123.171 58.5157 120.648 58.5157C117.756 58.5157 115.467 59.7215 114.149 62.3119V59.4208H102.889V59.9618H103.492C105.178 59.9618 105.903 61.0468 105.903 62.6728V79.0599C105.903 80.2053 105.413 80.8087 104.217 80.8087H102.889V81.3496H116.09V80.8087H115.59C114.507 80.8087 114.149 80.0253 114.149 79.0599V64.4789C114.149 62.9132 114.864 60.8065 116.734 60.8065C117.94 60.8065 118.665 61.8885 118.665 63.0349V79.0599C118.665 79.9046 118.543 80.8087 117.521 80.8087H116.755V81.3496H129.016V80.8087H128.597C127.514 80.8087 127.085 80.0846 127.085 79.0599V63.6976C127.085 62.1902 127.575 60.3831 129.435 60.3831C131.244 60.3831 131.663 62.1902 131.663 63.6976V79.3626C131.663 80.2053 131.121 80.8087 130.222 80.8087H129.68V81.3496H155.951V80.8087" fill="white"/>
<path d="M148.492 49.7173C150.842 49.7173 153.182 51.4651 153.182 53.9358C153.182 56.4659 150.842 58.2136 148.492 58.2136C146.081 58.2136 143.741 56.4659 143.741 53.9358C143.741 51.4651 146.081 49.7173 148.492 49.7173Z" fill="white"/>
<path d="M165.352 79.9613C163.543 79.9613 163.666 76.8606 163.604 75.7755L163.42 72.7025C163.359 71.7381 163.359 70.7748 163.359 69.8728C163.359 68.9074 163.359 67.944 163.42 66.9786L163.604 63.9056C163.666 62.8215 163.543 59.7198 165.352 59.7198C168.601 59.7198 167.937 68.0637 167.937 69.8728C167.937 71.6174 168.601 79.9613 165.352 79.9613ZM178.829 80.807C177.634 80.807 176.602 80.445 176.602 79.0583V48.9349H164.565V49.4769H165.413C167.038 49.4769 168.059 50.1999 168.059 51.8863V61.9482C167.211 59.9008 165.709 58.4538 163.359 58.4538C157.525 58.4538 154.51 65.4426 154.51 70.382C154.51 75.1425 157.106 81.891 162.756 81.891C165.525 81.891 167.15 79.722 168.059 77.3709V81.348H178.952V80.807" fill="white"/>
<path d="M93.9784 59.237C96.2672 59.237 96.1446 62.9728 96.1446 64.4178V69.48H91.3319C91.3319 67.3099 90.7904 59.237 93.9784 59.237ZM103.91 70.021C103.91 69.7203 103.972 69.48 103.972 69.1783C103.972 63.5158 99.8231 58.696 93.9784 58.696C87.4797 58.696 82.5444 63.9351 82.5444 70.383C82.5444 77.0722 87.725 82.1313 94.4075 82.1313C99.4552 82.1313 103.788 78.5162 103.91 73.3957H103.43C103.369 77.3708 100.058 81.4093 95.8483 81.4093C91.4545 81.4093 91.3319 76.0464 91.3319 72.914C91.3319 71.9487 91.3319 70.9853 91.3932 70.021" fill="white"/>
<path d="M25.6741 66.9494L29.889 53.2734L34.2235 66.9494H25.6741ZM65.2862 58.5749C62.8748 58.5749 61.1275 60.2623 60.4122 62.4313V59.4196H49.0294V59.9606H49.6322C51.1956 59.9606 51.8598 60.7429 51.8598 62.3107V79.1794C51.8598 79.8431 51.6247 80.6878 50.7766 80.6878C49.9286 80.6878 49.2746 79.9034 49.0294 79.1794L38.8011 47.8503H31.0314L23.2064 72.7939C22.1816 75.9867 20.0756 80.8075 16.0426 80.8075H15.5V81.3484H29.1656V80.8075H28.624C25.4932 80.8075 23.4465 78.3971 23.4465 75.324C23.4465 74.4813 23.5661 73.6979 23.8072 72.9146L25.4932 67.5528H34.4074L37.5954 77.7947C37.718 78.216 37.8304 78.6977 37.8304 79.1191C37.8304 80.6254 35.8481 80.8075 34.765 80.8075H33.8045V81.3484H63.355V80.8075H62.5171C61.1275 80.8075 60.4122 79.9034 60.4122 78.5801V65.9268C60.4122 62.4313 62.323 59.1425 65.0103 59.1425C66.4613 59.1425 67.6977 59.6006 68.2392 60.9853C67.3911 60.4433 66.5532 60.026 65.5212 60.026C63.2324 60.026 61.5566 61.7686 61.5566 64.1177C61.5566 66.4074 63.3039 68.1551 65.5825 68.1551C68.2392 68.1551 69.915 66.0474 69.915 63.5153C69.915 60.925 67.994 58.5749 65.2862 58.5749Z" fill="white"/>
<path d="M189.373 59.237C191.591 59.237 191.478 62.9728 191.478 64.4178V67.1892L191.54 69.48H186.655C186.655 67.3099 186.114 59.237 189.373 59.237ZM199.305 70.021V69.1783C199.305 63.5158 195.147 58.696 189.312 58.696C182.803 58.696 177.929 63.9351 177.929 70.383C177.929 77.0722 183.048 82.1313 189.731 82.1313C194.85 82.1313 198.999 78.5162 199.305 73.3957H198.753C198.702 77.3708 195.392 81.4093 191.233 81.4093C186.839 81.4093 186.655 76.0464 186.655 72.914C186.655 71.9487 186.717 70.9853 186.717 70.021" fill="white"/>
<path d="M196.496 47.748C194.84 47.748 193.492 49.099 193.492 50.7577C193.492 52.4175 194.84 53.7674 196.496 53.7674C198.151 53.7674 199.5 52.4175 199.5 50.7577C199.5 49.099 198.151 47.748 196.496 47.748ZM199.04 50.7577C199.04 52.1649 197.906 53.3093 196.496 53.3093C195.096 53.3093 193.952 52.1649 193.952 50.7577C193.952 49.3516 195.096 48.2072 196.496 48.2072C197.906 48.2072 199.04 49.3516 199.04 50.7577Z" fill="white"/>
<path d="M195.893 50.5675H196.445C196.997 50.5675 197.263 50.4049 197.263 50.0234C197.263 49.6144 197.007 49.4742 196.455 49.4742H195.893V50.5675V50.5675ZM196.445 49.0652C197.324 49.0652 197.753 49.3495 197.753 50.0091C197.753 50.4509 197.528 50.7444 197.089 50.8702L197.865 52.4379H197.334L196.629 50.9816H195.893V52.4379H195.413V49.0652" fill="white"/>
<path d="M70.916 59.4191C74.523 58.7564 78.3752 56.2253 79.1619 52.3689H79.5809V59.4191H83.2492V59.9601H79.5809V78.6379C79.5809 79.2996 79.7648 80.3304 80.6027 80.2036C81.6756 80.041 82.35 78.0969 82.585 77.0722H82.9528C82.2887 80.1433 80.3575 82.252 76.9957 82.252C74.523 82.252 70.916 80.8663 70.916 77.9742" fill="white"/>
<path d="M154.755 80.8087C153.611 80.8087 153.182 80.1439 153.182 79.0599V59.4198H141.145V59.9618H141.87C143.74 59.9618 144.333 60.6848 144.333 62.5522V78.8789C144.333 79.7819 144.221 80.8087 143.076 80.8087H141.472C140.695 80.8087 140.154 80.0846 140.154 79.3626V65.0239C140.154 60.6255 137.323 58.5157 133.052 58.5157C130.344 58.5157 127.749 59.3594 126.605 61.9498C125.828 59.3001 123.171 58.5157 120.648 58.5157C117.756 58.5157 115.467 59.7215 114.149 62.3119V59.4208H102.889V59.9618H103.492C105.178 59.9618 105.903 61.0468 105.903 62.6728V79.0599C105.903 80.2053 105.413 80.8087 104.217 80.8087H102.889V81.3496H116.09V80.8087H115.59C114.507 80.8087 114.149 80.0253 114.149 79.0599V64.4789C114.149 62.9132 114.864 60.8065 116.734 60.8065C117.94 60.8065 118.665 61.8885 118.665 63.0349V79.0599C118.665 79.9046 118.543 80.8087 117.521 80.8087H116.755V81.3496H129.016V80.8087H128.597C127.514 80.8087 127.085 80.0846 127.085 79.0599V63.6976C127.085 62.1902 127.575 60.3831 129.435 60.3831C131.244 60.3831 131.663 62.1902 131.663 63.6976V79.3626C131.663 80.2053 131.121 80.8087 130.222 80.8087H129.68V81.3496H155.951V80.8087" fill="white"/>
<path d="M148.492 49.7173C150.842 49.7173 153.182 51.4651 153.182 53.9358C153.182 56.4659 150.842 58.2136 148.492 58.2136C146.081 58.2136 143.741 56.4659 143.741 53.9358C143.741 51.4651 146.081 49.7173 148.492 49.7173Z" fill="white"/>
<path d="M165.352 79.9613C163.543 79.9613 163.666 76.8606 163.604 75.7755L163.42 72.7025C163.359 71.7381 163.359 70.7748 163.359 69.8728C163.359 68.9074 163.359 67.944 163.42 66.9786L163.604 63.9056C163.666 62.8215 163.543 59.7198 165.352 59.7198C168.601 59.7198 167.937 68.0637 167.937 69.8728C167.937 71.6174 168.601 79.9613 165.352 79.9613ZM178.829 80.807C177.634 80.807 176.602 80.445 176.602 79.0583V48.9349H164.565V49.4769H165.413C167.038 49.4769 168.059 50.1999 168.059 51.8863V61.9482C167.211 59.9008 165.709 58.4538 163.359 58.4538C157.525 58.4538 154.51 65.4426 154.51 70.382C154.51 75.1425 157.106 81.891 162.756 81.891C165.525 81.891 167.15 79.722 168.059 77.3709V81.348H178.952V80.807" fill="white"/>
<path d="M93.9784 59.237C96.2672 59.237 96.1446 62.9728 96.1446 64.4178V69.48H91.3319C91.3319 67.3099 90.7904 59.237 93.9784 59.237ZM103.91 70.021C103.91 69.7203 103.972 69.48 103.972 69.1783C103.972 63.5158 99.8231 58.696 93.9784 58.696C87.4797 58.696 82.5444 63.9351 82.5444 70.383C82.5444 77.0722 87.725 82.1313 94.4075 82.1313C99.4552 82.1313 103.788 78.5162 103.91 73.3957H103.43C103.369 77.3708 100.058 81.4093 95.8483 81.4093C91.4545 81.4093 91.3319 76.0464 91.3319 72.914C91.3319 71.9487 91.3319 70.9853 91.3932 70.021" fill="white"/>
<path d="M25.6741 66.9494L29.889 53.2734L34.2235 66.9494H25.6741ZM65.2862 58.5749C62.8748 58.5749 61.1275 60.2623 60.4122 62.4313V59.4196H49.0294V59.9606H49.6322C51.1956 59.9606 51.8598 60.7429 51.8598 62.3107V79.1794C51.8598 79.8431 51.6247 80.6878 50.7766 80.6878C49.9286 80.6878 49.2746 79.9034 49.0294 79.1794L38.8011 47.8503H31.0314L23.2064 72.7939C22.1816 75.9867 20.0756 80.8075 16.0426 80.8075H15.5V81.3484H29.1656V80.8075H28.624C25.4932 80.8075 23.4465 78.3971 23.4465 75.324C23.4465 74.4813 23.5661 73.6979 23.8072 72.9146L25.4932 67.5528H34.4074L37.5954 77.7947C37.718 78.216 37.8304 78.6977 37.8304 79.1191C37.8304 80.6254 35.8481 80.8075 34.765 80.8075H33.8045V81.3484H63.355V80.8075H62.5171C61.1275 80.8075 60.4122 79.9034 60.4122 78.5801V65.9268C60.4122 62.4313 62.323 59.1425 65.0103 59.1425C66.4613 59.1425 67.6977 59.6006 68.2392 60.9853C67.3911 60.4433 66.5532 60.026 65.5212 60.026C63.2324 60.026 61.5566 61.7686 61.5566 64.1177C61.5566 66.4074 63.3039 68.1551 65.5825 68.1551C68.2392 68.1551 69.915 66.0474 69.915 63.5153C69.915 60.925 67.994 58.5749 65.2862 58.5749Z" fill="white"/>
<path d="M189.373 59.237C191.591 59.237 191.478 62.9728 191.478 64.4178V67.1892L191.54 69.48H186.655C186.655 67.3099 186.114 59.237 189.373 59.237ZM199.305 70.021V69.1783C199.305 63.5158 195.147 58.696 189.312 58.696C182.803 58.696 177.929 63.9351 177.929 70.383C177.929 77.0722 183.048 82.1313 189.731 82.1313C194.85 82.1313 198.999 78.5162 199.305 73.3957H198.753C198.702 77.3708 195.392 81.4093 191.233 81.4093C186.839 81.4093 186.655 76.0464 186.655 72.914C186.655 71.9487 186.717 70.9853 186.717 70.021" fill="white"/>
<path d="M196.496 47.748C194.84 47.748 193.492 49.099 193.492 50.7577C193.492 52.4175 194.84 53.7674 196.496 53.7674C198.151 53.7674 199.5 52.4175 199.5 50.7577C199.5 49.099 198.151 47.748 196.496 47.748ZM199.04 50.7577C199.04 52.1649 197.906 53.3093 196.496 53.3093C195.096 53.3093 193.952 52.1649 193.952 50.7577C193.952 49.3516 195.096 48.2072 196.496 48.2072C197.906 48.2072 199.04 49.3516 199.04 50.7577Z" fill="white"/>
<path d="M195.893 50.5675H196.445C196.997 50.5675 197.263 50.4049 197.263 50.0234C197.263 49.6144 197.007 49.4742 196.455 49.4742H195.893V50.5675V50.5675ZM196.445 49.0652C197.324 49.0652 197.753 49.3495 197.753 50.0091C197.753 50.4509 197.528 50.7444 197.089 50.8702L197.865 52.4379H197.334L196.629 50.9816H195.893V52.4379H195.413V49.0652" fill="white"/>
</svg>
