<svg width="215" height="130" viewBox="0 0 215 130" fill="none" xmlns="http://www.w3.org/2000/svg">
<rect width="215" height="130" fill="black"/>
<path d="M19.9745 57.9341V63.6228H27.2876V66.1677H19.9745V74.7006H16.5V55.2695H27.6847V57.9341H19.9745ZM44.4287 67.9042H37.5458L39.9615 61.8862C40.3916 60.8383 40.7225 59.7904 40.9542 58.8024H41.0204C41.2851 59.8802 41.5498 60.7784 41.98 61.7964L44.4287 67.9042ZM50.8484 74.7006L43.072 55.2695H39.2004L31.4902 74.7006H34.9978L36.6524 70.4192H45.3222L46.9767 74.7006H50.8484ZM71.5302 58.7425C69.7433 58.1138 67.7909 57.7246 65.8055 57.7246C61.4705 57.7246 58.0291 60.2695 58.0291 65.0599C58.0291 69.5509 60.8749 72.1557 65.4745 72.1557C66.732 72.1557 67.7909 71.9761 68.7836 71.7066V64.6707H72.2582V73.8024C70.1404 74.5509 67.5262 74.9701 65.0775 74.9701C58.4262 74.9701 54.3229 71.3773 54.3229 65.3892C54.3229 59.3713 58.7902 55 66.1364 55C68.188 55 70.2396 55.2994 72.1258 55.8383L71.5302 58.7425ZM80.2993 74.7006V55.2695H91.6164V57.9042H83.7407V63.4132H91.2193V65.988H83.7407V72.0359H91.6164V74.7006H80.2993V74.7006ZM109.287 60.7784C109.287 62.6946 107.599 64.012 104.787 64.012C104.025 64.012 103.43 63.982 103.099 63.9521V57.7844C103.595 57.7545 104.257 57.7245 104.919 57.7245C107.831 57.7245 109.287 58.6527 109.287 60.7784V60.7784V60.7784ZM114.317 74.7006L108.658 67.9341C108.129 67.3054 107.434 66.5569 106.838 65.8683C110.346 65.509 112.927 63.5329 112.927 60.4192C112.927 56.5569 109.883 55.1497 105.415 55.1497C103 55.1497 101.213 55.1796 99.6574 55.2695V74.7006H103.132V66.2874H103.297L109.982 74.7006H114.317V74.7006V74.7006ZM134.502 74.7006V65.988H124.376V74.7006H120.902V55.2695H124.376V63.2934H134.502V55.2695H137.944V74.7006H134.502V74.7006ZM154.125 75C147.375 75 145.952 71.6766 145.952 68.0838V55.2695H149.426V67.8443C149.426 70.4491 150.386 72.3952 154.357 72.3952C157.864 72.3952 159.453 71.0779 159.453 67.4551V55.2695H162.861V67.2156C162.828 72.3952 159.751 75 154.125 75H154.125V75ZM171.101 74.7006V55.2695H174.575V71.976H181.955V74.7006H171.101H171.101ZM192.577 57.9341V74.7006H189.102V57.9341H183.245V55.2695H198.5V57.9341H192.577Z" fill="white"/>
</svg>
