<svg width="215" height="130" viewBox="0 0 215 130" fill="none" xmlns="http://www.w3.org/2000/svg">
<rect width="215" height="130" fill="black"/>
<path d="M139.033 79.2872L135.676 75.555H134.046V81.5945H135.597V77.8414L138.966 81.5945H140.583V75.555H139.033V79.2872Z" fill="white"/>
<path d="M42.0701 75.555L38.9233 81.5945H40.6973L41.2771 80.4637H44.2216L44.8094 81.5945H46.5715L43.4008 75.555H42.0701ZM42.0528 78.9467L42.7383 77.6094L43.4335 78.9467H42.0528Z" fill="white"/>
<path d="M152.701 75.555L149.554 81.5945H151.329L151.908 80.4637H154.852L155.439 81.5945H157.202L154.032 75.555H152.701ZM152.684 78.9467L153.37 77.6094L154.064 78.9467H152.684Z" fill="white"/>
<path d="M89.154 79.2427H92.8702V77.7257H89.154V77.0786H93.0102V75.555H87.6021V81.5945H93.0559V80.0767H89.154V79.2427Z" fill="white"/>
<path d="M104.484 75.555H102.934V81.5945H107.989V80.0767H104.484V75.555Z" fill="white"/>
<path d="M84.1462 48.8777L83.8981 48.4055H83.3646H80.0307H79.4952L79.2478 48.8801L69.1697 68.2223L68.4976 69.5126H69.9526H73.6177H74.1568L74.4029 69.033L76.2462 65.4415H87.2456L89.1154 69.0371L89.3626 69.5126H89.8985H93.5188H94.9787L94.3002 68.2199L84.1462 48.8777ZM78.7095 60.6221L81.7046 54.7767L84.7422 60.6221H78.7095Z" fill="white"/>
<path d="M28.0616 69.5127H28.9442V68.6302V61.0429H41.4462H42.3289V60.1604V57.106V56.2235H41.4462H28.9442V53.2485H41.9496H42.8323V52.3661V49.2879V48.4055H41.9496H24.8827H24V49.2879V68.6302V69.5127H24.8827H28.0616Z" fill="white"/>
<path d="M191 75.555H167.477V81.5939H191V75.555Z" fill="white"/>
<path d="M184.15 48.4055H174.327C170.544 48.4055 167.477 51.4717 167.477 55.2542V62.6639C167.477 66.4464 170.544 69.5126 174.327 69.5126H184.15C187.933 69.5126 191 66.4464 191 62.6639V55.2542C191 51.4717 187.933 48.4055 184.15 48.4055ZM185.763 62.6639C185.763 63.5533 185.039 64.2769 184.15 64.2769H174.327C173.438 64.2769 172.714 63.5533 172.714 62.6639V55.2542C172.714 54.3648 173.438 53.6412 174.327 53.6412H184.15C185.039 53.6412 185.763 54.3648 185.763 55.2542V62.6639Z" fill="white"/>
<path d="M122.147 75.555H119.336C118.254 75.555 117.376 76.4324 117.376 77.5147V79.6348C117.376 80.7171 118.254 81.5945 119.336 81.5945H122.147C123.229 81.5945 124.107 80.7171 124.107 79.6348V77.5147C124.107 76.4324 123.229 75.555 122.147 75.555ZM122.608 79.6348C122.608 79.8893 122.401 80.0964 122.147 80.0964H119.336C119.081 80.0964 118.874 79.8893 118.874 79.6348V77.5147C118.874 77.2602 119.081 77.0531 119.336 77.0531H122.147C122.401 77.0531 122.608 77.2602 122.608 77.5147V79.6348Z" fill="white"/>
<path d="M76.1793 75.555H73.3687C72.2862 75.555 71.4087 76.4324 71.4087 77.5147V79.6348C71.4087 80.7171 72.2862 81.5945 73.3687 81.5945H76.1793C77.2617 81.5945 78.1393 80.7171 78.1393 79.6348V79.1083H76.6409V79.6348C76.6409 79.8893 76.4338 80.0963 76.1793 80.0963H73.3687C73.1142 80.0963 72.9072 79.8893 72.9072 79.6348V77.5147C72.9072 77.2602 73.1142 77.0532 73.3687 77.0532H76.1793C76.4338 77.0532 76.6409 77.2602 76.6409 77.5147V78.0412H78.1393V77.5147C78.1393 76.4324 77.2617 75.555 76.1793 75.555Z" fill="white"/>
<path d="M29.7945 78.3362C29.9334 78.1035 29.9985 77.7767 29.9985 77.3205C29.9985 76.7283 29.8376 76.2787 29.5209 75.9852C29.2136 75.6995 28.7877 75.555 28.2556 75.555H24V81.5945H28.1951C28.8504 81.5945 29.3277 81.4441 29.6536 81.135C29.9887 80.818 30.1514 80.3245 30.1514 79.6258C30.1514 79.0617 30.0475 78.6552 29.8347 78.3846C29.8216 78.3676 29.8082 78.3519 29.7945 78.3362ZM25.5579 77.4222V77.3679V77.0787H25.8472H27.9765H28.2209C28.3806 77.0787 28.5102 77.2081 28.5102 77.3679V77.4222C28.5102 77.5818 28.3806 77.7114 28.2209 77.7114H27.9765H25.8472H25.5579V77.4222ZM28.5735 79.6887C28.5735 79.903 28.3996 80.0768 28.1853 80.0768H27.8574H25.9461H25.5579V79.6887V79.6159V79.2277H25.9461H27.8574H28.1853C28.3996 79.2277 28.5735 79.4015 28.5735 79.6159V79.6887V79.6887Z" fill="white"/>
<path d="M61.6632 77.5532C61.6632 76.8048 61.4919 76.2924 61.1412 75.9871C60.8162 75.7002 60.3158 75.555 59.6545 75.555H55.5376V81.5945H57.0876V79.5585H59.6074C59.8797 79.5585 59.9732 79.6062 59.9886 79.6016C59.9988 79.6219 60.0387 79.7179 60.0387 79.9735V81.5945H61.5831V79.7245C61.5831 79.3512 61.5034 79.0624 61.3389 78.8466C61.3589 78.8231 61.3778 78.799 61.3951 78.7734C61.5778 78.5127 61.6632 78.1244 61.6632 77.5532ZM60.1786 77.6023C60.1786 77.8452 59.9816 78.0422 59.7387 78.0422H59.3671H57.5273H57.0876V77.6023V77.5199V77.0801H57.5273H59.3671H59.7387C59.9816 77.0801 60.1786 77.2769 60.1786 77.5199V77.6023Z" fill="white"/>
<path d="M142.013 55.3892C142.013 52.7736 141.414 50.9826 140.188 49.9158C139.053 48.9128 137.304 48.4055 134.993 48.4055H120.604V69.5138H126.021V62.3978H134.828C135.78 62.3978 136.106 62.5646 136.16 62.5487C136.196 62.6194 136.335 62.9553 136.335 63.8485V69.5138H141.733V62.9783C141.733 61.6737 141.454 60.6641 140.88 59.91C140.949 59.8278 141.016 59.7433 141.076 59.6542C141.715 58.7427 142.013 57.3859 142.013 55.3892ZM136.824 55.561C136.824 56.4099 136.136 57.0983 135.287 57.0983H133.988H127.558H126.021V55.561V55.2728V53.7358H127.558H133.988H135.287C136.136 53.7358 136.824 54.4236 136.824 55.2728V55.561Z" fill="white"/>
</svg>
