<svg width="215" height="130" viewBox="0 0 215 130" fill="none" xmlns="http://www.w3.org/2000/svg">
<rect width="215" height="130" fill="black"/>
<path d="M30.005 45.049C32.755 45.049 35.01 47.3055 35.01 50.0573C35.01 52.8092 32.755 55.0657 30.005 55.0657C27.255 55.0657 25 52.8367 25 50.0573C25 47.278 27.255 45.049 30.005 45.049Z" fill="white"/>
<path d="M170.888 84.6491H178.974V69.2938L178.644 67.7527L178.149 66.5419L177.434 65.1935L176.306 63.5699L175.481 62.7443L174.051 61.6161L172.813 61.0107L171.493 60.4878L169.458 60.1025H154.003V84.6491H162.198V67.0372H167.918L168.936 67.3674L169.761 68.0829L170.173 68.7984L170.668 69.8166L170.888 84.6491Z" fill="white"/>
<path d="M65.3707 58.4506L72.0257 54.4604L71.2007 53.2221L69.5782 51.5985L67.3232 49.6447L64.4632 47.8009L62.2082 46.8928L59.4582 46.0672L57.3132 45.7645H55.0581L51.6756 46.0672L48.8156 47.0029L46.1756 48.2137L43.6181 49.7547L41.7756 51.4884L40.1256 53.1395L38.8056 55.0658L37.6781 57.1297L36.5506 60.1843L35.9456 62.2482L35.7256 64.3946L35.9456 66.9538L36.2481 69.5131L37.1556 72.375L38.3931 74.9342L39.6306 76.9706L41.1431 78.7043L42.9856 80.4379L45.1306 81.979L47.1931 83.1072L49.2281 83.9328L51.6756 84.6483L54.5356 84.951H73.3457V60.4044H65.2882V77.0807H54.3431L52.6106 76.6679L51.0706 76.035L49.2281 75.0168L47.6881 73.9986L46.5606 72.6777L45.4331 70.944L44.6356 69.1828L44.2231 67.1465L44.1131 64.8899L44.3331 62.8536L45.1306 60.597L46.2581 58.5607L47.7981 56.827L49.7506 55.4786L51.7856 54.5705L54.0406 53.9651L56.2957 53.855L58.8257 54.1577L60.8882 54.9833L62.8132 56.1115L64.1607 57.2123L65.3707 58.4506Z" fill="white"/>
<path d="M75.6006 60.293V74.8228L75.7106 76.7766L76.1231 78.4002L76.8381 79.8312L77.9656 81.3722L79.5881 82.9133L81.2381 83.9314L82.9706 84.6469L85.1156 84.8396H100.763V60.293H92.4856V77.8773H86.3256L85.4181 77.5746L84.7031 77.0793L83.9881 76.1437V75.0154V60.293H75.6006Z" fill="white"/>
<path d="M144.103 60.293H102.385L102.495 67.2552H111.598L101.258 84.7295H142.673V78.2076H133.763L144.103 60.293ZM124.88 78.2076L114.87 78.0975L121.003 67.4478H131.013L124.88 78.2076Z" fill="white"/>
<path d="M184.995 45.2703C187.745 45.2703 190 47.5268 190 50.2786C190 53.0305 187.745 55.287 184.995 55.287C182.245 55.287 179.99 53.0305 179.99 50.2786C179.99 47.5268 182.218 45.2703 184.995 45.2703Z" fill="white"/>
<path d="M180.705 59.9919H188.983V84.6486H180.705V59.9919Z" fill="white"/>
<path d="M147.87 45.6537C150.62 45.6537 152.875 47.9102 152.875 50.6621C152.875 53.4139 150.62 55.6705 147.87 55.6705C145.12 55.6705 142.865 53.4139 142.865 50.6621C142.975 47.9102 145.23 45.6537 147.87 45.6537Z" fill="white"/>
<path d="M144.102 60.4037H152.187V84.8402H144.102V60.4037Z" fill="white"/>
<path d="M26.0176 59.7704H34.2951V84.7298H26.0176V59.7704Z" fill="white"/>
</svg>
