<svg width="215" height="130" viewBox="0 0 215 130" fill="none" xmlns="http://www.w3.org/2000/svg">
<rect width="215" height="130" fill="black"/>
<path d="M163.299 61.1683H157.607V65.8951H163.299V61.1683Z" fill="white"/>
<path d="M103.638 47.6772L98.6206 49.1941L99.8817 53.365L104.899 51.8481L103.638 47.6772Z" fill="white"/>
<path d="M179.553 56.4174C179.224 55.3318 178.717 54.4417 178.031 53.7501C177.358 53.0661 176.496 52.5574 175.44 52.238C174.382 51.9184 173.121 51.7603 171.638 51.7603H157.581V56.4856H169.211C171.199 56.4856 172.558 56.8052 173.285 57.444C174.025 58.0832 174.382 59.1096 174.382 60.5255V66.7583C174.382 67.7571 174.245 68.5387 173.972 69.1139C173.696 69.6908 173.175 70.1144 172.434 70.3873C171.68 70.6664 170.612 70.8044 169.211 70.8044H157.581V75.5297H171.68C173.71 75.5297 175.342 75.2274 176.576 74.6162C177.811 74.0115 178.703 73.0639 179.252 71.7675C179.799 70.4788 180.074 68.8008 180.074 66.7241V60.4278C180.06 58.8415 179.882 57.5 179.553 56.4174Z" fill="white"/>
<path d="M77.5942 57.6526C76.4558 57.1051 75.0848 56.8306 73.4376 56.8306H67.0323C65.3852 56.8306 64.0017 57.1051 62.8633 57.6526C61.7389 58.1952 60.8874 58.921 60.326 59.9648C59.763 61.0084 59.4761 62.0537 59.4761 63.5054V75.5304H65.168V64.6358C65.168 63.1518 65.4705 62.7701 66.0862 62.1266C66.7035 61.4754 67.7333 61.1496 69.1865 61.1496H71.285C72.7242 61.1496 73.7525 61.4754 74.3697 62.1266C74.987 62.7701 75.2895 63.1518 75.2895 64.6358V75.5304H80.9814V63.5054C80.9814 62.0506 80.7069 61.0084 80.1315 59.9648C79.5685 58.921 78.7186 58.1952 77.5942 57.6526Z" fill="white"/>
<path d="M97.2476 61.5891V57.6903H90.0203V54.7966H83.7095V68.9743C83.7095 70.2755 83.9856 71.4137 84.5346 72.3893C85.0681 73.3584 85.9459 74.1028 87.0021 74.6131C89.0168 75.6101 94.8328 75.3868 97.1251 75.3868L97.1515 70.4444H92.7763C90.9384 70.4444 90.0203 69.8255 90.0203 67.7924V61.5891H97.2476V61.5891Z" fill="white"/>
<path d="M154.536 61.168H134.004V65.8948H154.536V61.168Z" fill="white"/>
<path d="M154.536 70.8054H134.004V75.5322H154.536V70.8054Z" fill="white"/>
<path d="M154.536 51.7603H134.004V56.4856H154.536V51.7603Z" fill="white"/>
<path d="M116.19 51.7603H110.498V75.5295H131.22V70.8042H116.19V51.7603Z" fill="white"/>
<path d="M56.5969 51.7603H50.9189V75.5314H56.5969V51.7603Z" fill="white"/>
<path d="M106.724 57.686H100.554V75.4785H106.724V57.686Z" fill="white"/>
<path d="M90.0891 33.6267L87.209 37.8814L90.7463 40.2756L93.6264 36.0209L90.0891 33.6267Z" fill="white"/>
<path d="M85.3722 31.2633L81.3398 29.866L79.6523 34.7186L83.6988 36.1189L85.3722 31.2633Z" fill="white"/>
<path d="M71.9008 28.5L71.5337 33.6242L75.7988 33.9297L76.1659 28.8054L71.9008 28.5Z" fill="white"/>
<path d="M66.6384 28.8139L62.4414 29.621L63.412 34.6678L67.6091 33.8607L66.6384 28.8139Z" fill="white"/>
<path d="M59.6813 35.9109L57.4324 31.2895L53.5923 33.1551L55.8287 37.7765L59.6813 35.9109Z" fill="white"/>
<path d="M52.5512 39.944L49.1779 36.0591L45.9551 38.857L49.3159 42.7402L52.5512 39.944Z" fill="white"/>
<path d="M37.696 51.0594L36.2969 55.0952L41.1518 56.778L42.5509 52.7422L37.696 51.0594Z" fill="white"/>
<path d="M40.3566 60.6339L35.2416 60.268L34.9268 64.5281L40.0557 64.8939L40.3566 60.6339Z" fill="white"/>
<path d="M40.2899 68.8237L35.2432 69.7961L36.0516 73.9913L41.0984 73.0188L40.2899 68.8237Z" fill="white"/>
<path d="M46.7076 45.6861L42.4426 42.8046L40.0557 46.3421L44.3068 49.2236L46.7076 45.6861Z" fill="white"/>
<path d="M42.3337 76.7533L37.7119 78.9989L39.5746 82.8433L44.2134 80.5962L42.3337 76.7533Z" fill="white"/>
<path d="M42.4814 87.2464L45.2809 90.4753L49.1769 87.1131L46.3789 83.8843L42.4814 87.2464Z" fill="white"/>
<path d="M52.1112 89.7252L49.2319 93.9804L52.7716 96.3751L55.6508 92.1198L52.1112 89.7252Z" fill="white"/>
<path d="M57.4888 98.7376L61.5336 100.133L63.2086 95.2777L59.1746 93.8802L57.4888 98.7376Z" fill="white"/>
<path d="M67.0578 96.0703L66.6924 101.196L70.9576 101.5L71.323 96.3743L67.0578 96.0703Z" fill="white"/>
<path d="M75.2476 96.1415L76.2215 101.185L80.4184 100.378L79.4584 95.3305L75.2476 96.1415Z" fill="white"/>
<path d="M83.188 94.0884L85.4244 98.7114L89.2785 96.8427L87.0297 92.2228L83.188 94.0884Z" fill="white"/>
<path d="M90.3218 90.0564L93.6827 93.938L96.9055 91.142L93.5446 87.2571L90.3218 90.0564Z" fill="white"/>
<path d="M96.1523 84.3147L100.417 87.1962L102.803 83.6587L98.5517 80.7789L96.1523 84.3147Z" fill="white"/>
<path d="M97.5776 39.5253L93.6968 42.8894L96.4944 46.1163L100.375 42.7522L97.5776 39.5253Z" fill="white"/>
</svg>
