<svg width="215" height="130" viewBox="0 0 215 130" fill="none" xmlns="http://www.w3.org/2000/svg">
<rect width="215" height="130" fill="black"/>
<path d="M156 122.051H59V7.94849H156V122.051ZM59.7846 121.267H155.287V8.73294H59.7846V121.267Z" fill="white"/>
<path d="M97.3007 30.7692V29.6995H89.7404V30.7692H91.6661V50.3093H89.8117L90.0257 44.0336H89.3124C89.0985 45.1034 88.8132 46.0305 88.4565 46.9575C88.1713 47.8133 87.7433 48.5265 87.3154 49.097C86.8874 49.6675 86.4595 50.0241 86.1029 50.1667C85.7463 50.3093 85.1757 50.3806 84.3911 50.3806H82.9646V30.7692H85.1757V29.6995H77.3301V30.7692H79.3271V50.3093H77.3301V51.379H97.2293V50.3093H95.2323V30.7692H97.3007Z" fill="white"/>
<path d="M109.782 43.8909V48.0984C108.071 50.4518 106.216 51.6641 104.148 51.6641C102.151 51.6641 100.51 50.5944 99.2266 48.455C97.8714 46.3156 97.2295 43.6769 97.2295 40.5391C97.2295 37.4013 97.9427 34.7626 99.2979 32.6232C100.724 30.4838 102.293 29.4141 104.148 29.4141C105.503 29.4141 106.716 30.0559 107.857 31.4109C108.071 31.0543 108.427 30.5551 108.713 29.9846H109.426V36.4029H108.713C107.928 32.4806 106.359 30.4838 104.148 30.4838C103.363 30.4838 102.793 30.6977 102.365 31.1969C101.937 31.6961 101.652 32.4806 101.509 33.479C101.366 34.4774 101.366 36.5455 101.366 39.6833C101.366 42.6785 101.366 44.8893 101.366 46.3869C101.366 47.8845 101.58 48.9542 102.008 49.5247C102.436 50.1665 103.078 50.4518 103.934 50.4518C104.576 50.4518 105.075 50.3092 105.432 49.9526C105.788 49.596 105.931 49.1681 106.002 48.5976C106.074 48.0271 106.074 47.1713 106.074 46.0303V43.8196H104.077V42.7498H110.852V43.8196H109.782V43.8909Z" fill="white"/>
<path d="M134.674 30.7692C136.386 30.7692 137.527 32.766 138.026 36.7596H138.668L138.597 29.6995H119.054V30.7692H120.909V39.6122H116.059V30.7692H117.913V29.6995H110.567V30.7692H112.421V50.3093H110.567V51.379H117.913V50.3093H116.059V40.7532H120.909V50.3093H119.054V51.379H126.401V50.3093H124.546V30.7692H126.401L126.329 36.7596H126.971C127.542 32.766 128.683 30.7692 130.395 30.7692H130.751V50.3093H128.54V51.379H136.6V50.3093H134.389V30.7692H134.674Z" fill="white"/>
<path d="M87.7433 54.0175L87.9573 61.0776H86.8875C86.3169 58.7242 85.675 57.084 84.9617 56.1569C84.2485 55.2298 83.3926 54.8019 82.3228 54.8019C81.4669 54.8019 80.7536 55.2298 80.1831 56.0143C79.6125 56.7987 79.3272 57.7258 79.3272 58.7955C79.3272 60.0792 79.6125 61.0063 80.1831 61.5055C80.7536 62.0047 81.8235 62.4326 83.25 62.9318C85.461 63.6449 86.9588 64.7146 87.7433 66.0696C88.5279 67.4959 88.8845 69.2074 88.8845 71.4182C88.8845 73.9142 88.3853 76.1249 87.3867 77.9791C86.3882 79.8333 84.9617 80.7604 83.1786 80.7604C81.8948 80.7604 80.7536 80.1899 79.6838 78.9775C79.1845 79.548 78.7566 80.1185 78.3286 80.6891H77.4014V72.9158H78.4713C79.2558 77.266 80.825 79.4054 83.036 79.4054C84.2485 79.4054 85.1757 78.9062 85.8176 77.8365C86.4595 76.7668 86.8161 75.6257 86.8161 74.3421C86.8161 73.6289 86.6735 72.9871 86.3882 72.4166C86.1029 71.8461 85.7463 71.3469 85.3897 71.0616C85.0331 70.705 83.9632 70.2772 82.2514 69.778C80.5397 69.2788 79.3272 68.2804 78.4713 66.9254C77.6867 65.4991 77.2588 63.7876 77.2588 61.6481C77.2588 59.3661 77.7581 57.5119 78.6853 55.943C79.6838 54.3741 80.8963 53.5896 82.3228 53.5896C83.3926 53.5896 84.5338 54.1601 85.6036 55.3011C85.9603 55.0159 86.3169 54.588 86.7448 54.0888H87.7433V54.0175Z" fill="white"/>
<path d="M137.242 78.5497C136.814 78.5497 136.529 78.4071 136.386 78.0505C136.243 77.6939 136.172 76.7668 136.101 75.2692C136.101 73.7716 135.958 72.488 135.815 71.4183C135.601 70.3485 135.173 69.3501 134.46 68.4944C133.747 67.6386 132.677 66.9255 131.179 66.3549V66.2836C133.105 65.9271 134.603 65.2139 135.53 64.0729C136.529 62.9319 136.957 61.5769 136.957 60.008C136.957 58.5104 136.457 57.1554 135.387 55.8004C134.318 54.5168 132.321 53.8749 129.468 53.8749H120.409V55.1586H122.692V78.9776H119.696L113.063 53.3757H112.279L105.931 76.0537C105.574 77.266 105.289 78.1218 105.075 78.4071C104.861 78.7636 104.362 78.9063 103.648 78.9063H100.154V55.2299H100.582C102.65 55.2299 104.076 57.6546 104.718 62.5753H105.574L105.432 53.9462H90.5963L90.4536 62.5753H91.3095C91.9514 57.6546 93.3779 55.2299 95.4463 55.2299H95.8742V79.0489H93.1639V80.3326H109.069V79.0489H108.071C107.143 79.0489 106.715 78.6923 106.715 77.9792C106.715 77.48 106.858 76.6955 107.143 75.6258L107.928 72.9159H113.634L115.203 79.0489H112.778V80.3326H129.468V79.0489H127.114V66.8541H128.112C129.254 66.8541 130.038 67.282 130.395 68.0665C130.823 68.8509 131.037 70.6338 131.108 73.3437C131.179 76.0537 131.607 77.9079 132.463 78.9063C133.319 79.9047 134.46 80.4752 135.815 80.4752C136.885 80.4752 137.884 80.1186 138.74 79.4768V77.9792C138.24 78.3358 137.67 78.5497 137.242 78.5497ZM108.284 71.5609L110.852 62.4327L113.206 71.5609H108.284ZM128.826 65.5705H127.114V55.2299H129.111C130.181 55.2299 130.894 55.5152 131.322 56.0857C131.75 56.6562 131.964 58.0825 131.964 60.2219C131.964 62.504 131.75 63.9303 131.251 64.5721C130.823 65.2139 130.038 65.5705 128.826 65.5705Z" fill="white"/>
<path d="M82.6792 87.8204H87.1013C87.1013 88.3909 87.03 88.9615 86.8873 89.532C86.7447 90.1025 86.4594 90.6017 86.1028 91.1009C85.7462 91.6001 85.2469 91.9566 84.6763 92.2419C84.1057 92.5272 83.3212 92.6698 82.5366 92.6698C81.4667 92.6698 80.6109 92.4559 79.8263 92.028C79.0417 91.6001 78.4712 90.9583 78.1145 90.2451C77.7579 89.4607 77.5439 88.6762 77.5439 87.7491C77.5439 86.822 77.7579 85.9662 78.1145 85.1818C78.4712 84.3973 79.0417 83.8268 79.755 83.3276C80.4682 82.8997 81.3241 82.6858 82.3226 82.6858C83.1785 82.6858 83.9631 82.8997 84.7476 83.2563C85.4609 83.6129 86.1028 84.1834 86.602 84.8965L85.8888 85.3957C85.0329 84.1121 83.8204 83.4702 82.3939 83.4702C81.8234 83.4702 81.2528 83.6129 80.7535 83.8268C80.2542 84.0408 79.8976 84.3973 79.541 84.8252C79.2557 85.2531 78.9704 85.681 78.8278 86.1802C78.6851 86.6794 78.6138 87.2499 78.6138 87.7491C78.6138 88.3909 78.6851 89.0328 78.8991 89.532C79.1131 90.0312 79.3984 90.5304 79.755 90.8869C80.1116 91.2435 80.5395 91.5288 81.0388 91.7427C81.5381 91.9567 82.0373 92.028 82.6079 92.028C83.3212 92.028 83.8917 91.8853 84.4623 91.6001C85.0329 91.3148 85.4609 90.8869 85.7462 90.3877C86.0314 89.8885 86.2454 89.318 86.2454 88.6762H82.8219V87.8204H82.6792Z" fill="white"/>
<path d="M93.1636 92.4562V82.9714H95.7312C96.3731 82.9714 97.015 83.1854 97.5856 83.542C98.1562 83.8985 98.4415 84.6117 98.4415 85.5388C98.4415 85.9666 98.3702 86.3232 98.1562 86.6798C98.0136 87.0364 97.657 87.3929 97.229 87.6069C96.8011 87.8921 96.1592 88.0348 95.3746 88.1061L98.7268 92.5276H97.657L94.3761 88.1774H94.0195V92.5276H93.1636V92.4562ZM94.0908 87.3216H95.018C96.6584 87.3216 97.443 86.7511 97.443 85.5388C97.443 84.8256 97.229 84.3264 96.8011 84.1125C96.3731 83.8985 95.8739 83.7559 95.232 83.7559H94.0908V87.3216V87.3216Z" fill="white"/>
<path d="M103.862 87.6778C103.862 87.036 104.005 86.3228 104.219 85.7523C104.433 85.1105 104.79 84.6113 105.289 84.1121C105.717 83.6129 106.287 83.2563 106.929 83.0424C107.571 82.7571 108.284 82.6858 109.069 82.6858C109.853 82.6858 110.567 82.8284 111.137 83.0424C111.779 83.3276 112.35 83.6842 112.778 84.1121C113.206 84.6113 113.562 85.1105 113.848 85.7523C114.062 86.3941 114.204 87.036 114.204 87.6778C114.204 88.3196 114.062 89.0328 113.848 89.6033C113.634 90.2451 113.277 90.7443 112.778 91.2435C112.35 91.7427 111.779 92.0993 111.137 92.3132C110.495 92.5985 109.782 92.7411 109.069 92.7411C108.284 92.7411 107.571 92.5985 106.929 92.3132C106.287 92.028 105.717 91.6714 105.289 91.2435C104.861 90.7443 104.504 90.2451 104.219 89.6033C104.005 89.0328 103.862 88.3909 103.862 87.6778ZM104.861 87.6778C104.861 88.2483 104.932 88.7475 105.146 89.318C105.36 89.8172 105.645 90.3164 106.002 90.673C106.359 91.1009 106.787 91.3861 107.357 91.6001C107.856 91.814 108.427 91.9567 109.069 91.9567C109.711 91.9567 110.281 91.814 110.781 91.6001C111.28 91.3861 111.708 91.0296 112.136 90.673C112.492 90.2451 112.778 89.8172 112.992 89.318C113.206 88.8188 113.277 88.2483 113.277 87.6778C113.277 87.1073 113.206 86.5368 112.992 86.0376C112.778 85.5384 112.492 85.0392 112.136 84.6826C111.779 84.2547 111.351 83.9694 110.781 83.7555C110.281 83.5416 109.711 83.3989 109.069 83.3989C108.427 83.3989 107.856 83.5416 107.357 83.7555C106.858 83.9694 106.43 84.326 106.002 84.6826C105.645 85.1105 105.36 85.5384 105.146 86.0376C104.932 86.6081 104.861 87.1073 104.861 87.6778Z" fill="white"/>
<path d="M120.125 82.9714H121.052V89.1045C121.052 89.7463 121.194 90.3168 121.408 90.7447C121.622 91.1726 121.908 91.5292 122.336 91.7431C122.692 91.957 123.12 92.0284 123.548 92.0284C123.976 92.0284 124.404 91.957 124.761 91.7431C125.117 91.5292 125.402 91.2439 125.688 90.816C125.973 90.3881 126.044 89.8176 126.044 89.1758V83.0428H126.972V89.0332C126.972 90.5308 126.615 91.5292 125.902 92.0284C125.188 92.5276 124.404 92.8128 123.548 92.8128C123.049 92.8128 122.55 92.7415 122.05 92.5276C121.551 92.3136 121.123 91.957 120.766 91.3865C120.41 90.816 120.196 90.0316 120.196 88.9618V82.9714H120.125Z" fill="white"/>
<path d="M133.248 92.4562V82.9714H135.887C136.6 82.9714 137.242 83.1141 137.884 83.4706C138.455 83.8272 138.811 84.469 138.811 85.4674C138.811 86.5372 138.526 87.179 137.884 87.5356C137.313 87.8921 136.6 88.0348 135.887 88.0348H134.175V92.5276H133.248V92.4562ZM134.175 83.6846V87.179H135.887C137.171 87.179 137.813 86.6085 137.813 85.3961C137.813 84.683 137.599 84.1838 137.171 83.9698C136.743 83.7559 136.315 83.6133 135.816 83.6133H134.175V83.6846Z" fill="white"/>
<path d="M118.412 97.947H97.7285V100.586H118.412V97.947Z" fill="white"/>
<path d="M138.74 97.947H118.27V100.586H138.74V97.947Z" fill="white"/>
<path d="M97.8717 97.947H77.4019V100.586H97.8717V97.947Z" fill="white"/>
<path d="M138.954 100.8H77.188V97.7332H138.954V100.8ZM77.5446 100.372H138.526V98.0897H77.5446V100.372Z" fill="white"/>
</svg>
