<svg width="215" height="130" viewBox="0 0 215 130" fill="none" xmlns="http://www.w3.org/2000/svg">
<rect width="215" height="130" fill="black"/>
<path d="M100.257 65.9398C102.886 65.9398 104.577 64.3425 104.577 61.9935C104.577 59.4567 102.886 58.0473 100.351 58.0473H97.1583V65.9398H100.257ZM95.2803 56.2621H100.445C104.107 56.2621 106.455 58.3292 106.455 61.8056V61.8996C106.455 65.5639 103.732 67.631 100.257 67.631H97.1583V73.8322H95.3742L95.2803 56.2621Z" fill="white"/>
<path d="M114.343 65.2821C117.066 65.2821 118.662 63.8727 118.662 61.6177V61.5237C118.662 59.2687 117.066 57.9533 114.531 57.9533H110.681V65.1881L114.343 65.2821ZM108.896 56.2621H114.718C116.69 56.2621 118.193 56.8258 119.226 57.8594C120.071 58.705 120.54 60.0204 120.54 61.4298V61.5237C120.54 64.3425 118.85 65.9398 116.503 66.5975L121.104 73.7383H118.944L114.625 66.9733H110.775V73.7383H108.99L108.896 56.2621Z" fill="white"/>
<path d="M142.983 56.2621V73.7383H152.749V72.047H144.861V56.2621H142.983Z" fill="white"/>
<path d="M156.974 56.2621H155.19V73.7383H156.974V56.2621Z" fill="white"/>
<path d="M187.774 56.2621V64.0606H179.605V56.2621H177.727V73.7383H179.605V65.8458H187.774V73.7383H189.652V56.2621H187.774Z" fill="white"/>
<path d="M192.188 56.2621V58.0473H196.977V73.7383H198.761V58.0473H203.55V56.2621H192.188Z" fill="white"/>
<path d="M131.339 72.3287C127.489 72.3287 124.296 69.0401 124.296 64.9999C124.296 60.9598 127.489 57.6712 131.339 57.6712C135.189 57.6712 138.382 60.9598 138.382 64.9999C138.382 69.0401 135.189 72.3287 131.339 72.3287ZM131.339 55.98C126.55 55.98 122.606 60.0202 122.606 64.9999C122.606 69.9797 126.456 74.0199 131.339 74.0199C136.128 74.0199 140.072 69.9797 140.072 64.9999C140.072 60.0202 136.128 55.98 131.339 55.98Z" fill="white"/>
<path d="M173.783 70.1676C172.468 71.4831 170.778 72.3287 168.806 72.3287C164.956 72.3287 161.763 69.0401 161.763 64.9999C161.763 60.9598 164.956 57.6712 168.806 57.6712C170.684 57.6712 172.28 58.4229 173.595 59.5504L174.628 58.235C173.125 56.8256 171.059 55.98 168.806 55.98C164.017 55.98 160.073 60.0202 160.073 64.9999C160.073 69.9797 163.923 74.0199 168.806 74.0199C171.153 74.0199 173.313 73.0803 174.816 71.483L173.783 70.1676Z" fill="white"/>
<path d="M40.348 71.5772C39.1272 72.7047 38.8455 72.7047 38.4699 72.7047H13.0222C12.6466 72.7047 12.6466 72.141 12.8344 71.8591C13.1161 71.2954 20.0649 58.8929 20.3466 58.3292C20.5344 57.9533 21.1918 57.4835 21.7552 57.4835H43.165C44.5736 57.4835 45.137 58.611 45.3248 59.2687C45.5126 59.9264 46.3577 62.9331 46.3577 62.9331L47.3907 61.8996C47.3907 61.8996 46.8273 60.1144 46.4516 58.799C46.1699 57.7654 45.2309 56.2621 43.4468 56.2621H22.6942C20.0649 56.2621 19.5015 57.3896 18.8442 58.5171C17.6235 60.7721 12.9283 69.2283 11.7076 71.5772C11.0503 72.7047 11.7076 73.8322 13.0222 73.8322C15.8393 73.8322 37.9065 73.8322 37.9065 73.8322C39.5967 73.8322 39.6906 73.8322 41.9443 71.5772C43.0711 70.4497 45.137 68.4766 47.2029 66.4096L48.6114 71.4833C49.3626 73.7383 52.4614 73.7383 52.837 73.7383H73.0262C75.6555 73.7383 76.8762 71.4833 76.8762 71.4833C80.2567 65.7518 80.8201 64.3425 84.1067 58.5171C85.3274 56.2621 83.9189 56.2621 82.7921 56.2621H57.8139C56.1237 56.2621 55.6541 56.8258 55.1846 57.2017C44.6675 67.3491 44.7614 67.3491 40.348 71.5772Z" fill="white"/>
</svg>
