<svg width="215" height="130" viewBox="0 0 215 130" fill="none" xmlns="http://www.w3.org/2000/svg">
<rect width="215" height="130" fill="black"/>
<path d="M104.931 37.2432C97.1863 37.2432 90.8646 43.5697 90.8646 51.3204C90.8646 59.0711 97.1863 65.3985 104.931 65.3985C112.675 65.3985 118.998 59.0711 118.998 51.3204C118.998 43.5697 112.675 37.2432 104.931 37.2432ZM104.931 62.5501C98.767 62.5501 93.7091 57.4884 93.7091 51.3195C93.7091 45.1507 98.767 40.1682 104.931 40.1682C111.095 40.1682 116.074 45.1507 116.074 51.3195C116.074 57.4893 111.095 62.5501 104.931 62.5501H104.931V62.5501ZM139.149 52.0321C142.547 51.6357 146.104 49.2639 146.104 44.6769C146.104 42.4626 145.313 40.643 143.891 39.2197C142.389 37.7171 140.256 36.9262 137.805 37.0054H125.319C124.53 37.0054 123.897 37.6378 123.897 38.4287V63.8951C123.897 64.8436 124.608 65.3193 125.319 65.3193C126.031 65.3193 126.743 64.8445 126.743 63.8951V52.1114H135.673C135.831 52.2699 144.366 64.686 144.366 64.686C144.919 65.4778 145.789 65.4778 146.341 65.0814C146.737 64.7653 147.054 64.3698 147.054 63.8951C147.054 63.5798 146.896 63.3419 146.738 63.0249C146.737 63.0249 140.335 53.6932 139.149 52.0321ZM143.181 44.6769C143.181 47.8406 140.81 48.8693 138.833 49.1053L137.964 49.1846H136.62H136.305H126.743V39.852H137.885C139.465 39.852 140.887 40.3268 141.836 41.2753C142.707 42.1464 143.181 43.3328 143.181 44.6769ZM175.583 37.4009C174.87 37.4009 174.159 37.8756 174.159 38.8251V59.8621C173.447 59.0711 154.719 37.6387 154.719 37.6387C154.245 37.0856 153.612 36.927 153.059 37.0856C152.506 37.3225 152.19 37.8765 152.19 38.5882V63.8959C152.19 64.8445 152.901 65.3201 153.612 65.3201C154.323 65.3201 155.034 64.8454 155.034 63.8959V42.4635C155.745 43.2544 174.475 64.6085 174.475 64.6085C174.95 65.1616 175.583 65.3994 176.135 65.1616C176.688 65.0031 177.005 64.3707 177.005 63.659V38.8242C177.005 37.8756 176.294 37.4009 175.583 37.4009ZM84.3845 37.1631C83.6733 37.1631 82.9613 37.6378 82.9613 38.5873V49.1846H64.3104V38.5873C64.3104 37.6378 63.5992 37.1631 62.8881 37.1631C62.177 37.1631 61.4659 37.6378 61.4659 38.5873V63.8951C61.4659 64.8436 62.177 65.3193 62.8881 65.3193C63.5992 65.3193 64.3104 64.8445 64.3104 63.8951V52.033H82.9613V63.8951C82.9613 64.8436 83.6725 65.3193 84.3845 65.3193C85.0956 65.3193 85.8067 64.8445 85.8067 63.8951V38.5873C85.8067 37.6378 85.0956 37.1631 84.3845 37.1631ZM56.5664 37.1631H33.3319C32.384 37.1631 31.9097 37.8747 31.9097 38.5873C31.9097 39.2998 32.3832 40.0106 33.3319 40.0106H43.2893V63.8951C43.2893 64.8436 44.0796 65.3193 44.7907 65.3193C45.4226 65.3193 46.213 64.8445 46.213 63.8951V40.0106H56.5655C57.5134 40.0106 57.9878 39.2998 57.9878 38.5873C57.9878 37.8747 57.5152 37.1631 56.5664 37.1631H56.5664Z" fill="white"/>
<path d="M32.8587 79.7119H31.7524V89.5976H35.5457V88.5697H32.8587V79.7119ZM37.9166 83.4287H36.8103V89.5976H37.9166V83.4287ZM37.363 80.3443C36.9679 80.3443 36.6519 80.7397 36.6519 81.1352C36.6519 81.5307 36.9679 81.8469 37.363 81.8469C37.7582 81.8469 38.0742 81.5316 38.0742 81.1352C38.0756 80.7437 37.7597 80.425 37.3684 80.4236C37.3666 80.4235 37.3648 80.4235 37.363 80.4236V80.3443ZM42.5794 84.2196C43.8441 84.2196 44.6344 85.2475 44.6344 86.4339C44.6344 87.6995 43.9233 88.8066 42.5794 88.8066C41.2355 88.8066 40.5243 87.6203 40.5243 86.4339C40.5243 85.3268 41.3147 84.2196 42.5794 84.2196ZM45.5823 83.4287H44.5543V84.2989C44.0007 83.6665 43.2905 83.2711 42.421 83.2711C40.6036 83.2711 39.4973 84.852 39.4973 86.514C39.4973 88.2535 40.6036 89.757 42.421 89.757C43.2113 89.757 44.0016 89.3615 44.5543 88.7291V89.4408C44.5543 90.865 44.2383 92.0514 42.5785 92.0514C41.4722 92.0514 40.6819 91.3388 40.6027 90.1534H39.5765C39.6548 91.8929 40.9195 93 42.5794 93C43.5281 93 44.3968 92.6838 44.9504 91.8928C45.5831 91.101 45.5831 90.2317 45.5831 89.2823V83.4287H45.5823V83.4287ZM47.6373 78.8417V89.5976H48.6644V86.6708C48.6644 85.5646 48.7436 84.2196 50.245 84.2196C51.4305 84.2196 51.5097 85.0898 51.5097 86.1177V89.5976H52.5368V85.9591C52.5368 84.5358 52.1416 83.2702 50.4817 83.2702C49.6914 83.2702 49.1378 83.5864 48.7436 84.2187L48.6644 84.1395V78.8408H47.6373V78.8417L47.6373 78.8417ZM55.618 84.3782H56.7251V83.4287H55.618V81.2145H54.5909V83.4287H53.959V84.3782H54.5909V89.5976H55.618V84.3782ZM58.9377 83.4287H57.8314V89.5976H58.9377V83.4287ZM58.3841 80.3443C57.9889 80.3443 57.673 80.7397 57.673 81.1352C57.673 81.5307 57.9889 81.8469 58.3841 81.8469C58.7793 81.8469 59.0952 81.5316 59.0952 81.1352C59.0967 80.7437 58.7807 80.425 58.3895 80.4236C58.3877 80.4235 58.3859 80.4235 58.3841 80.4236V80.3443ZM62.099 83.4287H61.0719V89.5976H62.099V86.6708C62.099 85.5646 62.2565 84.2196 63.6797 84.2196C64.8651 84.2196 64.9435 85.0898 64.9435 86.1177V89.5976H65.9714V85.9591C65.9714 84.5358 65.5763 83.2702 63.9164 83.2702C63.1261 83.2702 62.5725 83.5864 62.1773 84.2187H62.0981V83.4287H62.099H62.099V83.4287ZM70.4766 84.2196C71.7404 84.2196 72.5308 85.2475 72.5308 86.4339C72.5308 87.6995 71.8197 88.8066 70.4766 88.8066C69.211 88.8066 68.4999 87.6203 68.4999 86.4339C68.4999 85.3268 69.2903 84.2196 70.4766 84.2196ZM73.5578 83.4287H72.4516V84.2989C71.9611 83.6581 71.2031 83.279 70.3965 83.2711C68.5791 83.2711 67.3936 84.852 67.3936 86.514C67.3936 88.2535 68.4999 89.757 70.3173 89.757C71.1076 89.757 71.9772 89.3615 72.4507 88.7291V89.4408C72.4507 90.865 72.1347 92.0514 70.4757 92.0514C69.3686 92.0514 68.5782 91.3388 68.5782 90.1534H67.4711C67.5503 91.8929 68.815 93 70.5532 93C71.4227 93 72.2922 92.6838 72.9241 91.8928C73.5561 91.101 73.5561 90.2317 73.5561 89.2823V83.4287H73.5578H73.5578V83.4287ZM82.4882 84.2196C83.8312 84.2196 84.5432 85.2475 84.5432 86.4339C84.5432 87.6995 83.9113 88.8066 82.5674 88.8066C81.2244 88.8066 80.5124 87.6203 80.5124 86.4339C80.5124 85.3268 81.3027 84.2196 82.4882 84.2196ZM80.5916 83.4287H79.5636V92.9982H80.5916V88.7274C81.0659 89.3598 81.8554 89.7552 82.7249 89.7552C84.5423 89.7552 85.6486 88.2517 85.6486 86.5122C85.6486 84.8511 84.5423 83.2693 82.7249 83.2693C81.8554 83.2693 81.1452 83.6647 80.5916 84.2971V83.4287V83.4287ZM92.4456 86.751C92.5239 84.9313 91.4968 83.2711 89.521 83.2711C87.6244 83.2711 86.5973 84.7736 86.5973 86.5924C86.5973 88.3319 87.7036 89.7561 89.6002 89.7561C90.7857 89.7561 91.8128 89.1228 92.3663 88.0157L91.4968 87.5419C91.1025 88.2535 90.549 88.8075 89.6794 88.8075C88.5523 88.8154 87.6323 87.9075 87.6244 86.7796C87.6243 86.77 87.6243 86.7605 87.6244 86.751H92.4456V86.751ZM87.7036 85.8799C87.7819 84.9313 88.6515 84.2196 89.521 84.2196C90.4689 84.2196 91.18 84.9313 91.3384 85.8799H87.7036ZM96.5547 89.7561C98.373 89.7561 99.7952 88.3319 99.7952 86.5131C99.7952 84.6944 98.373 83.2702 96.5547 83.2702C94.7373 83.2702 93.3151 84.6944 93.3151 86.5131C93.3151 88.3319 94.7373 89.7561 96.5547 89.7561ZM96.5547 84.2196C97.8194 84.2196 98.7673 85.2475 98.7673 86.5131C98.7673 87.7788 97.8194 88.8066 96.5547 88.8066C95.2909 88.8066 94.4214 87.7788 94.4214 86.5131C94.4214 85.2475 95.29 84.2196 96.5547 84.2196ZM104.141 84.2196C105.485 84.2196 106.196 85.2475 106.196 86.4339C106.196 87.6995 105.485 88.8066 104.141 88.8066C102.877 88.8066 102.165 87.6203 102.165 86.4339C102.165 85.3268 102.956 84.2196 104.141 84.2196ZM102.245 83.4287H101.138V92.9982H102.245V88.7274C102.719 89.3598 103.509 89.7552 104.378 89.7552C106.195 89.7552 107.302 88.2517 107.302 86.5122C107.302 84.8511 106.195 83.2693 104.378 83.2693C103.508 83.2693 102.718 83.6647 102.245 84.2971V83.4287L102.245 83.4287ZM109.752 78.8417H108.725V89.5976H109.752V78.8417ZM117.023 86.751C117.182 84.9313 116.154 83.2711 114.178 83.2711C112.203 83.2711 111.176 84.7736 111.176 86.5924C111.176 88.3319 112.359 89.7561 114.178 89.7561C115.443 89.7561 116.39 89.1228 117.023 88.0157L116.154 87.5419C115.679 88.2535 115.127 88.8075 114.257 88.8075C113.071 88.8075 112.28 87.859 112.28 86.751H117.023L117.023 86.751ZM112.281 85.8799C112.44 84.9313 113.23 84.2196 114.178 84.2196C115.047 84.2196 115.838 84.9313 115.996 85.8799H112.281ZM125.084 84.2196C126.348 84.2196 127.139 85.2475 127.139 86.4339C127.139 87.6995 126.428 88.8066 125.084 88.8066C123.74 88.8066 123.029 87.6203 123.029 86.4339C123.029 85.3268 123.82 84.2196 125.084 84.2196ZM128.086 83.4287H127.059V84.2989C126.506 83.6665 125.795 83.2711 124.926 83.2711C123.108 83.2711 122.003 84.7736 122.003 86.514C122.003 88.2535 123.108 89.757 124.926 89.757C125.796 89.757 126.506 89.4408 127.059 88.7291V89.5993H128.086V83.4287V83.4287ZM131.09 83.4287H130.063V89.5976H131.09V86.6708C131.09 85.5646 131.17 84.2196 132.592 84.2196C133.856 84.2196 133.936 85.0898 133.936 86.1177V89.5976H134.963V85.9591C134.963 84.5358 134.569 83.2702 132.908 83.2702C132.117 83.2702 131.564 83.5864 131.09 84.2187V83.4287V83.4287ZM139.466 84.2196C140.81 84.2196 141.521 85.2475 141.521 86.4339C141.521 87.6995 140.889 88.8066 139.466 88.8066C138.203 88.8066 137.491 87.6203 137.491 86.4339C137.491 85.3268 138.281 84.2196 139.466 84.2196ZM141.521 89.5976H142.549V78.8417H141.521V84.2989H141.443C140.952 83.6584 140.195 83.2794 139.388 83.2711C137.57 83.2711 136.384 84.7736 136.384 86.514C136.384 88.2535 137.57 89.757 139.388 89.757C140.194 89.7484 140.952 89.3694 141.443 88.7291H141.521V89.5976V89.5976ZM151.4 84.2196C152.744 84.2196 153.532 85.2475 153.532 86.4339C153.532 87.6995 152.821 88.8066 151.477 88.8066C150.135 88.8066 149.422 87.6203 149.422 86.4339C149.423 85.3268 150.214 84.2196 151.4 84.2196H151.4ZM149.503 83.4287H148.476V92.9982H149.503V88.7274C149.977 89.3598 150.767 89.7552 151.635 89.7552C153.454 89.7552 154.561 88.2517 154.561 86.5122C154.561 84.8511 153.454 83.2693 151.635 83.2693C150.766 83.2693 150.056 83.6647 149.503 84.2971V83.4287V83.4287ZM157.089 78.8417H155.984V89.5976H157.089V78.8417ZM161.515 84.2196C162.858 84.2196 163.57 85.2475 163.57 86.4339C163.57 87.6995 162.939 88.8066 161.595 88.8066C160.251 88.8066 159.54 87.6203 159.54 86.4339C159.541 85.3268 160.329 84.2196 161.515 84.2196ZM164.597 83.4287H163.57V84.2989H163.491C163 83.6584 162.243 83.2794 161.436 83.2711C159.618 83.2711 158.513 84.7736 158.513 86.514C158.513 88.2535 159.618 89.757 161.436 89.757C162.306 89.757 163.016 89.4408 163.491 88.7291H163.57V89.5993H164.597V83.4287V83.4287ZM171.077 83.9034C170.524 83.5089 169.891 83.2711 169.18 83.2711C167.362 83.2711 165.94 84.6953 165.94 86.514C165.94 88.3328 167.362 89.757 169.18 89.757C169.891 89.757 170.524 89.5192 171.157 89.1237V87.7004H171.077C170.602 88.4121 169.971 88.8075 169.102 88.8075C167.836 88.8075 166.968 87.7004 166.968 86.514C166.968 85.2484 167.916 84.2205 169.18 84.2205C169.971 84.2205 170.602 84.6953 171.077 85.2484V83.9034V83.9034ZM178.11 86.751C178.191 84.9313 177.164 83.2711 175.187 83.2711C173.29 83.2711 172.185 84.7736 172.185 86.5924C172.185 88.3319 173.37 89.7561 175.187 89.7561C176.452 89.7561 177.479 89.1228 178.032 88.0157L177.163 87.5419C176.767 88.2535 176.136 88.8075 175.266 88.8075C174.081 88.8075 173.289 87.859 173.289 86.751H178.11V86.751V86.751ZM173.29 85.8799C173.449 84.9313 174.317 84.2196 175.187 84.2196C176.136 84.2196 176.847 84.9313 177.005 85.8799H173.29ZM182.852 84.3782C182.616 83.7458 181.983 83.2711 181.273 83.2711C180.246 83.2711 179.454 83.9827 179.454 85.0106C179.454 86.9095 182.22 86.4348 182.22 87.8581C182.22 88.4112 181.747 88.8066 181.193 88.8066C180.481 88.8066 180.166 88.4112 179.929 87.7788L178.98 88.1734C179.376 89.2012 180.166 89.7552 181.193 89.7552C182.3 89.7552 183.248 88.8841 183.248 87.7779C183.248 86.7501 182.537 86.2744 181.825 85.9583C181.114 85.7204 180.403 85.4844 180.403 84.9304C180.403 84.5358 180.797 84.2188 181.193 84.2188C181.509 84.2188 181.825 84.5349 181.984 84.8511L182.852 84.3782V84.3782V84.3782Z" fill="white"/>
</svg>
