<svg width="215" height="130" viewBox="0 0 215 130" fill="none" xmlns="http://www.w3.org/2000/svg">
<rect width="215" height="130" fill="black"/>
<path d="M33.9586 52.4138H29.6247V57.1433H27V60.0421H29.6247V69.3486C29.6247 70.142 29.7571 70.7827 30.0215 71.2709C30.286 71.7591 30.6472 72.1355 31.105 72.3999C31.5628 72.6644 32.0918 72.8424 32.6921 72.9339C33.2923 73.0255 33.9281 73.0712 34.5996 73.0712C35.0268 73.0712 35.4643 73.061 35.9119 73.0407C36.3596 73.0204 36.7665 72.9797 37.1327 72.9186V69.5622C36.9293 69.6029 36.7157 69.6334 36.4919 69.6538C36.268 69.6741 36.034 69.6842 35.7899 69.6842C35.0573 69.6842 34.5691 69.5622 34.3249 69.3181C34.0807 69.074 33.9586 68.5858 33.9586 67.8535V60.0421H37.1327V57.1433H33.9586V52.4138Z" fill="white"/>
<path d="M52.8201 58.9887C52.108 58.2665 51.2483 57.7071 50.2411 57.3104C49.2339 56.9138 48.1098 56.7155 46.8687 56.7155C45.6275 56.7155 44.5084 56.9138 43.5114 57.3104C42.5144 57.7071 41.6598 58.2665 40.9476 58.9887C40.2356 59.7108 39.6862 60.5855 39.2996 61.6128C38.913 62.6401 38.7197 63.7843 38.7197 65.0456C38.7197 66.3067 38.913 67.4459 39.2996 68.463C39.6862 69.4801 40.2356 70.3497 40.9476 71.0719C41.6598 71.794 42.5144 72.3484 43.5114 72.7348C44.5084 73.1214 45.6275 73.3146 46.8687 73.3146C48.1098 73.3146 49.2339 73.1214 50.2411 72.7348C51.2483 72.3484 52.108 71.794 52.8201 71.0719C53.5323 70.3497 54.0816 69.4801 54.4682 68.463C54.8548 67.4459 55.0481 66.3067 55.0481 65.0456C55.0481 63.7843 54.8548 62.6401 54.4682 61.6128C54.0816 60.5855 53.5323 59.7108 52.8201 58.9887ZM50.5311 66.8916C50.409 67.4917 50.2004 68.0307 49.9054 68.5088C49.6104 68.9868 49.2136 69.3682 48.7151 69.653C48.2166 69.9378 47.6012 70.0802 46.8687 70.0802C46.1361 70.0802 45.5258 69.9378 45.0374 69.653C44.5491 69.3682 44.1574 68.9868 43.8624 68.5088C43.5673 68.0307 43.3588 67.4917 43.2368 66.8916C43.1146 66.2915 43.0536 65.6761 43.0536 65.0456C43.0536 64.4149 43.1146 63.7945 43.2368 63.1842C43.3588 62.574 43.5673 62.0349 43.8624 61.567C44.1574 61.0992 44.5491 60.7177 45.0374 60.4228C45.5258 60.1278 46.1361 59.9804 46.8687 59.9804C47.6012 59.9804 48.2166 60.1278 48.7151 60.4228C49.2136 60.7177 49.6104 61.0992 49.9054 61.567C50.2004 62.0349 50.409 62.574 50.5311 63.1842C50.6532 63.7945 50.7142 64.4149 50.7142 65.0456C50.7142 65.6761 50.6532 66.2915 50.5311 66.8916Z" fill="white"/>
<path d="M71.6669 58.6993C71.0463 58.028 70.3495 57.5296 69.5763 57.2042C68.8031 56.8787 68.0198 56.716 67.2262 56.716C66.2495 56.716 65.3085 56.9041 64.4031 57.2805C63.4976 57.6568 62.7804 58.2518 62.2514 59.0655H62.1903V51.132H57.8564V72.9184H61.9767V70.9046H62.0377C62.5057 71.7793 63.1975 72.3997 64.1131 72.7659C65.0287 73.132 66.0664 73.3151 67.2262 73.3151C68.0198 73.3151 68.8031 73.1524 69.5763 72.8269C70.3495 72.5014 71.0463 72.0031 71.6669 71.3318C72.2875 70.6605 72.7911 69.801 73.1777 68.7534C73.5643 67.7058 73.7576 66.4598 73.7576 65.0155C73.7576 63.5713 73.5643 62.3253 73.1777 61.2776C72.7911 60.23 72.2875 59.3706 71.6669 58.6993ZM69.21 66.9379C69.0676 67.5481 68.8438 68.0872 68.5386 68.5551C68.2334 69.0229 67.8519 69.3942 67.3941 69.6688C66.9362 69.9434 66.3818 70.0807 65.7307 70.0807C65.0999 70.0807 64.5506 69.9434 64.0826 69.6688C63.6146 69.3942 63.228 69.0229 62.9228 68.5551C62.6176 68.0872 62.3938 67.5481 62.2514 66.9379C62.1089 66.3276 62.0377 65.697 62.0377 65.0461C62.0377 64.3747 62.1089 63.734 62.2514 63.1237C62.3938 62.5134 62.6176 61.9744 62.9228 61.5065C63.228 61.0387 63.6146 60.6674 64.0826 60.3928C64.5506 60.1182 65.0999 59.9809 65.7307 59.9809C66.3818 59.9809 66.9362 60.1182 67.3941 60.3928C67.8519 60.6674 68.2334 61.0387 68.5386 61.5065C68.8438 61.9744 69.0676 62.5134 69.21 63.1237C69.3525 63.734 69.4237 64.3747 69.4237 65.0461C69.4237 65.697 69.3525 66.3276 69.21 66.9379Z" fill="white"/>
<path d="M80.9599 51.132H76.626V54.7021H80.9599V51.132Z" fill="white"/>
<path d="M80.9599 57.1426H76.626V72.9179H80.9599V57.1426Z" fill="white"/>
<path d="M98.5395 69.4089V61.2009C98.5395 60.2448 98.3258 59.4769 97.8985 58.8971C97.4712 58.3174 96.9218 57.8648 96.2504 57.5393C95.5789 57.2138 94.8363 56.9952 94.0225 56.8833C93.2085 56.7714 92.4048 56.7155 91.6113 56.7155C90.7364 56.7155 89.8666 56.8019 89.0019 56.9748C88.1371 57.1477 87.3589 57.4376 86.667 57.8445C85.9752 58.2513 85.4055 58.7904 84.9579 59.4616C84.5102 60.1329 84.2559 60.9771 84.1949 61.9942H88.5288C88.6102 61.1399 88.895 60.5296 89.3833 60.1634C89.8717 59.7973 90.5431 59.6142 91.3976 59.6142C91.7842 59.6142 92.1454 59.6396 92.4812 59.6905C92.8169 59.7413 93.1119 59.843 93.3663 59.9956C93.6206 60.1481 93.824 60.3618 93.9766 60.6364C94.1292 60.911 94.2056 61.2822 94.2056 61.7501C94.2259 62.1976 94.0937 62.5384 93.8088 62.7723C93.5239 63.0063 93.1373 63.1842 92.649 63.3063C92.1607 63.4283 91.6012 63.5199 90.9704 63.5809C90.3396 63.6419 89.6987 63.7233 89.0476 63.825C88.3965 63.9267 87.7505 64.064 87.1096 64.2369C86.4686 64.4099 85.8989 64.6692 85.4004 65.015C84.9019 65.3608 84.495 65.8236 84.1796 66.4034C83.8642 66.9831 83.7065 67.7205 83.7065 68.6156C83.7065 69.4293 83.8439 70.1311 84.1185 70.721C84.3933 71.3109 84.7748 71.7991 85.2631 72.1856C85.7514 72.5721 86.3211 72.8569 86.9722 73.04C87.6233 73.2231 88.3253 73.3146 89.0781 73.3146C90.0548 73.3146 91.0111 73.1722 91.9471 72.8874C92.883 72.6026 93.6969 72.1043 94.3887 71.3922C94.409 71.6567 94.4447 71.9161 94.4955 72.1703C94.5464 72.4246 94.6125 72.6738 94.6938 72.9179H99.0888C98.8853 72.5924 98.7429 72.1043 98.6615 71.4533C98.5801 70.8023 98.5395 70.1209 98.5395 69.4089ZM94.2056 66.8153C94.2056 67.0594 94.1801 67.3849 94.1292 67.7917C94.0784 68.1985 93.941 68.6003 93.7172 68.997C93.4934 69.3937 93.1475 69.7344 92.6796 70.0192C92.2115 70.304 91.5503 70.4463 90.6957 70.4463C90.3498 70.4463 90.0141 70.4159 89.6886 70.3548C89.363 70.2938 89.0781 70.187 88.834 70.0344C88.5898 69.8819 88.3965 69.6734 88.2541 69.4089C88.1116 69.1444 88.0404 68.819 88.0404 68.4325C88.0404 68.0256 88.1116 67.69 88.2541 67.4256C88.3965 67.1611 88.5847 66.9425 88.8187 66.7695C89.0527 66.5966 89.3274 66.4593 89.6427 66.3576C89.9581 66.2559 90.2786 66.1745 90.6042 66.1135C90.9501 66.0525 91.2959 66.0016 91.6418 65.9609C91.9878 65.9203 92.3184 65.8694 92.6338 65.8084C92.9491 65.7473 93.2441 65.671 93.5189 65.5795C93.7935 65.488 94.0225 65.3608 94.2056 65.1981V66.8153V66.8153Z" fill="white"/>
<path d="M114.196 64.7556C113.728 64.42 113.194 64.1505 112.594 63.9471C111.994 63.7436 111.378 63.5707 110.748 63.4283C110.137 63.286 109.537 63.1537 108.947 63.0317C108.357 62.9096 107.833 62.7723 107.375 62.6197C106.917 62.4672 106.546 62.2688 106.261 62.0247C105.976 61.7806 105.834 61.4653 105.834 61.0788C105.834 60.7534 105.915 60.494 106.078 60.3007C106.241 60.1075 106.439 59.96 106.673 59.8583C106.907 59.7566 107.167 59.6905 107.451 59.66C107.736 59.6295 108.001 59.6142 108.245 59.6142C109.018 59.6142 109.69 59.7617 110.259 60.0566C110.829 60.3516 111.144 60.9161 111.206 61.7501H115.326C115.244 60.7737 114.995 59.9651 114.578 59.3243C114.161 58.6835 113.637 58.1699 113.006 57.7834C112.375 57.3969 111.658 57.1223 110.855 56.9595C110.051 56.7968 109.222 56.7155 108.367 56.7155C107.513 56.7155 106.678 56.7917 105.864 56.9443C105.051 57.0969 104.318 57.3613 103.667 57.7377C103.016 58.114 102.492 58.6276 102.095 59.2785C101.698 59.9295 101.5 60.7635 101.5 61.7806C101.5 62.4722 101.642 63.0571 101.927 63.5351C102.212 64.0132 102.589 64.4099 103.057 64.7251C103.525 65.0405 104.059 65.2947 104.659 65.488C105.259 65.6812 105.875 65.849 106.505 65.9914C108.052 66.3169 109.257 66.6424 110.122 66.9679C110.987 67.2934 111.419 67.7816 111.419 68.4325C111.419 68.819 111.328 69.1394 111.144 69.3937C110.961 69.648 110.732 69.8514 110.458 70.0039C110.183 70.1565 109.878 70.2683 109.542 70.3396C109.206 70.4108 108.886 70.4463 108.581 70.4463C108.153 70.4463 107.741 70.3955 107.345 70.2938C106.948 70.1921 106.597 70.0344 106.292 69.8208C105.987 69.6072 105.737 69.3326 105.544 68.997C105.351 68.6613 105.254 68.2596 105.254 67.7917H101.134C101.174 68.8495 101.413 69.7293 101.851 70.4311C102.288 71.1329 102.848 71.6974 103.53 72.1246C104.211 72.5518 104.989 72.8569 105.864 73.04C106.739 73.2231 107.635 73.3146 108.55 73.3146C109.445 73.3146 110.325 73.2282 111.19 73.0552C112.055 72.8823 112.823 72.5823 113.495 72.1551C114.166 71.7279 114.71 71.1634 115.127 70.4616C115.544 69.7598 115.753 68.8902 115.753 67.8528C115.753 67.1204 115.611 66.5051 115.326 66.0067C115.041 65.5083 114.664 65.0913 114.196 64.7556Z" fill="white"/>
<path d="M136.208 59.2481H136.147C135.618 58.3326 134.961 57.6817 134.178 57.2952C133.395 56.9087 132.484 56.7155 131.446 56.7155C130.348 56.7155 129.376 56.929 128.532 57.3562C127.687 57.7834 126.98 58.358 126.411 59.0802C125.841 59.8024 125.409 60.6364 125.113 61.5823C124.818 62.5282 124.671 63.5097 124.671 64.5268C124.671 65.605 124.798 66.6271 125.052 67.5934C125.307 68.5596 125.709 69.4038 126.258 70.126C126.807 70.8481 127.509 71.4177 128.364 71.8347C129.218 72.2517 130.236 72.4603 131.416 72.4603C132.372 72.4603 133.283 72.2619 134.148 71.8652C135.012 71.4685 135.679 70.8532 136.147 70.0192H136.208V72.0941C136.228 73.2129 135.958 74.1385 135.399 74.8707C134.839 75.6031 133.949 75.9692 132.728 75.9692C131.955 75.9692 131.274 75.8116 130.683 75.4963C130.093 75.181 129.697 74.6165 129.493 73.8028H125.19C125.251 74.6979 125.5 75.4658 125.937 76.1065C126.375 76.7473 126.924 77.2711 127.586 77.678C128.247 78.0848 128.979 78.3849 129.783 78.5781C130.587 78.7714 131.375 78.868 132.148 78.868C133.959 78.868 135.404 78.6239 136.482 78.1357C137.561 77.6475 138.385 77.0525 138.954 76.3506C139.524 75.6488 139.895 74.8911 140.068 74.0774C140.241 73.2637 140.328 72.5416 140.328 71.911V57.1426H136.208V59.2481V59.2481ZM135.979 66.4644C135.826 66.9831 135.597 67.4459 135.292 67.8528C134.987 68.2596 134.6 68.585 134.132 68.8292C133.664 69.0733 133.125 69.1953 132.515 69.1953C131.843 69.1953 131.284 69.0529 130.836 68.7681C130.388 68.4833 130.027 68.1172 129.753 67.6697C129.478 67.2222 129.285 66.7187 129.173 66.1593C129.061 65.5999 129.005 65.0354 129.005 64.4658C129.005 63.8759 129.071 63.3114 129.203 62.7723C129.335 62.2333 129.549 61.7552 129.844 61.3382C130.139 60.9212 130.505 60.5906 130.943 60.3465C131.38 60.1024 131.904 59.9804 132.515 59.9804C133.227 59.9804 133.817 60.1126 134.285 60.377C134.753 60.6415 135.129 60.9975 135.414 61.445C135.699 61.8925 135.902 62.4061 136.024 62.9859C136.147 63.5657 136.208 64.181 136.208 64.8319C136.208 65.4015 136.131 65.9457 135.979 66.4644Z" fill="white"/>
<path d="M151.437 56.9595C150.928 57.1223 150.45 57.3511 150.002 57.6461C149.555 57.9411 149.158 58.2971 148.812 58.7141C148.466 59.1311 148.191 59.5837 147.988 60.0719H147.927V57.1426H143.807V72.9179H148.141V65.8084C148.141 65.0964 148.212 64.4353 148.354 63.825C148.497 63.2147 148.736 62.6808 149.071 62.2231C149.407 61.7654 149.85 61.4043 150.399 61.1399C150.948 60.8754 151.62 60.7432 152.413 60.7432C152.678 60.7432 152.953 60.7584 153.237 60.7889C153.522 60.8195 153.766 60.8551 153.97 60.8957V56.868C153.624 56.7663 153.309 56.7155 153.024 56.7155C152.474 56.7155 151.945 56.7968 151.437 56.9595Z" fill="white"/>
<path d="M169.84 69.4089V61.2009C169.84 60.2448 169.627 59.4769 169.199 58.8971C168.772 58.3174 168.223 57.8648 167.551 57.5393C166.88 57.2138 166.137 56.9952 165.323 56.8833C164.509 56.7714 163.706 56.7155 162.912 56.7155C162.037 56.7155 161.167 56.8019 160.303 56.9748C159.438 57.1477 158.66 57.4376 157.968 57.8445C157.276 58.2513 156.706 58.7904 156.259 59.4616C155.811 60.1329 155.557 60.9771 155.496 61.9942H159.83C159.911 61.1399 160.196 60.5296 160.684 60.1634C161.172 59.7973 161.844 59.6142 162.698 59.6142C163.085 59.6142 163.446 59.6396 163.782 59.6905C164.118 59.7413 164.413 59.843 164.667 59.9956C164.921 60.1481 165.125 60.3618 165.277 60.6364C165.43 60.911 165.506 61.2822 165.506 61.7501C165.527 62.1976 165.394 62.5384 165.11 62.7723C164.825 63.0063 164.438 63.1842 163.95 63.3063C163.461 63.4283 162.902 63.5199 162.271 63.5809C161.64 63.6419 160.999 63.7233 160.348 63.825C159.697 63.9267 159.051 64.064 158.41 64.2369C157.769 64.4099 157.2 64.6692 156.701 65.015C156.203 65.3608 155.796 65.8236 155.48 66.4034C155.165 66.9831 155.007 67.7205 155.007 68.6156C155.007 69.4293 155.145 70.1311 155.419 70.721C155.694 71.3109 156.076 71.7991 156.564 72.1856C157.052 72.5721 157.622 72.8569 158.273 73.04C158.924 73.2231 159.626 73.3146 160.379 73.3146C161.356 73.3146 162.312 73.1722 163.248 72.8874C164.184 72.6026 164.998 72.1043 165.69 71.3922C165.71 71.6567 165.745 71.9161 165.796 72.1703C165.847 72.4246 165.913 72.6738 165.995 72.9179H170.39C170.186 72.5924 170.044 72.1043 169.962 71.4533C169.881 70.8023 169.84 70.1209 169.84 69.4089ZM165.506 66.8153C165.506 67.0594 165.481 67.3849 165.43 67.7917C165.379 68.1985 165.242 68.6003 165.018 68.997C164.794 69.3937 164.448 69.7344 163.98 70.0192C163.512 70.304 162.851 70.4463 161.996 70.4463C161.651 70.4463 161.315 70.4159 160.989 70.3548C160.664 70.2938 160.379 70.187 160.135 70.0344C159.891 69.8819 159.697 69.6734 159.555 69.4089C159.412 69.1444 159.341 68.819 159.341 68.4325C159.341 68.0256 159.412 67.69 159.555 67.4256C159.697 67.1611 159.886 66.9425 160.119 66.7695C160.353 66.5966 160.628 66.4593 160.944 66.3576C161.259 66.2559 161.579 66.1745 161.905 66.1135C162.251 66.0525 162.597 66.0016 162.943 65.9609C163.288 65.9203 163.619 65.8694 163.935 65.8084C164.25 65.7473 164.545 65.671 164.82 65.5795C165.094 65.488 165.323 65.3608 165.506 65.1981V66.8153V66.8153Z" fill="white"/>
<path d="M183.666 57.1426V65.4117C183.666 67.0187 183.402 68.1731 182.873 68.8749C182.344 69.5767 181.489 69.9276 180.309 69.9276C179.271 69.9276 178.549 69.6072 178.142 68.9665C177.735 68.3257 177.532 67.3543 177.532 66.0525V57.1426H173.198V66.8458C173.198 67.8222 173.284 68.7122 173.457 69.5157C173.63 70.3192 173.93 71.0007 174.358 71.5601C174.785 72.1195 175.37 72.5518 176.112 72.8569C176.855 73.162 177.806 73.3146 178.966 73.3146C179.882 73.3146 180.777 73.1112 181.652 72.7043C182.527 72.2975 183.239 71.6364 183.788 70.721H183.88V72.9179H188V57.1426H183.666Z" fill="white"/>
</svg>
