<svg width="215" height="130" viewBox="0 0 215 130" fill="none" xmlns="http://www.w3.org/2000/svg">
<rect width="215" height="130" fill="black"/>
<path d="M38.994 82.6182L22.6231 46.5695L21.5 46.5566L38.5162 84.0182H39.3617L56.3797 46.5566L55.3655 46.5695L38.994 82.6182Z" fill="white"/>
<path d="M77.1205 46.5607H76.1348V83.4427H77.1205V46.5607Z" fill="white"/>
<path d="M113.843 64.3553C116.172 62.5904 117.554 59.604 117.554 56.2907C117.554 51.0287 112.964 46.7475 107.324 46.7475H97.131V47.5427H107.324C112.399 47.5427 116.528 51.4668 116.528 56.2907C116.528 59.6745 114.991 62.7028 112.515 64.1932L112.424 64.2479V64.7229L112.553 64.7649C116.285 65.9921 118.792 69.4161 118.792 73.2849C118.792 78.3066 114.553 82.5481 109.536 82.5481H95.3726V83.3433H109.536C115.109 83.3433 119.818 78.7374 119.818 73.2849C119.818 69.3736 117.484 65.9044 113.843 64.3553Z" fill="white"/>
<path d="M139.946 46.5607H138.96V83.4427H139.946V46.5607Z" fill="white"/>
<path d="M176.484 45.9818H175.639L158.62 83.4433L159.634 83.4299L176.006 47.3823L192.378 83.4299L193.5 83.4433L176.484 45.9818Z" fill="white"/>
</svg>
