<svg width="24" height="16" viewBox="0 0 24 16" fill="none" xmlns="http://www.w3.org/2000/svg">
<path fill-rule="evenodd" clip-rule="evenodd" d="M23.5 1.06667H0.5C0.224 1.06667 0 0.827733 0 0.533333C0 0.238933 0.224 0 0.5 0H23.5C23.776 0 24 0.238933 24 0.533333C24 0.827733 23.776 1.06667 23.5 1.06667Z" fill="white"/>
<path fill-rule="evenodd" clip-rule="evenodd" d="M23.5 8.53346H0.5C0.224 8.53346 0 8.29453 0 8.00013C0 7.70573 0.224 7.4668 0.5 7.4668H23.5C23.776 7.4668 24 7.70573 24 8.00013C24 8.29453 23.776 8.53346 23.5 8.53346Z" fill="white"/>
<path fill-rule="evenodd" clip-rule="evenodd" d="M23.5 15.9998H0.5C0.224 15.9998 0 15.7608 0 15.4664C0 15.172 0.224 14.9331 0.5 14.9331H23.5C23.776 14.9331 24 15.172 24 15.4664C24 15.7608 23.776 15.9998 23.5 15.9998Z" fill="white"/>
</svg>
