<svg width="25" height="24" viewBox="0 0 25 24" fill="none" xmlns="http://www.w3.org/2000/svg">
<path fill-rule="evenodd" clip-rule="evenodd" d="M20.109 19.6364C19.21 19.6364 18.4785 20.3673 18.4785 21.2728C18.4785 22.1782 19.21 22.9091 20.109 22.9091C21.0079 22.9091 21.7394 22.1782 21.7394 21.2728C21.7394 20.3673 21.0079 19.6364 20.109 19.6364ZM20.109 24.0004C18.6112 24.0004 17.3916 22.7786 17.3916 21.2731C17.3916 19.7677 18.6112 18.5459 20.109 18.5459C21.6068 18.5459 22.8264 19.7677 22.8264 21.2731C22.8264 22.7786 21.6068 24.0004 20.109 24.0004Z" fill="white"/>
<path fill-rule="evenodd" clip-rule="evenodd" d="M9.23884 19.6364C8.33992 19.6364 7.6084 20.3673 7.6084 21.2728C7.6084 22.1782 8.33992 22.9091 9.23884 22.9091C10.1378 22.9091 10.8693 22.1782 10.8693 21.2728C10.8693 20.3673 10.1378 19.6364 9.23884 19.6364ZM9.23888 24.0004C7.74105 24.0004 6.52148 22.7786 6.52148 21.2731C6.52148 19.7677 7.74105 18.5459 9.23888 18.5459C10.7367 18.5459 11.9563 19.7677 11.9563 21.2731C11.9563 22.7786 10.7367 24.0004 9.23888 24.0004Z" fill="white"/>
<path fill-rule="evenodd" clip-rule="evenodd" d="M22.2827 17.4544H9.73806C7.93154 17.4544 6.36306 16.1671 6.00762 14.389L3.3587 1.0909H0.543479C0.243479 1.0909 0 0.850901 0 0.545449C0 0.239998 0.243479 0 0.543479 0H3.80436C4.06305 0 4.28588 0.185453 4.33697 0.436359L7.07393 14.1708C7.32719 15.4362 8.44784 16.3635 9.73806 16.3635H22.2827C22.5827 16.3635 22.8261 16.6035 22.8261 16.9089C22.8261 17.2144 22.5827 17.4544 22.2827 17.4544Z" fill="white"/>
<path fill-rule="evenodd" clip-rule="evenodd" d="M21.4499 13.091H6.52157C6.22157 13.091 5.97809 12.851 5.97809 12.5456C5.97809 12.2401 6.22157 12.0001 6.52157 12.0001H21.4499C22.2705 12.0001 22.9662 11.3892 23.0683 10.5711L23.8412 4.36385H4.89114C4.59113 4.36385 4.34766 4.12385 4.34766 3.8184C4.34766 3.51295 4.59113 3.27295 4.89114 3.27295H24.4564C24.6129 3.27295 24.7607 3.3384 24.864 3.4584C24.9673 3.5784 25.0151 3.73113 24.9955 3.88385L24.1466 10.702C23.977 12.0656 22.8173 13.091 21.4499 13.091Z" fill="white"/>
</svg>
