<svg width="24" height="24" viewBox="0 0 24 24" fill="none" xmlns="http://www.w3.org/2000/svg">
<path fill-rule="evenodd" clip-rule="evenodd" d="M12 1.04348C5.95826 1.04348 1.04348 5.95826 1.04348 12C1.04348 18.0417 5.95826 22.9565 12 22.9565C18.0417 22.9565 22.9565 18.0417 22.9565 12C22.9565 5.95826 18.0417 1.04348 12 1.04348ZM12 24C5.3833 24 0 18.6167 0 12C0 5.3833 5.3833 0 12 0C18.6167 0 24 5.3833 24 12C24 18.6167 18.6167 24 12 24Z" fill="white"/>
<path fill-rule="evenodd" clip-rule="evenodd" d="M18.2608 18.7824C17.9728 18.7824 17.739 18.5486 17.739 18.2606C17.739 15.0968 15.1637 12.5215 11.9999 12.5215C8.83607 12.5215 6.26076 15.0968 6.26076 18.2606C6.26076 18.5486 6.02702 18.7824 5.73902 18.7824C5.45102 18.7824 5.21729 18.5486 5.21729 18.2606C5.21729 14.5208 8.26007 11.478 11.9999 11.478C15.7397 11.478 18.7825 14.5208 18.7825 18.2606C18.7825 18.5486 18.5488 18.7824 18.2608 18.7824Z" fill="white"/>
<path fill-rule="evenodd" clip-rule="evenodd" d="M12 4.17391C10.561 4.17391 9.3913 5.34365 9.3913 6.78261C9.3913 8.22157 10.561 9.3913 12 9.3913C13.439 9.3913 14.6087 8.22157 14.6087 6.78261C14.6087 5.34365 13.439 4.17391 12 4.17391ZM11.9998 10.4347C9.98592 10.4347 8.34766 8.79646 8.34766 6.78255C8.34766 4.76863 9.98592 3.13037 11.9998 3.13037C14.0137 3.13037 15.652 4.76863 15.652 6.78255C15.652 8.79646 14.0137 10.4347 11.9998 10.4347Z" fill="white"/>
</svg>
