<svg width="180" height="55" viewBox="0 0 180 55" fill="none" xmlns="http://www.w3.org/2000/svg">
<g clip-path="url(#clip0)">
<path d="M1.11914 1.21387V53.628H36.6506V45.0456H12.0519V30.1029H34.2211V21.9803H11.976V9.5664H35.6636V1.21387H1.11914Z" fill="#1B1C1E"/>
<path d="M128.289 14.6237C128.289 4.96851 118.571 -0.165645 110.144 -0.0889979C87.5949 0.064265 89.1133 23.436 88.7337 26.8077C88.43 48.1872 97.8443 54.7006 110.903 55.0071C124.037 55.3136 128.593 45.7351 128.289 40.984H123.81C123.886 44.8155 120.469 50.7925 111.358 51.1757C105.361 51.4056 93.0612 48.7236 93.1372 27.8805C93.1372 17.459 95.5667 3.81905 110.599 4.20219C118.951 4.35546 123.126 8.7233 123.126 14.6237H128.289Z" fill="#1B1C1E"/>
<path d="M79.8525 38.6854C79.3969 35.3137 77.5748 28.1105 72.7158 26.8079C72.7158 26.8079 81.1431 24.7389 81.3709 14.7005C81.5227 10.1794 78.2581 1.21387 70.1345 1.21387H44.5488V53.7046H51.9132V29.7964C51.9132 29.7964 61.2516 29.7964 64.6681 29.7964C64.6681 29.7964 71.1215 29.7964 72.2603 39.375C72.7917 41.6739 73.6269 48.6471 75.2212 53.6279C75.2212 53.6279 82.6104 53.6934 83.1899 53.7034C82.5793 53.6754 80.6862 45.1117 79.8525 38.6854ZM65.8069 23.4362C62.2386 23.4362 51.9132 23.4362 51.9132 23.4362V6.88442C51.9132 6.88442 66.4902 6.88442 68.0087 6.88442C68.0087 6.88442 74.0824 6.80774 74.462 14.394C74.8416 16.9994 72.564 23.4362 65.8069 23.4362Z" fill="#1B1C1E"/>
<path d="M83.1895 53.7031C83.1905 53.7031 83.1917 53.7044 83.1927 53.7044C83.2452 53.7044 83.2377 53.7039 83.1895 53.7031Z" fill="#1B1C1E"/>
<path d="M180.22 24.0479C179.612 13.4731 174.222 0.292969 156.532 0.292969C137.931 0.369559 133.224 13.1666 132.693 24.0479C131.858 40.0634 138.463 54.8527 156.532 54.8527C174.45 54.8527 181.207 40.0634 180.22 24.0479ZM156.532 51.7875C141.955 51.7875 135.654 40.9062 135.957 26.7299C136.033 22.5153 135.198 3.12816 156.532 3.28152C176.575 3.4347 176.803 22.592 176.803 26.8065C176.803 41.0595 170.957 51.7875 156.532 51.7875Z" fill="#1B1C1E"/>
</g>
<defs>
<clipPath id="clip0">
<rect width="180" height="55" fill="white"/>
</clipPath>
</defs>
</svg>
