<svg width="83" height="83" viewBox="0 0 83 83" fill="none" xmlns="http://www.w3.org/2000/svg">
<rect width="82.7389" height="82.7389" rx="41.3695" fill="#052555"/>
<path fill-rule="evenodd" clip-rule="evenodd" d="M55.4491 57.7779C53.7099 57.7779 52.2946 59.1869 52.2946 60.9324C52.2946 62.6779 53.7099 64.0869 55.4491 64.0869C57.1883 64.0869 58.6036 62.6779 58.6036 60.9324C58.6036 59.1869 57.1883 57.7779 55.4491 57.7779ZM55.4509 66.1918C52.5529 66.1918 50.1934 63.8364 50.1934 60.9343C50.1934 58.0321 52.5529 55.6768 55.4509 55.6768C58.3488 55.6768 60.7084 58.0321 60.7084 60.9343C60.7084 63.8364 58.3488 66.1918 55.4509 66.1918Z" fill="white"/>
<path fill-rule="evenodd" clip-rule="evenodd" d="M34.4215 57.7779C32.6823 57.7779 31.267 59.1869 31.267 60.9324C31.267 62.6779 32.6823 64.0869 34.4215 64.0869C36.1607 64.0869 37.576 62.6779 37.576 60.9324C37.576 59.1869 36.1607 57.7779 34.4215 57.7779ZM34.4225 66.1918C31.5246 66.1918 29.165 63.8364 29.165 60.9343C29.165 58.0321 31.5246 55.6768 34.4225 55.6768C37.3205 55.6768 39.68 58.0321 39.68 60.9343C39.68 63.8364 37.3205 66.1918 34.4225 66.1918Z" fill="white"/>
<path fill-rule="evenodd" clip-rule="evenodd" d="M59.6577 53.5725H35.3879C31.8929 53.5725 28.8583 51.0911 28.1707 47.6633L23.0459 22.0287H17.5993C17.0189 22.0287 16.5479 21.5661 16.5479 20.9772C16.5479 20.3884 17.0189 19.9258 17.5993 19.9258H23.9081C24.4086 19.9258 24.8397 20.2833 24.9385 20.7669L30.2337 47.2427C30.7236 49.6821 32.8918 51.4696 35.3879 51.4696H59.6577C60.2381 51.4696 60.7092 51.9322 60.7092 52.521C60.7092 53.1099 60.2381 53.5725 59.6577 53.5725Z" fill="white"/>
<path fill-rule="evenodd" clip-rule="evenodd" d="M30.2172 49.3694C29.6957 49.3694 29.2457 48.9909 29.1742 48.4651C29.0985 47.8763 29.5022 47.3506 30.0784 47.2665L60.9135 43.1658L61.7926 39.6539C61.9335 39.0861 62.5033 38.7496 63.0669 38.8969C63.6305 39.023 63.9733 39.5908 63.8324 40.1586L62.7809 44.3644C62.6758 44.785 62.3267 45.1005 61.8998 45.1636L30.356 49.3694C30.3076 49.3694 30.2635 49.3694 30.2172 49.3694Z" fill="white"/>
<path fill-rule="evenodd" clip-rule="evenodd" d="M40.7315 28.3384H26.0105C25.4301 28.3384 24.959 27.8757 24.959 27.2869C24.959 26.698 25.4301 26.2354 26.0105 26.2354H40.7315C41.3119 26.2354 41.783 26.698 41.783 27.2869C41.783 27.8757 41.3119 28.3384 40.7315 28.3384Z" fill="white"/>
<path fill-rule="evenodd" clip-rule="evenodd" d="M55.4493 17.8245C50.2318 17.8245 45.9858 22.0725 45.9858 27.288C45.9858 32.5034 50.2318 36.7515 55.4493 36.7515C60.6669 36.7515 64.9128 32.5034 64.9128 27.288C64.9128 22.0725 60.6669 17.8245 55.4493 17.8245ZM55.4508 38.8528C49.0727 38.8528 43.8848 33.6586 43.8848 27.2868C43.8848 20.9149 49.0727 15.7207 55.4508 15.7207C61.829 15.7207 67.0169 20.9149 67.0169 27.2868C67.0169 33.6586 61.829 38.8528 55.4508 38.8528Z" fill="white"/>
<path fill-rule="evenodd" clip-rule="evenodd" d="M53.3493 32.5443C53.0801 32.5443 52.8109 32.4392 52.6048 32.2289L48.4009 28.0229C47.9887 27.6233 47.9887 26.9503 48.4009 26.5508C48.811 26.1302 49.4756 26.1302 49.8857 26.5508L53.3493 29.9997L61.019 22.3447C61.429 21.9241 62.0936 21.9241 62.5037 22.3447C62.9159 22.7443 62.9159 23.4173 62.5037 23.8168L54.0917 32.2289C53.8877 32.4392 53.6185 32.5443 53.3493 32.5443Z" fill="white"/>
</svg>
