<svg width="215" height="130" viewBox="0 0 215 130" fill="none" xmlns="http://www.w3.org/2000/svg">
<rect width="215" height="130" fill="black"/>
<path d="M62.4222 86.4773C75.394 86.4773 86.3404 77.8382 89.8432 66H35C38.5039 77.8382 49.4503 86.4773 62.4222 86.4773" fill="white"/>
<path d="M108.708 56.6986H114.756V35.8802H108.708C108.708 35.8802 108.708 56.6986 108.708 56.6986ZM108.708 33.2946H114.756V28.5562H108.708V33.2946Z" fill="white"/>
<path d="M124.752 37.7942C125.35 37.1567 125.745 36.6771 126.819 36.1609C128.017 35.6673 129.301 35.4103 130.597 35.4044C131.836 35.4044 133.224 35.6413 134.302 36.2433C136.487 37.3959 137.045 39.2661 137.045 42.4892V56.7012H130.956V44.9981C130.956 43.1256 130.919 42.4503 130.678 41.8917C130.2 40.7781 129.124 40.2985 127.933 40.2985C124.71 40.2985 124.71 42.8887 124.71 45.4754V56.7012H118.583V35.9618H124.753V37.7942H124.752V37.7942ZM160.216 51.4065C159.503 52.4801 158.781 53.5159 157.71 54.5094C155.922 56.1827 153.213 57.4578 149.874 57.4578C143.701 57.4578 139.366 53.5159 139.366 46.708C139.366 41.6926 141.83 35.2441 150.029 35.2441C151.262 35.2441 154.842 35.362 157.511 38.2303C160.215 41.1352 160.378 45.1949 160.455 47.5447H145.613C145.571 50.1291 147.046 52.7181 150.348 52.7181C153.689 52.7181 154.843 50.5297 155.602 49.0555C155.602 49.0555 160.216 51.4065 160.216 51.4065ZM154.129 43.723C154.007 42.8474 153.851 41.6926 152.972 40.7781C152.22 40.0215 151.064 39.6255 149.987 39.6255C148.81 39.6213 147.685 40.1118 146.886 40.9772C146.051 41.894 145.852 42.8474 145.655 43.723H154.129V43.723ZM162.178 41.8139C162.301 40.3798 162.498 38.6698 164.367 37.1945C166.279 35.6825 168.744 35.3632 171.173 35.3632C173.718 35.3632 179.889 35.9629 179.889 41.3343V53.4358C179.889 55.6642 180.006 55.9847 180.484 56.7001H174.477V54.7898C172.92 55.9435 171.173 57.2575 168.106 57.2575C163.331 57.2575 161.302 53.8352 161.302 50.9269C161.302 47.5882 163.97 45.6734 165.687 44.9569C167.352 44.2404 171.291 43.5262 173.879 43.0466V41.9318C173.799 40.9772 173.718 39.3863 171.528 39.3863C168.825 39.3863 168.463 41.0574 168.309 41.8139H162.178H162.178V41.8139ZM169.941 48.0621C168.904 48.4604 167.312 49.0555 167.312 50.6476C167.312 51.6445 168.185 52.7582 169.619 52.7582C170.373 52.7582 171.095 52.4801 171.731 52.0829C173.758 50.8079 173.837 48.8976 173.879 46.7481C173.879 46.7481 169.941 48.0621 169.941 48.0621Z" fill="white"/>
<path d="M98.7544 28.5991H104.884V86.3158H98.7544V28.5991ZM108.708 58.0315H114.754V62.9084H108.708V58.0315ZM108.708 65.4974H114.754V86.3158H108.708V65.4974Z" fill="white"/>
<path d="M130.995 83.7273C129.803 84.5193 128.334 85.4807 125.509 85.4807C123.797 85.4807 122.124 85.0424 120.768 84.1267C117.984 82.3344 116.908 79.109 116.908 75.5254C116.908 71.3477 118.859 65.3354 125.742 65.3354C128.929 65.3354 130.398 66.7294 131.314 67.605V65.3354H137.045V85.6364C136.964 87.9049 136.887 90.5729 133.861 92.3229C131.754 93.5957 128.65 93.9184 126.779 93.9184C122.64 93.9184 119.936 92.4866 118.822 91.3306C117.186 89.6961 117.228 87.5867 117.228 86.4731H123.557C123.635 87.3887 123.714 88.7038 125.346 89.4558C125.743 89.6595 126.347 89.8598 127.298 89.8598C130.995 89.8598 130.995 87.668 130.995 85.9569V83.7273ZM123.238 75.4887C123.238 77.2388 123.356 80.8636 127.136 80.8636C130.24 80.8636 130.955 78.4325 130.955 75.4887C130.955 74.493 130.881 72.4202 130.199 71.4256C129.729 70.6724 128.611 69.8346 126.858 69.9159C123.949 70.0372 123.238 72.5438 123.238 75.4887H123.238ZM146.923 58.0308V67.724C147.796 66.8508 149.592 64.9794 152.892 64.9794C154.409 64.9794 156.076 65.4166 157.312 66.4513C159.143 68.0022 159.461 69.9571 159.461 72.6617V86.3151H153.372V75.4464C153.372 73.7765 153.335 72.9799 153.093 72.2622C152.497 70.3932 150.864 70.1929 150.228 70.1929C149.152 70.1929 148.239 70.7148 147.719 71.3866C146.924 72.4614 146.924 74.1736 146.924 75.9672V86.3151H140.798V58.0308H146.923V58.0308ZM163.846 58.0308H169.938V66.0141H173.956V69.7556H169.896V79.1124C169.856 80.3806 169.856 81.4588 171.486 81.4588L173.678 81.3798V86.156C172.364 86.3563 171.569 86.4742 170.452 86.4742C168.344 86.4742 166.039 86.3552 164.72 84.4449C163.886 83.2145 163.846 81.7392 163.846 79.7454V69.7167H160.825V65.9775H163.846C163.846 65.9775 163.846 58.0308 163.846 58.0308ZM151.037 91.0662V97.6989C151.037 98.5207 151.054 99.3997 150.605 100.144C150.056 101.112 148.908 101.5 147.79 101.5C147.047 101.5 146.225 101.321 145.645 100.906C144.751 100.263 144.632 99.2933 144.57 98.8767H145.914C145.899 99.6824 146.392 100.531 147.865 100.531C148.67 100.531 149.117 100.264 149.355 100.024C149.786 99.5634 149.786 99.0403 149.801 97.8786V97.0591C149.549 97.4162 148.851 98.2964 147.496 98.2964C145.796 98.2964 144.242 97.0591 144.242 94.6166C144.242 91.7827 146.077 90.8441 147.508 90.8441C148.162 90.8441 148.997 91.0536 149.8 92.0036V91.0673H151.037V91.0662V91.0662ZM145.465 94.5686C145.465 94.9703 145.496 95.7761 145.957 96.401C146.452 97.058 147.12 97.2354 147.686 97.2354C148.418 97.2354 148.998 96.9538 149.4 96.3438C149.814 95.7165 149.86 94.881 149.86 94.4633C149.86 92.0814 148.089 91.9143 147.612 91.9143C146.333 91.9303 145.465 92.9433 145.465 94.5686H145.465ZM154.169 91.0673V92.347C154.838 91.0193 156.106 90.9895 156.581 90.9769V92.2588C156.418 92.24 156.253 92.2301 156.089 92.2291C155.404 92.2291 154.806 92.4957 154.465 93.0634C154.151 93.5842 154.168 94.1931 154.168 94.8375V98.0858H152.976V91.0673H154.169V91.0673ZM160.727 98.2952C158.296 98.2952 157.27 96.4765 157.27 94.6281C157.27 93.0646 158.043 90.8419 160.775 90.8419C163.096 90.8419 164.17 92.648 164.154 94.5686C164.138 96.6997 162.87 98.2952 160.727 98.2952V98.2952ZM162.782 93.5842C162.515 92.1982 161.608 91.7953 160.802 91.7953C159.205 91.7953 158.564 93.0337 158.564 94.6429C158.564 96.1171 159.176 97.3407 160.711 97.3407C162.694 97.3407 162.841 95.2839 162.859 94.5674C162.872 94.2378 162.846 93.9078 162.782 93.5842L162.782 93.5842ZM165.718 91.0673H166.895V95.0744C166.895 95.807 166.895 95.8665 166.924 96.045C167.043 96.9538 167.773 97.1472 168.326 97.1472C169.059 97.1472 169.609 96.8485 169.906 96.48C170.338 95.9718 170.338 95.4201 170.338 94.5834V91.0685H171.514V98.0869H170.338V97.0168C170.116 97.3132 169.398 98.2689 167.938 98.2689C166.955 98.2689 166.447 97.8179 166.224 97.5524C165.718 96.9687 165.718 96.3586 165.718 95.1797C165.718 95.1797 165.718 91.0673 165.718 91.0673ZM173.47 91.0673H174.646V92.0642C174.883 91.7964 175.018 91.6179 175.303 91.4222C175.85 91.0571 176.489 90.8561 177.146 90.843C178.67 90.843 180.309 92.0517 180.309 94.5823C180.309 96.5795 179.237 98.2964 177.017 98.2964C176.078 98.2964 175.242 97.9816 174.646 97.2525V101.411H173.47C173.47 101.411 173.47 91.0673 173.47 91.0673ZM174.646 94.6876C174.646 96.2087 175.406 97.2525 176.838 97.2525C177.254 97.2525 177.701 97.1804 178.073 96.9389C178.462 96.6848 179.085 95.9855 179.085 94.5708C179.085 92.9009 178.16 91.9006 176.807 91.9601C175.452 92.0047 174.646 93.0921 174.646 94.6876H174.646ZM91.7148 57.106C91.7148 56.6127 91.7023 56.1217 91.6782 55.6341C90.9115 40.5202 78.418 28.5 63.1152 28.5C47.8135 28.5 35.3188 40.5202 34.5533 55.6341C34.5016 56.5918 34.5031 57.5517 34.5579 58.5092C34.575 58.8194 34.5922 59.1296 34.6174 59.4374H49.3904C51.3534 59.4368 52.945 57.8459 52.9469 55.8824C52.9469 50.2581 57.4966 45.6947 63.1152 45.6775C68.737 45.6958 73.2847 50.2594 73.2846 55.8824C73.2859 57.8457 74.8771 59.4368 76.84 59.4374H91.613C91.637 59.1296 91.6553 58.8194 91.6714 58.5092C91.6965 58.0445 91.7148 57.5775 91.7148 57.106Z" fill="white"/>
</svg>
