<svg width="215" height="130" viewBox="0 0 215 130" fill="none" xmlns="http://www.w3.org/2000/svg">
<rect width="215" height="130" fill="black"/>
<path d="M38.9798 58.4662C38.7757 58.7568 38.4651 58.9226 38.1274 58.9226C37.7869 58.9271 37.4757 58.7624 37.2666 58.4719L27.9733 45.5542L17.96 66.3538C17.8123 66.655 17.6967 66.9912 17.6156 67.3467C17.5383 67.6875 17.5 68.0417 17.5 68.3983C17.5 68.3994 17.5581 84.5299 17.5581 84.5299C17.5581 84.5299 27.3272 73.9665 28.1807 73.0459C29.0404 73.962 38.2142 83.7322 38.2142 83.7322C38.2142 83.7322 47.3187 73.8876 48.1728 72.9612C49.033 73.8796 58.8766 84.3618 58.8766 84.3618L58.818 68.2302C58.818 67.8703 58.7763 67.5114 58.6945 67.1718C58.6128 66.8198 58.4938 66.4892 58.3422 66.1857L48.1818 45.4702L38.9798 58.4662ZM38.1325 60.3443C38.8783 60.3443 39.5931 59.9607 40.0442 59.3198C40.0442 59.3198 46.0108 50.894 47.9777 48.1155C48.856 49.9101 57.164 66.8491 57.164 66.8491C57.2676 67.0556 57.3478 67.2801 57.4041 67.5194C57.4587 67.7495 57.4864 67.9875 57.4864 68.2302C57.4864 68.2358 57.5185 77.1112 57.532 80.9238C55.7394 79.0124 48.1654 70.9483 48.1654 70.9483C48.1654 70.9483 39.0592 80.7929 38.2068 81.7171C37.3454 80.8008 28.1739 71.0284 28.1739 71.0284C28.1739 71.0284 20.658 79.1558 18.8773 81.0807C18.8681 78.4122 18.8333 68.387 18.8333 68.3824C18.8333 68.1433 18.8581 67.9153 18.9099 67.6818C18.9674 67.4335 19.0452 67.2079 19.1438 67.007C19.1438 67.0025 26.2685 52.204 28.1976 48.1985C29.2952 49.7234 36.2106 59.3384 36.2106 59.3384C36.6752 59.9815 37.3743 60.3488 38.1325 60.3443Z" fill="white"/>
<path d="M70.1468 83.5545V79.9517H69.5459V79.2329H71.8149V79.9517H71.1498V83.5545H72.629V82.5062H73.4527V84.3082H69.5459V83.5545H70.1468Z" fill="white"/>
<path d="M76.1802 83.5545V79.9517H75.5781V79.2329H77.7936V79.9517H77.182V83.5545H77.7936V84.3082H75.5781V83.5545H76.1802Z" fill="white"/>
<path d="M83.5462 81.005C83.5106 80.6576 83.3917 80.3823 83.1899 80.1825C82.9875 79.9805 82.7304 79.8813 82.4192 79.8813C81.9817 79.8813 81.6339 80.0516 81.3751 80.3946C81.117 80.7365 80.9873 81.198 80.9873 81.7813C80.9873 82.3579 81.1125 82.8138 81.3611 83.1477C81.6096 83.4806 81.9479 83.6487 82.3741 83.6487C82.7107 83.6487 82.9751 83.5449 83.165 83.3385C83.3551 83.132 83.4638 82.834 83.4898 82.4414H82.8336V81.6899H84.9143V82.4346H84.4566V84.3088H83.5698V83.7391C83.4881 83.9624 83.3342 84.1305 83.107 84.2467C82.8797 84.3607 82.5895 84.4194 82.2338 84.4194C81.511 84.4194 80.9428 84.1802 80.529 83.7029C80.1158 83.2234 79.9077 82.5678 79.9077 81.7363C79.9077 80.9318 80.1113 80.2942 80.5182 79.8282C80.9259 79.3578 81.4794 79.1241 82.1791 79.1241C82.5099 79.1241 82.7868 79.1705 83.0094 79.2629C83.2321 79.3555 83.4165 79.5022 83.5647 79.703V79.2336H84.4379V81.005H83.5462V81.005Z" fill="white"/>
<path d="M86.9985 84.3082V83.5545H87.6012V79.9517H86.9985V79.2329H89.2687V79.9517H88.6035V81.3339H90.5885V79.9517H89.9233V79.2329H92.1929V79.9517H91.5908V83.5545H92.1929V84.3082H89.9233V83.5545H90.5885V82.0854H88.6035V83.5545H89.2687V84.3082H86.9985V84.3082Z" fill="white"/>
<path d="M95.8319 83.5545V79.9517H95.0657V80.965H94.2319V79.2329H98.4285V80.965H97.5857V79.9517H96.8292V83.5545H97.4938V84.3082H95.1622V83.5545H95.8319Z" fill="white"/>
<path d="M101.084 83.5545V79.9517H100.482V79.2329H102.699V79.9517H102.086V83.5545H102.699V84.3082H100.482V83.5545H101.084Z" fill="white"/>
<path d="M105.308 83.5545V79.9517H104.695V79.2329H106.686L108.488 83.0975V79.9517H107.891V79.2329H109.913V79.9517H109.374V84.3082H108.101L106.18 80.1943V83.5545H106.768V84.3082H104.695V83.5545H105.308Z" fill="white"/>
<path d="M115.781 81.005C115.747 80.6576 115.628 80.3823 115.425 80.1825C115.222 79.9805 114.966 79.8813 114.654 79.8813C114.218 79.8813 113.87 80.0516 113.61 80.3946C113.352 80.7365 113.223 81.198 113.223 81.7813C113.223 82.3579 113.348 82.8138 113.597 83.1477C113.845 83.4806 114.184 83.6487 114.609 83.6487C114.945 83.6487 115.21 83.5449 115.401 83.3385C115.59 83.132 115.699 82.834 115.727 82.4414H115.068V81.6899H117.15V82.4346H116.691V84.3088H115.806V83.7391C115.725 83.9624 115.57 84.1305 115.342 84.2467C115.116 84.3607 114.825 84.4194 114.468 84.4194C113.747 84.4194 113.179 84.1802 112.765 83.7029C112.351 83.2234 112.144 82.5678 112.144 81.7363C112.144 80.9318 112.348 80.2942 112.756 79.8282C113.161 79.3578 113.714 79.1241 114.414 79.1241C114.745 79.1241 115.023 79.1705 115.245 79.2629C115.467 79.3555 115.652 79.5022 115.8 79.703V79.2336H116.674V81.005H115.781V81.005Z" fill="white"/>
<path d="M123.509 83.5545V79.9517H122.906V79.2329H125.122V79.9517H124.511V83.5545H125.122V84.3082H122.906V83.5545H123.509Z" fill="white"/>
<path d="M127.733 83.5545V79.9517H127.121V79.2329H129.112L130.912 83.0975V79.9517H130.315V79.2329H132.339V79.9517H131.8V84.3082H130.526L128.605 80.1943V83.5545H129.193V84.3082H127.121V83.5545H127.733Z" fill="white"/>
<path d="M134.541 82.5745H135.4C135.4 82.5892 135.398 82.6118 135.396 82.6445C135.393 82.6772 135.393 82.6998 135.393 82.7144C135.393 83.0225 135.471 83.2561 135.629 83.4164C135.788 83.5788 136.018 83.6589 136.324 83.6589C136.568 83.6589 136.762 83.5957 136.902 83.4682C137.042 83.3418 137.113 83.1659 137.113 82.9436C137.113 82.6017 136.78 82.3332 136.115 82.1367C136.073 82.1244 136.041 82.1142 136.016 82.1074L135.989 82.0995C135.428 81.9303 135.072 81.7622 134.918 81.594C134.806 81.4745 134.72 81.3312 134.662 81.1653C134.603 81.0017 134.574 80.8222 134.574 80.6237C134.574 80.1791 134.709 79.8169 134.982 79.5416C135.254 79.2629 135.611 79.1241 136.052 79.1241C136.304 79.1241 136.528 79.1682 136.722 79.2539C136.916 79.3396 137.068 79.4604 137.179 79.6206V79.2336H138.013V80.8076H137.165C137.144 80.5187 137.056 80.2931 136.903 80.1306C136.75 79.967 136.547 79.8846 136.292 79.8846C136.089 79.8846 135.923 79.941 135.799 80.0527C135.672 80.1645 135.61 80.3101 135.61 80.4883C135.61 80.6531 135.663 80.7862 135.773 80.8889C135.882 80.9882 136.1 81.0954 136.428 81.207C136.49 81.2296 136.582 81.2612 136.702 81.3007C137.254 81.4868 137.617 81.6708 137.794 81.8524C137.91 81.9743 137.998 82.1187 138.059 82.2846C138.117 82.4516 138.149 82.64 138.149 82.8476C138.149 83.335 138.004 83.7187 137.716 83.9996C137.427 84.2783 137.032 84.4194 136.523 84.4194C136.26 84.4194 136.037 84.3765 135.854 84.2908C135.67 84.2039 135.512 84.0696 135.378 83.8812V84.3313H134.541V82.5745V82.5745Z" fill="white"/>
<path d="M141.869 83.5545V79.9517H141.102V80.965H140.268V79.2329H144.466V80.965H143.622V79.9517H142.866V83.5545H143.531V84.3082H141.198V83.5545H141.869Z" fill="white"/>
<path d="M147.133 83.5545V79.9517H146.521V79.2329H149.156C149.699 79.2329 150.107 79.3515 150.378 79.5838C150.649 79.8186 150.784 80.1717 150.784 80.6445C150.784 80.9999 150.697 81.2752 150.52 81.4705C150.344 81.6679 150.071 81.7954 149.699 81.8529C149.916 81.8811 150.091 81.95 150.225 82.0617C150.357 82.1734 150.453 82.3291 150.511 82.5288L150.792 83.5545H151.243V84.3082H149.965L149.534 82.724C149.481 82.5232 149.394 82.3844 149.275 82.3054C149.156 82.2265 148.961 82.1881 148.689 82.1881H148.134V83.5545H148.895V84.3082H146.521V83.5545H147.133ZM148.134 81.4963H148.998C149.239 81.4963 149.429 81.4253 149.56 81.2854C149.692 81.1466 149.758 80.948 149.758 80.6942C149.758 80.4527 149.688 80.2687 149.551 80.1435C149.411 80.0161 149.209 79.9517 148.946 79.9517H148.134V81.4963Z" fill="white"/>
<path d="M155.476 79.963H154.873V82.4758C154.873 82.8864 154.952 83.1866 155.11 83.375C155.267 83.5635 155.515 83.6582 155.855 83.6582C156.195 83.6582 156.444 83.5635 156.602 83.375C156.76 83.1866 156.839 82.8864 156.839 82.4758V79.963H156.227V79.2329H158.444V79.963H157.84V82.4531C157.84 83.1189 157.678 83.6132 157.353 83.9347C157.027 84.2574 156.527 84.4187 155.855 84.4187C155.183 84.4187 154.684 84.2574 154.36 83.9347C154.034 83.6132 153.872 83.1189 153.872 82.4531V79.963H153.259V79.2329H155.476V79.963V79.963Z" fill="white"/>
<path d="M161.086 83.559V79.963H160.514V79.2329H162.671L163.626 83.0625L164.627 79.2329H166.782V79.963H166.179V83.559H166.782V84.3082H164.75V83.559H165.278V79.963L164.079 84.3082H163.077L161.902 79.963V83.559H162.397V84.3082H160.514V83.559H161.086Z" fill="white"/>
<path d="M168.833 84.3082V83.5545H169.444V79.9517H168.833V79.2329H173.018V80.7302H172.229V79.9517H170.446V81.3644H171.101V80.6716H171.843V82.7296H171.101V82.0639H170.446V83.5545H172.213V82.6371H173.018V84.3082H168.833V84.3082Z" fill="white"/>
<path d="M175.796 83.5545V79.9517H175.184V79.2329H177.175L178.977 83.0975V79.9517H178.379V79.2329H180.403V79.9517H179.863V84.3082H178.589L176.669 80.1943V83.5545H177.256V84.3082H175.184V83.5545H175.796Z" fill="white"/>
<path d="M184.112 83.5545V79.9517H183.345V80.965H182.512V79.2329H186.709V80.965H185.867V79.9517H185.11V83.5545H185.775V84.3082H183.442V83.5545H184.112Z" fill="white"/>
<path d="M188.851 82.5745H189.711C189.711 82.5892 189.71 82.6118 189.707 82.6445C189.705 82.6772 189.705 82.6998 189.705 82.7144C189.705 83.0225 189.783 83.2561 189.941 83.4164C190.099 83.5788 190.329 83.6589 190.634 83.6589C190.881 83.6589 191.072 83.5957 191.213 83.4682C191.353 83.3418 191.424 83.1659 191.424 82.9436C191.424 82.6017 191.093 82.3332 190.426 82.1367C190.384 82.1244 190.351 82.1142 190.329 82.1074L190.3 82.0995C189.741 81.9303 189.383 81.7622 189.229 81.594C189.117 81.4745 189.031 81.3312 188.973 81.1653C188.914 81.0017 188.884 80.8222 188.884 80.6237C188.884 80.1791 189.021 79.8169 189.292 79.5416C189.565 79.2629 189.921 79.1241 190.362 79.1241C190.616 79.1241 190.84 79.1682 191.033 79.2539C191.226 79.3396 191.379 79.4604 191.492 79.6206V79.2336H192.326V80.8076H191.476C191.455 80.5187 191.369 80.2931 191.215 80.1306C191.061 79.967 190.858 79.8846 190.603 79.8846C190.399 79.8846 190.234 79.941 190.109 80.0527C189.984 80.1645 189.921 80.3101 189.921 80.4883C189.921 80.6531 189.975 80.7862 190.083 80.8889C190.193 80.9882 190.411 81.0954 190.74 81.207C190.803 81.2296 190.893 81.2612 191.014 81.3007C191.565 81.4868 191.929 81.6708 192.105 81.8524C192.221 81.9743 192.311 82.1187 192.37 82.2846C192.43 82.4516 192.46 82.64 192.46 82.8476C192.46 83.335 192.316 83.7187 192.028 83.9996C191.741 84.2783 191.342 84.4194 190.833 84.4194C190.573 84.4194 190.348 84.3765 190.166 84.2908C189.982 84.2039 189.823 84.0696 189.691 83.8812V84.3313H188.851V82.5745V82.5745Z" fill="white"/>
<path d="M71.0434 71.4598V61.0172H69.3662V58.8892H75.6492L78.4178 70.0156L81.3239 58.8892H87.5781V61.0172H85.8248V71.4598H87.5781V73.6262H81.6812V71.4598H83.2231V61.0172L79.7346 73.6262H76.8252L73.4128 61.0172V71.4598H74.8589V73.6262H69.3662V71.4598H71.0434Z" fill="white"/>
<path d="M91.3594 66.2639C91.3594 63.8927 91.9918 62.0191 93.2575 60.6432C94.5231 59.2666 96.2504 58.5778 98.441 58.5778C100.638 58.5778 102.372 59.2643 103.641 60.6369C104.909 62.0113 105.545 63.8853 105.545 66.2639C105.545 68.6357 104.909 70.5075 103.641 71.8807C102.372 73.2528 100.638 73.9399 98.441 73.9399C96.2436 73.9399 94.5141 73.2538 93.2524 71.8852C91.9901 70.5165 91.3594 68.6424 91.3594 66.2639ZM94.4814 66.221C94.4814 67.9552 94.8315 69.3013 95.5304 70.2559C96.2295 71.2116 97.2071 71.6888 98.4619 71.6888C99.7174 71.6888 100.691 71.2116 101.382 70.2559C102.074 69.3013 102.422 67.9552 102.422 66.221C102.422 64.4863 102.077 63.1481 101.388 62.2036C100.699 61.2586 99.7242 60.787 98.4619 60.787C97.1997 60.787 96.2216 61.261 95.5259 62.2087C94.8297 63.1565 94.4814 64.4941 94.4814 66.221Z" fill="white"/>
<path d="M109.313 73.6262V71.4383H111.087V60.9749H109.313V58.8892H116.228C117.466 58.8892 118.445 58.9789 119.168 59.1588C119.891 59.34 120.519 59.6395 121.048 60.0598C121.85 60.6776 122.466 61.5103 122.894 62.5613C123.322 63.6112 123.536 64.8168 123.536 66.1748C123.536 68.6594 122.943 70.5222 121.762 71.7645C120.58 73.0056 118.803 73.6262 116.432 73.6262H109.313V73.6262ZM113.997 71.4383H116.045C117.466 71.4383 118.571 70.9712 119.361 70.0371C120.153 69.1028 120.547 67.7917 120.547 66.1071C120.547 64.4591 120.166 63.192 119.403 62.3052C118.639 61.4178 117.547 60.9749 116.126 60.9749H113.997V71.4383Z" fill="white"/>
<path d="M133.683 61.0172H131.93V68.3061C131.93 69.4954 132.157 70.3631 132.615 70.9103C133.073 71.4565 133.793 71.7307 134.778 71.7307C135.767 71.7307 136.489 71.4565 136.948 70.9103C137.405 70.3631 137.635 69.4954 137.635 68.3061V61.0172H135.86V58.8892H142.297V61.0172H140.543V68.2396C140.543 70.169 140.071 71.6009 139.126 72.5374C138.183 73.4728 136.733 73.9399 134.778 73.9399C132.827 73.9399 131.38 73.4728 130.435 72.5374C129.491 71.6009 129.02 70.169 129.02 68.2396V61.0172H127.246V58.8892H133.683V61.0172Z" fill="white"/>
<path d="M147.473 71.4383V60.9749H145.719V58.8892H152.31V60.9749H150.383V71.4383H154.68V68.3964H157.07V73.6262H145.719V71.4383H147.473Z" fill="white"/>
<path d="M160.399 73.6261V71.4382H161.471L166.315 58.7847H169.803L174.547 71.4382H175.604V73.6261H169.865V71.4382H171.511L170.699 69.0416H165.081L164.245 71.4382H165.898V73.6261H160.399ZM165.815 66.8731H169.906L167.907 61.2246L165.815 66.8731Z" fill="white"/>
<path d="M180.493 71.4383V60.9749H178.719V58.8892H186.367C187.947 58.8892 189.128 59.2294 189.913 59.9091C190.701 60.5884 191.093 61.6129 191.093 62.9878C191.093 64.0157 190.835 64.8145 190.323 65.3826C189.809 65.9513 189.013 66.3204 187.933 66.4895C188.566 66.5697 189.075 66.7728 189.462 67.0977C189.85 67.4193 190.128 67.8707 190.299 68.4517L191.114 71.4383H192.423V73.6262H188.708L187.458 69.0159C187.303 68.4337 187.054 68.0286 186.709 67.7995C186.365 67.5727 185.8 67.4566 185.017 67.4566H183.404V71.4383H185.619V73.6262H178.719V71.4383H180.493V71.4383ZM183.404 65.4549H185.912C186.613 65.4549 187.154 65.2546 187.536 64.8495C187.915 64.445 188.106 63.8696 188.106 63.126C188.106 62.427 187.906 61.8939 187.505 61.5278C187.102 61.1577 186.523 60.9749 185.762 60.9749H183.404V65.4549V65.4549Z" fill="white"/>
<path d="M195.729 58.9552C195.97 58.9552 196.198 59.0036 196.412 59.1001C196.628 59.1955 196.821 59.3359 196.991 59.5216C197.155 59.6981 197.281 59.9024 197.368 60.1337C197.455 60.3661 197.5 60.6121 197.5 60.8711C197.5 61.1334 197.455 61.3788 197.368 61.6084C197.281 61.8375 197.153 62.0394 196.987 62.2148C196.811 62.4005 196.615 62.5398 196.401 62.6385C196.183 62.7373 195.961 62.7853 195.729 62.7853C195.495 62.7853 195.272 62.7373 195.059 62.6397C194.844 62.5438 194.652 62.4017 194.481 62.2148C194.313 62.0349 194.184 61.829 194.095 61.5971C194.006 61.367 193.962 61.1244 193.962 60.8711C193.962 60.6155 194.008 60.3695 194.101 60.1359C194.192 59.9012 194.324 59.6903 194.496 59.5063C194.658 59.3263 194.844 59.1904 195.054 59.0967C195.264 59.0026 195.49 58.9552 195.729 58.9552ZM197.287 60.884C197.287 60.6527 197.249 60.4343 197.172 60.2302C197.095 60.0243 196.985 59.8431 196.839 59.6852C196.689 59.5227 196.52 59.402 196.33 59.3163C196.144 59.2327 195.942 59.1904 195.726 59.1904C195.514 59.1904 195.317 59.2321 195.133 59.3128C194.947 59.394 194.784 59.5114 194.642 59.6682C194.491 59.833 194.376 60.0197 194.296 60.2257C194.216 60.4322 194.175 60.6471 194.175 60.8744C194.175 61.0928 194.215 61.3044 194.292 61.5074C194.372 61.7111 194.484 61.8933 194.632 62.0569C194.778 62.2171 194.944 62.339 195.133 62.4242C195.319 62.5099 195.516 62.5506 195.722 62.5506C195.932 62.5506 196.131 62.5099 196.322 62.4242C196.511 62.3412 196.683 62.2183 196.836 62.0569C196.98 61.9013 197.093 61.7224 197.171 61.5204C197.249 61.3195 197.287 61.1091 197.287 60.884ZM195.778 59.7478C196.064 59.7478 196.275 59.7969 196.413 59.8956C196.554 59.9954 196.623 60.1478 196.623 60.3509C196.623 60.5055 196.58 60.6353 196.494 60.7385C196.409 60.8423 196.294 60.9083 196.148 60.9359L196.601 61.9306H196.221L195.8 60.9872H195.37V61.9306H195.027V59.7478H195.778ZM195.715 59.9887H195.37V60.7492H195.725C195.923 60.7492 196.062 60.7187 196.146 60.6623C196.229 60.6042 196.271 60.5111 196.271 60.3797C196.271 60.2426 196.227 60.1427 196.139 60.0801C196.052 60.0186 195.911 59.9887 195.715 59.9887Z" fill="white"/>
</svg>
