<svg width="215" height="130" viewBox="0 0 215 130" fill="none" xmlns="http://www.w3.org/2000/svg">
<rect width="215" height="130" fill="black"/>
<path d="M50.3232 83.2098H44.5371L33.032 65.3301H37.6318C41.7616 65.3301 44.649 62.8095 44.649 59.191C44.649 56.9728 43.8544 55.1691 42.2988 53.8024C40.5193 52.2788 38.1354 52.2788 34.8563 52.2788H30.3124V83.2098H25.5V47.5736H35.8076C39.4449 47.5736 42.2204 47.9209 44.8169 49.6686C47.8722 51.7075 49.7636 55.3372 49.7636 59.1461C49.7636 64.4563 46.2942 68.7918 41.5489 69.6544L50.3232 83.2098Z" fill="white"/>
<path d="M69.0361 83.8798C63.9439 83.8798 59.2434 81.9753 55.7851 78.5025C52.3157 75.0296 50.4131 70.2908 50.4131 65.1711C50.4131 60.2419 52.45 55.5815 56.1433 52.0526C59.7134 48.6358 64.067 46.8993 69.0809 46.8993C74.1955 46.8993 78.6162 48.6469 82.2311 52.0974C85.9132 55.6263 87.8494 60.141 87.8494 65.1711C87.8494 70.2572 86.2602 74.4134 82.9922 77.8863C79.2541 81.8633 74.5648 83.8798 69.0361 83.8798ZM69.0361 51.5149C65.9136 51.5149 62.9814 52.5567 60.5528 54.5396C57.3631 57.1835 55.371 61.2725 55.371 65.2271C55.371 73.2595 61.3586 79.3203 69.2823 79.3203C76.9375 79.3203 82.9474 73.0803 82.9474 65.1263C82.9474 57.6204 76.7024 51.5149 69.0361 51.5149Z" fill="white"/>
<path d="M98.389 83.2098H89.4468V47.5736H97.0795C105.955 47.5736 110.084 50.6656 110.084 57.3088C110.084 60.2104 108.999 62.4397 106.85 63.9633C110.364 65.6998 112.144 68.5341 112.144 72.4103C112.144 79.7817 107.768 83.2098 98.389 83.2098ZM94.3152 78.5942H98.8142C104.522 78.5942 107.063 76.8242 107.063 72.8472C107.063 70.3377 106.212 66.9993 98.8142 66.9993H94.3152V78.5942V78.5942ZM94.3152 62.3837H95.8596C102.619 62.3837 105.003 61.017 105.003 57.1632C105.003 54.6986 104.03 52.1892 96.8109 52.1892H94.3152V62.3837V62.3837Z" fill="white"/>
<path d="M133.6 83.2098H113.679V47.5736H133.6V52.2788H118.536V62.9663H133.6V67.6715H118.536V78.5494H133.6V83.2098Z" fill="white"/>
<path d="M161.019 83.2098H155.222L143.65 65.3301H148.283C152.424 65.3301 155.323 62.8095 155.323 59.191C155.323 56.9728 154.528 55.1691 152.961 53.8136C151.182 52.2788 148.787 52.2788 145.485 52.2788H140.93V83.2098H136.095V47.5736H146.448C150.096 47.5736 152.883 47.9209 155.49 49.6686C158.557 51.7075 160.46 55.3372 160.46 59.1461C160.46 64.4675 156.979 68.7918 152.2 69.6544L161.019 83.2098Z" fill="white"/>
<path d="M171.171 83.883C164.747 83.883 160.359 79.413 160.248 72.7586L160.236 72.0864H165.105L165.116 72.7362C165.205 76.5563 167.612 79.0321 171.227 79.0321C175.144 79.0321 177.583 76.6235 177.583 72.7474C177.583 68.5687 174.819 67.7173 170.253 66.3281L169.358 66.0481C163.661 64.2556 161.232 61.5333 161.232 56.929C161.232 51.0475 165.575 46.9473 171.797 46.9473C177.662 46.9473 181.4 50.577 181.78 56.6377L181.825 57.3435H177.08L177.013 56.7497C176.688 53.3665 174.83 51.5068 171.797 51.5068C168.507 51.5068 166.213 53.6577 166.213 56.7273C166.213 58.2845 166.783 59.3488 168.115 60.2898C169.19 61.018 170.678 61.4661 172.413 61.9702C173.353 62.2503 174.327 62.5416 175.345 62.9113C180.404 64.7261 182.564 67.482 182.564 72.12C182.564 79.1554 177.986 83.883 171.171 83.883Z" fill="white"/>
<path d="M185.997 53.13C185.068 53.13 184.195 52.7603 183.535 52.0882C182.875 51.4272 182.505 50.5534 182.505 49.6236C182.505 48.6937 182.875 47.8087 183.546 47.1253C184.207 46.4643 185.046 46.1171 185.997 46.1171C186.971 46.1171 187.833 46.4756 188.493 47.1477C189.142 47.7975 189.5 48.6825 189.5 49.6236C189.5 50.587 189.153 51.4384 188.493 52.0882C187.81 52.7603 186.926 53.13 185.997 53.13ZM185.997 46.8116C185.247 46.8116 184.576 47.0917 184.05 47.6182C183.501 48.1784 183.199 48.8842 183.199 49.6236C183.199 50.3629 183.49 51.0687 184.027 51.5953C184.565 52.133 185.259 52.4243 185.997 52.4243C186.747 52.4243 187.463 52.133 188.012 51.5841C188.538 51.0799 188.806 50.4078 188.806 49.6348C188.806 48.8618 188.527 48.156 188.012 47.6407C187.463 47.1029 186.769 46.8116 185.997 46.8116ZM187.911 51.6625H186.87L186.064 49.9708H185.438V51.6625H184.531V47.4838H186.098C186.534 47.4838 187.855 47.4838 187.855 48.7049C187.855 49.2651 187.53 49.6796 187.027 49.8364L187.911 51.6625ZM185.438 49.2539H185.986C186.781 49.2539 186.926 49.0858 186.926 48.7497C186.926 48.4697 186.848 48.2008 185.986 48.2008H185.438V49.2539Z" fill="white"/>
</svg>
