<svg width="215" height="130" viewBox="0 0 215 130" fill="none" xmlns="http://www.w3.org/2000/svg">
<rect width="215" height="130" fill="black"/>
<path d="M33.5276 69.2198C33.4999 64.923 31.0245 62.7242 26.1664 62.6849H22.392C21.3258 62.6849 20.5697 62.4945 20.0805 62.1025C19.5555 61.6824 19.2892 61.0301 19.2892 60.1635C19.2892 59.274 19.5856 58.6295 20.1699 58.2481C20.7472 57.8714 21.5273 57.7032 22.6989 57.7032H32.1775V53.8409H22.9407C17.8942 53.8835 15 56.2103 15 60.2276C15.0273 64.3613 17.6403 66.6603 22.3613 66.7007H26.0129C27.1153 66.7007 27.8244 66.8564 28.3198 67.2103C28.876 67.5899 29.1464 68.2881 29.1464 69.3452C29.1464 70.2679 28.7723 70.9805 28.0688 71.403C27.4886 71.7419 26.6604 71.9284 25.7368 71.9284H15.4603V75.7907H15.8864H26.235C31.0468 75.7091 33.5005 73.5001 33.5276 69.2252L33.5278 69.2225L33.5276 69.2198Z" fill="white"/>
<path d="M88.4329 53.8409V65.8446C88.4329 68.4386 88.0932 69.9758 87.3014 70.9796C86.4549 72.0181 85.0804 72.4811 82.8447 72.4811C80.6241 72.4811 79.2697 72.0196 78.4576 70.9904C77.7134 70.0145 77.4097 68.5235 77.4097 65.8446V53.8409H72.9058V66.307C72.9356 73.1085 76.019 76.1566 82.9101 76.1899C89.8147 76.1227 92.9072 73.0749 92.937 66.3052V53.8409H88.4329Z" fill="white"/>
<path d="M108.222 71.9284C106.486 71.9284 105.263 71.5362 104.373 70.6938C103.239 69.6208 102.665 67.7105 102.665 65.0154C102.665 62.2099 103.217 60.2783 104.358 59.1054C105.232 58.1827 106.476 57.734 108.161 57.734H116.504V53.8409H107.943C105.311 53.8583 102.912 54.7681 101.19 56.4028C99.148 58.3407 98.0688 61.2763 98.0688 64.8942C98.1089 74.9459 105.614 75.7757 107.916 75.7907H116.535V71.9284H108.222V71.9284Z" fill="white"/>
<path d="M155.205 53.8409V65.8446C155.205 68.4386 154.865 69.9758 154.074 70.9796C153.227 72.0181 151.852 72.4811 149.617 72.4811C147.396 72.4811 146.042 72.0196 145.23 70.9904C144.485 70.0145 144.182 68.5235 144.182 65.8446V53.8409H139.678V66.307C139.708 73.1085 142.791 76.1566 149.682 76.1899C156.587 76.1227 159.679 73.0749 159.709 66.3052V53.8409H155.205Z" fill="white"/>
<path d="M50.988 57.5805V53.8409H36.8486V57.6111H39.3035V66.8636C39.3886 73.1454 41.7162 75.7226 47.337 75.7598H50.3129V71.8975H47.9228C46.2785 71.8975 45.3239 71.5704 44.7309 70.8038C44.0969 69.9842 43.8382 68.734 43.8382 66.4893V57.5805H50.988Z" fill="white"/>
<path d="M135.223 57.5805V53.8409H121.083V57.6111H123.538V66.8597C123.566 73.0614 125.96 75.7229 131.541 75.7598H134.517V71.8975H132.127C130.483 71.8975 129.528 71.5704 128.935 70.8041C128.301 69.9839 128.042 68.7337 128.042 66.4893V57.5805H135.223Z" fill="white"/>
<path d="M192.056 53.8102H182.025V57.6725H191.661C191.685 57.6722 191.709 57.6722 191.733 57.6722C194.324 57.6722 195.397 59.0046 195.522 62.3777H187.413C184.09 62.4506 179.668 63.2231 179.631 69.0662V69.0716C179.659 73.47 182.269 75.7201 187.392 75.7597H200V63.2318C199.967 57.0106 197.295 53.8408 192.056 53.8102ZM195.496 66.0253V71.9895H187.637C186.557 71.9895 185.756 71.7859 185.19 71.3666C184.551 70.8943 184.227 70.1005 184.227 69.0074C184.227 67.8948 184.525 67.1208 185.138 66.641C185.682 66.2151 186.452 66.0253 187.637 66.0253H195.496V66.0253Z" fill="white"/>
<path d="M66.3318 53.8409C63.2711 53.8586 60.6585 54.6815 58.7765 56.2211C56.4633 58.1128 55.2905 60.9992 55.2905 64.8003V75.7598H59.5797V65.2304C59.5797 62.6112 60.1059 60.756 61.1875 59.5598C62.2696 58.3686 64.0424 57.7646 66.4569 57.7646H68.2639V53.8409H66.3318Z" fill="white"/>
<path d="M175.698 53.8409C172.637 53.8586 170.024 54.6815 168.142 56.2211C165.829 58.1128 164.657 60.9992 164.657 64.7946C164.596 69.4432 164.625 75.2773 164.626 75.3355L164.628 75.7598H168.946V65.2304C168.946 62.6112 169.472 60.756 170.553 59.5598C171.635 58.3686 173.408 57.7646 175.823 57.7646H177.63V53.8409H175.698Z" fill="white"/>
<path d="M66.0277 58.9389C64.4899 58.9389 63.2388 60.1909 63.2388 61.73C63.2388 63.269 64.4899 64.521 66.0277 64.521C67.5656 64.521 68.8167 63.269 68.8167 61.73C68.8167 60.1909 67.5656 58.9389 66.0277 58.9389Z" fill="white"/>
</svg>
