<svg width="21" height="20" viewBox="0 0 21 20" fill="none" xmlns="http://www.w3.org/2000/svg">
<path fill-rule="evenodd" clip-rule="evenodd" d="M10.1484 0.869141C5.11986 0.869141 1.0293 4.96479 1.0293 9.99957C1.0293 15.0344 5.11986 19.13 10.1484 19.13C15.1769 19.13 19.2675 15.0344 19.2675 9.99957C19.2675 4.96479 15.1769 0.869141 10.1484 0.869141ZM10.1497 20C4.64261 20 0.162109 15.5139 0.162109 10C0.162109 4.48609 4.64261 0 10.1497 0C15.6567 0 20.1372 4.48609 20.1372 10C20.1372 15.5139 15.6567 20 10.1497 20Z" fill="white"/>
<path fill-rule="evenodd" clip-rule="evenodd" d="M15.3608 15.6475C15.1211 15.6475 14.9266 15.4527 14.9266 15.2127C14.9266 12.5762 12.7832 10.4301 10.15 10.4301C7.51675 10.4301 5.37336 12.5762 5.37336 15.2127C5.37336 15.4527 5.17882 15.6475 4.93912 15.6475C4.69942 15.6475 4.50488 15.4527 4.50488 15.2127C4.50488 12.0962 7.03735 9.56055 10.15 9.56055C13.2626 9.56055 15.795 12.0962 15.795 15.2127C15.795 15.4527 15.6005 15.6475 15.3608 15.6475Z" fill="white"/>
<path fill-rule="evenodd" clip-rule="evenodd" d="M10.1531 3.47656C8.9555 3.47656 7.98193 4.45134 7.98193 5.65047C7.98193 6.8496 8.9555 7.82439 10.1531 7.82439C11.3508 7.82439 12.3243 6.8496 12.3243 5.65047C12.3243 4.45134 11.3508 3.47656 10.1531 3.47656ZM10.15 8.69438C8.47386 8.69438 7.11035 7.32916 7.11035 5.6509C7.11035 3.97264 8.47386 2.60742 10.15 2.60742C11.8262 2.60742 13.1897 3.97264 13.1897 5.6509C13.1897 7.32916 11.8262 8.69438 10.15 8.69438Z" fill="white"/>
</svg>
