<svg width="61" height="61" viewBox="0 0 61 61" fill="none" xmlns="http://www.w3.org/2000/svg">
<path fill-rule="evenodd" clip-rule="evenodd" d="M47.0163 50.831C44.9143 50.831 43.2037 52.5339 43.2037 54.6436C43.2037 56.7532 44.9143 58.4562 47.0163 58.4562C49.1183 58.4562 50.8289 56.7532 50.8289 54.6436C50.8289 52.5339 49.1183 50.831 47.0163 50.831ZM47.0184 61.0002C43.5159 61.0002 40.6641 58.1534 40.6641 54.6458C40.6641 51.1382 43.5159 48.2915 47.0184 48.2915C50.5209 48.2915 53.3727 51.1382 53.3727 54.6458C53.3727 58.1534 50.5209 61.0002 47.0184 61.0002Z" fill="white"/>
<path fill-rule="evenodd" clip-rule="evenodd" d="M21.6031 50.831C19.5011 50.831 17.7905 52.5339 17.7905 54.6436C17.7905 56.7532 19.5011 58.4562 21.6031 58.4562C23.7052 58.4562 25.4157 56.7532 25.4157 54.6436C25.4157 52.5339 23.7052 50.831 21.6031 50.831ZM21.6043 61.0002C18.1018 61.0002 15.25 58.1534 15.25 54.6458C15.25 51.1382 18.1018 48.2915 21.6043 48.2915C25.1068 48.2915 27.9587 51.1382 27.9587 54.6458C27.9587 58.1534 25.1068 61.0002 21.6043 61.0002Z" fill="white"/>
<path fill-rule="evenodd" clip-rule="evenodd" d="M52.1035 45.7487H22.7705C18.5463 45.7487 14.8787 42.7495 14.0476 38.6067L7.85365 7.62415H1.27082C0.569326 7.62415 0 7.06499 0 6.35334C0 5.64168 0.569326 5.08252 1.27082 5.08252H8.89572C9.50063 5.08252 10.0217 5.5146 10.1411 6.09917L16.5409 38.0983C17.1332 41.0466 19.7536 43.207 22.7705 43.207H52.1035C52.805 43.207 53.3743 43.7662 53.3743 44.4778C53.3743 45.1895 52.805 45.7487 52.1035 45.7487Z" fill="white"/>
<path fill-rule="evenodd" clip-rule="evenodd" d="M16.5217 40.6683C15.8914 40.6683 15.3474 40.2108 15.261 39.5754C15.1695 38.8638 15.6575 38.2284 16.3539 38.1267L53.6219 33.1705L54.6843 28.926C54.8546 28.2397 55.5434 27.8331 56.2245 28.011C56.9057 28.1635 57.32 28.8497 57.1497 29.536L55.8789 34.6192C55.7518 35.1276 55.3299 35.5088 54.8139 35.5851L16.6894 40.6683C16.631 40.6683 16.5776 40.6683 16.5217 40.6683Z" fill="white"/>
<path fill-rule="evenodd" clip-rule="evenodd" d="M29.228 15.2497H11.4359C10.7344 15.2497 10.165 14.6906 10.165 13.9789C10.165 13.2672 10.7344 12.708 11.4359 12.708H29.228C29.9295 12.708 30.4989 13.2672 30.4989 13.9789C30.4989 14.6906 29.9295 15.2497 29.228 15.2497Z" fill="white"/>
<path fill-rule="evenodd" clip-rule="evenodd" d="M47.0172 2.54224C40.7112 2.54224 35.5795 7.67654 35.5795 13.98C35.5795 20.2835 40.7112 25.4178 47.0172 25.4178C53.3233 25.4178 58.455 20.2835 58.455 13.98C58.455 7.67654 53.3233 2.54224 47.0172 2.54224ZM47.019 27.958C39.3102 27.958 33.04 21.6801 33.04 13.979C33.04 6.27783 39.3102 0 47.019 0C54.7278 0 60.998 6.27783 60.998 13.979C60.998 21.6801 54.7278 27.958 47.019 27.958Z" fill="white"/>
<path fill-rule="evenodd" clip-rule="evenodd" d="M44.4784 20.3332C44.153 20.3332 43.8277 20.2061 43.5786 19.9519L38.4977 14.8684C37.9995 14.3855 37.9995 13.5722 38.4977 13.0892C38.9933 12.5809 39.7965 12.5809 40.2921 13.0892L44.4784 17.2577L53.748 8.00577C54.2437 7.49743 55.0469 7.49743 55.5425 8.00577C56.0407 8.4887 56.0407 9.30206 55.5425 9.78498L45.3756 19.9519C45.129 20.2061 44.8037 20.3332 44.4784 20.3332Z" fill="white"/>
</svg>
