<svg width="70" height="70" viewBox="0 0 70 70" fill="none" xmlns="http://www.w3.org/2000/svg">
<path fill-rule="evenodd" clip-rule="evenodd" d="M18.7721 18.2616C18.4951 18.2616 18.2638 18.4929 18.2638 18.7698C18.2638 36.9516 33.0521 51.7398 51.2338 51.7398C51.5108 51.7398 51.7421 51.5085 51.7421 51.2346V44.1524C51.7421 43.8785 51.5108 43.6442 51.2338 43.6442C48.5891 43.6442 45.9899 43.2303 43.5156 42.4116C43.3147 42.3507 43.1321 42.3994 43.0012 42.5272L37.9521 46.362C37.4804 46.715 36.8534 46.7668 36.3391 46.502C30.2825 43.3977 26.5634 39.6785 23.5047 33.6616C23.2399 33.1442 23.2917 32.5203 23.6447 32.0546L27.3334 27.1668C27.6834 26.7985 27.6347 26.5642 27.6073 26.4698C26.7977 24.0168 26.3808 21.4207 26.3808 18.7698C26.3808 18.4929 26.1495 18.2616 25.8725 18.2616H18.7721ZM51.2313 54.784C31.3756 54.784 15.2178 38.6292 15.2178 18.7705C15.2178 16.8135 16.8095 15.2188 18.7695 15.2188H25.8699C27.8299 15.2188 29.4217 16.8135 29.4217 18.7705C29.4217 21.0927 29.7839 23.3722 30.4991 25.5361C30.9069 26.8327 30.5691 28.2144 29.6226 29.1579L26.6521 33.1205C29.1873 37.8074 32.1578 40.7809 36.8843 43.3496L41.0021 40.2422C41.7873 39.4296 43.2208 39.0948 44.4808 39.527C46.6356 40.2392 48.9121 40.6014 51.2313 40.6014C53.1913 40.6014 54.783 42.1961 54.783 44.1531V51.2353C54.783 53.1922 53.1913 54.784 51.2313 54.784Z" fill="white"/>
<path fill-rule="evenodd" clip-rule="evenodd" d="M35 70C15.7013 70 0 54.3017 0 35C0 15.7013 15.7013 0 35 0C54.2987 0 70 15.7013 70 35C70 35.843 69.3183 36.5217 68.4783 36.5217C67.6383 36.5217 66.9565 35.843 66.9565 35C66.9565 17.3813 52.6217 3.04348 35 3.04348C17.3783 3.04348 3.04348 17.3813 3.04348 35C3.04348 52.6217 17.3783 66.9565 35 66.9565C45.6065 66.9565 55.9117 61.5604 59.5 54.1222C60.1817 52.7039 60.2548 51.5717 59.7039 50.7591C58.8304 49.4596 56.3744 48.7748 53.3613 48.9787C52.5609 49.0274 51.8 48.4004 51.7422 47.5604C51.6874 46.7204 52.3204 45.9961 53.1604 45.9413C57.4213 45.6765 60.7052 46.7996 62.227 49.0548C63.0517 50.2752 63.7213 52.3752 62.2391 55.4461C58.17 63.8796 46.7174 70 35 70Z" fill="white"/>
</svg>
