<svg width="60" height="61" viewBox="0 0 60 61" fill="none" xmlns="http://www.w3.org/2000/svg">
<path fill-rule="evenodd" clip-rule="evenodd" d="M3.91071 2.50065C3.1933 2.50065 2.60632 3.06067 2.60632 3.75069V56.2521C2.60632 56.9421 3.1933 57.5021 3.91071 57.5021H14.3458C15.0632 57.5021 15.6502 56.9421 15.6502 56.2521V3.75069C15.6502 3.06067 15.0632 2.50065 14.3458 2.50065H3.91071ZM14.3482 60.0016H3.91315C1.7557 60.0016 0 58.3191 0 56.2515V3.7501C0 1.68255 1.7557 0 3.91315 0H14.3482C16.5057 0 18.2614 1.68255 18.2614 3.7501V56.2515C18.2614 58.3191 16.5057 60.0016 14.3482 60.0016Z" fill="white"/>
<path fill-rule="evenodd" clip-rule="evenodd" d="M9.13122 50C8.41381 50 7.82683 50.56 7.82683 51.25C7.82683 51.9401 8.41381 52.5001 9.13122 52.5001C9.84863 52.5001 10.4356 51.9401 10.4356 51.25C10.4356 50.56 9.84863 50 9.13122 50ZM9.12897 55.0017C6.97152 55.0017 5.21582 53.3191 5.21582 51.2516C5.21582 49.184 6.97152 47.5015 9.12897 47.5015C11.2864 47.5015 13.0421 49.184 13.0421 51.2516C13.0421 53.3191 11.2864 55.0017 9.12897 55.0017Z" fill="white"/>
<path fill-rule="evenodd" clip-rule="evenodd" d="M24.7794 2.50065C24.062 2.50065 23.475 3.06067 23.475 3.75069V56.2521C23.475 56.9421 24.062 57.5021 24.7794 57.5021H35.2144C35.9318 57.5021 36.5188 56.9421 36.5188 56.2521V3.75069C36.5188 3.06067 35.9318 2.50065 35.2144 2.50065H24.7794ZM35.2174 60.0016H24.7823C22.6248 60.0016 20.8691 58.3191 20.8691 56.2515V3.7501C20.8691 1.68255 22.6248 0 24.7823 0H35.2174C37.3748 0 39.1305 1.68255 39.1305 3.7501V56.2515C39.1305 58.3191 37.3748 60.0016 35.2174 60.0016Z" fill="white"/>
<path fill-rule="evenodd" clip-rule="evenodd" d="M30.0003 50C29.2829 50 28.696 50.56 28.696 51.25C28.696 51.9401 29.2829 52.5001 30.0003 52.5001C30.7178 52.5001 31.3047 51.9401 31.3047 51.25C31.3047 50.56 30.7178 50 30.0003 50ZM29.9981 55.0017C27.8407 55.0017 26.085 53.3191 26.085 51.2516C26.085 49.184 27.8407 47.5015 29.9981 47.5015C32.1556 47.5015 33.9113 49.184 33.9113 51.2516C33.9113 53.3191 32.1556 55.0017 29.9981 55.0017Z" fill="white"/>
<path fill-rule="evenodd" clip-rule="evenodd" d="M45.648 2.50065C44.9306 2.50065 44.3437 3.06067 44.3437 3.75069V56.2521C44.3437 56.9421 44.9306 57.5021 45.648 57.5021H56.0831C56.8005 57.5021 57.3875 56.9421 57.3875 56.2521V3.75069C57.3875 3.06067 56.8005 2.50065 56.0831 2.50065H45.648ZM56.0865 60.0016H45.6514C43.494 60.0016 41.7383 58.3191 41.7383 56.2515V3.7501C41.7383 1.68255 43.494 0 45.6514 0H56.0865C58.2439 0 59.9996 1.68255 59.9996 3.7501V56.2515C59.9996 58.3191 58.2439 60.0016 56.0865 60.0016Z" fill="white"/>
<path fill-rule="evenodd" clip-rule="evenodd" d="M50.8736 50C50.1562 50 49.5692 50.56 49.5692 51.25C49.5692 51.9401 50.1562 52.5001 50.8736 52.5001C51.591 52.5001 52.178 51.9401 52.178 51.25C52.178 50.56 51.591 50 50.8736 50ZM50.876 55.0017C48.7186 55.0017 46.9629 53.3191 46.9629 51.2516C46.9629 49.184 48.7186 47.5015 50.876 47.5015C53.0335 47.5015 54.7892 49.184 54.7892 51.2516C54.7892 53.3191 53.0335 55.0017 50.876 55.0017Z" fill="white"/>
<path fill-rule="evenodd" clip-rule="evenodd" d="M7.82683 19.9997H10.4356V7.49935H7.82683V19.9997ZM11.7377 22.499H6.5202C5.80018 22.499 5.21582 21.939 5.21582 21.249V6.24857C5.21582 5.55855 5.80018 4.99854 6.5202 4.99854H11.7377C12.4604 4.99854 13.0421 5.55855 13.0421 6.24857V21.249C13.0421 21.939 12.4604 22.499 11.7377 22.499Z" fill="white"/>
<path fill-rule="evenodd" clip-rule="evenodd" d="M28.696 19.9997H31.3047V7.49935H28.696V19.9997ZM32.6069 22.499H27.3893C26.6693 22.499 26.085 21.939 26.085 21.249V6.24857C26.085 5.55855 26.6693 4.99854 27.3893 4.99854H32.6069C33.3295 4.99854 33.9113 5.55855 33.9113 6.24857V21.249C33.9113 21.939 33.3295 22.499 32.6069 22.499Z" fill="white"/>
<path fill-rule="evenodd" clip-rule="evenodd" d="M49.5692 19.9997H52.178V7.49935H49.5692V19.9997ZM53.4848 22.499H48.2673C47.5473 22.499 46.9629 21.939 46.9629 21.249V6.24857C46.9629 5.55855 47.5473 4.99854 48.2673 4.99854H53.4848C54.2074 4.99854 54.7892 5.55855 54.7892 6.24857V21.249C54.7892 21.939 54.2074 22.499 53.4848 22.499Z" fill="white"/>
</svg>
