<svg width="66" height="45" viewBox="0 0 66 45" fill="none" xmlns="http://www.w3.org/2000/svg">
<path fill-rule="evenodd" clip-rule="evenodd" d="M61.8747 16.5014C62.631 16.5014 63.2498 15.8689 63.2498 15.1264C63.2498 14.3563 62.631 13.7513 61.8747 13.7513C61.1184 13.7513 60.4996 14.3563 60.4996 15.1264C60.4996 15.8689 61.1184 16.5014 61.8747 16.5014ZM61.8748 11.001C64.1492 11.001 66 12.8436 66 15.1263C66 17.4089 64.1492 19.2515 61.8748 19.2515C59.6004 19.2515 57.7496 17.4089 57.7496 15.1263C57.7496 12.8436 59.6004 11.001 61.8748 11.001Z" fill="white"/>
<path fill-rule="evenodd" clip-rule="evenodd" d="M50.8806 5.50039C51.6369 5.50039 52.2556 4.86786 52.2556 4.12532C52.2556 3.35528 51.6369 2.75025 50.8806 2.75025C50.1243 2.75025 49.5055 3.35528 49.5055 4.12532C49.5055 4.86786 50.1243 5.50039 50.8806 5.50039ZM50.8806 6.99789e-05C53.155 6.978e-05 55.0059 1.84266 55.0059 4.12528C55.0059 6.40789 53.155 8.25049 50.8807 8.25049C48.6063 8.25049 46.7554 6.4079 46.7554 4.12528C46.7554 1.84266 48.6063 7.01777e-05 50.8806 6.99789e-05Z" fill="white"/>
<path fill-rule="evenodd" clip-rule="evenodd" d="M9.6261 33.0036C10.3824 33.0036 11.0012 32.3711 11.0012 31.6285C11.0012 30.8585 10.3824 30.2535 9.6261 30.2535C8.86981 30.2535 8.25103 30.8585 8.25103 31.6285C8.25103 32.3711 8.86981 33.0036 9.6261 33.0036ZM9.62577 27.5023C11.9001 27.5023 13.751 29.3449 13.751 31.6275C13.751 33.9101 11.9001 35.7527 9.62577 35.7527C7.3514 35.7527 5.50056 33.9101 5.50056 31.6275C5.50056 29.3449 7.3514 27.5023 9.62577 27.5023Z" fill="white"/>
<path fill-rule="evenodd" clip-rule="evenodd" d="M4.12497 16.5014C4.88126 16.5014 5.50004 15.8689 5.50004 15.1264C5.50004 14.3563 4.88126 13.7513 4.12497 13.7513C3.36868 13.7513 2.7499 14.3563 2.7499 15.1264C2.7499 15.8689 3.36868 16.5014 4.12497 16.5014ZM4.12479 11.0006C6.39916 11.0006 8.25 12.8432 8.25 15.1258C8.25 17.4084 6.39916 19.251 4.12479 19.251C1.85043 19.251 -0.000418824 17.4084 -0.000419024 15.1258C-0.000419223 12.8432 1.85042 11.0006 4.12479 11.0006Z" fill="white"/>
<path fill-rule="evenodd" clip-rule="evenodd" d="M48.1293 13.7508L59.1298 13.7508C59.8889 13.7508 60.5049 14.3559 60.5049 15.1259C60.5049 15.8959 59.8889 16.501 59.1298 16.501L48.1293 16.501C47.3702 16.501 46.7542 15.8959 46.7542 15.1259C46.7542 14.3559 47.3702 13.7508 48.1293 13.7508Z" fill="white"/>
<path fill-rule="evenodd" clip-rule="evenodd" d="M6.87228 13.7508L20.623 13.7508C21.382 13.7508 21.998 14.3559 21.998 15.1259C21.998 15.8959 21.382 16.501 20.623 16.501L6.87228 16.501C6.11324 16.501 5.49721 15.8959 5.49721 15.1259C5.49721 14.3559 6.11324 13.7508 6.87228 13.7508Z" fill="white"/>
<path fill-rule="evenodd" clip-rule="evenodd" d="M34.3793 19.254C38.1057 19.254 41.2546 17.3564 41.2546 15.1288C41.2546 12.9011 38.1057 11.0035 34.3793 11.0035C30.6528 11.0035 27.5039 12.9011 27.5039 15.1288C27.5039 17.3564 30.6528 19.254 34.3793 19.254ZM34.3794 8.2515C39.7779 8.2515 44.0049 11.2767 44.0049 15.1268C44.0049 18.977 39.7779 22.0022 34.3794 22.0022C28.9809 22.0022 24.7539 18.977 24.7539 15.1269C24.7539 11.2767 28.9809 8.2515 34.3794 8.2515Z" fill="white"/>
<path fill-rule="evenodd" clip-rule="evenodd" d="M34.3751 41.2519C36.6494 41.2519 38.5003 39.4093 38.5003 37.1267C38.5003 34.8441 36.6494 33.0015 34.3751 33.0015C32.1007 33.0015 30.2498 34.8441 30.2498 37.1267C30.2498 39.4093 32.1007 41.2519 34.3751 41.2519ZM34.3776 30.2527C38.17 30.2527 41.2529 33.3329 41.2529 37.1281C41.2529 40.9233 38.17 44.0034 34.3776 44.0034C30.5851 44.0034 27.5022 40.9233 27.5022 37.1281C27.5022 33.3329 30.5851 30.2527 34.3776 30.2527Z" fill="white"/>
<path fill-rule="evenodd" clip-rule="evenodd" d="M34.3779 24.752C35.1369 24.752 35.7529 25.3571 35.7529 26.1271L35.7529 31.6274C35.7529 32.3974 35.1369 33.0024 34.3779 33.0024C33.6188 33.0024 33.0028 32.3974 33.0028 31.6274L33.0028 26.1271C33.0028 25.3571 33.6188 24.752 34.3779 24.752Z" fill="white"/>
<path fill-rule="evenodd" clip-rule="evenodd" d="M48.1294 5.49811C48.6326 5.49811 49.1167 5.77312 49.3587 6.26815C49.697 6.92818 49.4247 7.75322 48.7454 8.11074L45.9953 9.48581C45.3132 9.81583 44.4909 9.54081 44.1499 8.85328C43.8117 8.19324 44.0839 7.3682 44.7632 7.01068L47.5133 5.63561C47.7141 5.55311 47.9231 5.49811 48.1294 5.49811Z" fill="white"/>
<path fill-rule="evenodd" clip-rule="evenodd" d="M23.3772 20.6205C23.8338 20.6205 24.282 20.8405 24.5433 21.253C24.9448 21.913 24.7496 22.7656 24.106 23.1506L13.1055 30.0259C12.4619 30.4385 11.6149 30.2459 11.2106 29.5859C10.8091 28.9534 11.0044 28.1008 11.6479 27.7158L22.6485 20.8405C22.874 20.6755 23.127 20.6205 23.3772 20.6205Z" fill="white"/>
<path fill-rule="evenodd" clip-rule="evenodd" d="M22.0026 5.50014L23.3777 5.50014L22.0026 5.50014ZM22.0018 2.74972C23.5199 2.74972 24.752 3.98728 24.752 5.49986C24.752 7.01244 23.5199 8.25 22.0018 8.25C20.4837 8.25 19.2517 7.01244 19.2517 5.49986C19.2517 3.98728 20.4837 2.74972 22.0018 2.74972Z" fill="white"/>
<path fill-rule="evenodd" clip-rule="evenodd" d="M23.3722 5.49979C23.7242 5.49979 24.0763 5.6373 24.3458 5.91231L25.7208 7.28738C26.2571 7.80991 26.2571 8.68995 25.7208 9.21248C25.1818 9.76251 24.3128 9.76251 23.7737 9.21248L22.3987 7.83741C21.8624 7.31488 21.8624 6.43484 22.3987 5.91231C22.6682 5.6373 23.0202 5.49979 23.3722 5.49979Z" fill="white"/>
<path fill-rule="evenodd" clip-rule="evenodd" d="M55.0047 27.5022C56.5228 27.5022 57.7549 28.7397 57.7549 30.2523C57.7549 31.7649 56.5228 33.0024 55.0047 33.0024C53.4867 33.0024 52.2546 31.7649 52.2546 30.2523C52.2546 28.7397 53.4867 27.5022 55.0047 27.5022Z" fill="white"/>
<path fill-rule="evenodd" clip-rule="evenodd" d="M44.004 20.6259C44.2818 20.6259 44.5595 20.7084 44.8043 20.8734L54.4298 27.7488C55.0486 28.1888 55.1888 29.0413 54.7488 29.6739C54.306 30.2789 53.4535 30.4164 52.8292 30.0039L43.2037 23.1285C42.5849 22.6885 42.4447 21.8085 42.8847 21.2034C43.1515 20.8184 43.5777 20.6259 44.004 20.6259Z" fill="white"/>
</svg>
