<svg width="58" height="68" viewBox="0 0 58 68" fill="none" xmlns="http://www.w3.org/2000/svg">
<path fill-rule="evenodd" clip-rule="evenodd" d="M26.2398 44.678C25.8863 44.678 25.5328 44.5384 25.2621 44.2591L14.2145 33.0887C13.6759 32.5582 13.6759 31.6645 14.2145 31.1339C14.7558 30.5754 15.6286 30.5754 16.1699 31.1339L26.2398 41.299L44.5954 22.7478C45.1368 22.2032 46.0095 22.2032 46.5509 22.7478C47.0894 23.2923 47.0894 24.1776 46.5509 24.7221L27.2175 44.2591C26.9469 44.5384 26.5933 44.678 26.2398 44.678Z" fill="white"/>
<path fill-rule="evenodd" clip-rule="evenodd" d="M2.75905 10.8151V40.492C2.75905 50.294 18.1235 60.5986 28.9971 64.1732C39.8708 60.5986 55.2352 50.294 55.2352 40.492V10.8151L28.9971 2.8534L2.75905 10.8151ZM29 67.0222C28.8619 67.0222 28.721 66.9943 28.5912 66.9664C18.6208 63.8107 0 52.8359 0 40.4926V9.77407C0 9.1597 0.400476 8.61515 0.983238 8.43642L28.6023 0.0586445C28.8619 -0.0195481 29.1381 -0.0195481 29.3977 0.0586445L57.0168 8.43642C57.5995 8.61515 58 9.1597 58 9.77407V40.4926C58 52.8359 39.3792 63.8107 29.4088 66.9664C29.279 66.9943 29.1381 67.0222 29 67.0222Z" fill="white"/>
</svg>
