<svg width="32" height="32" viewBox="0 0 32 32" fill="none" xmlns="http://www.w3.org/2000/svg">
<path fill-rule="evenodd" clip-rule="evenodd" d="M9.39211 0.0958823C11.0962 0.0174331 11.6395 0 15.9804 0C20.3212 0 20.8646 0.0188859 22.5672 0.0958823C24.2698 0.172879 25.4321 0.444545 26.449 0.838244C27.5139 1.24066 28.48 1.86971 29.279 2.68325C30.0925 3.48082 30.7201 4.44545 31.1211 5.51178C31.5162 6.52871 31.7864 7.69093 31.8649 9.39066C31.9433 11.0977 31.9608 11.641 31.9608 15.9804C31.9608 20.3212 31.9419 20.8646 31.8649 22.5687C31.7879 24.2684 31.5162 25.4306 31.1211 26.4475C30.7201 27.514 30.0915 28.4802 29.279 29.279C28.48 30.0925 27.5139 30.7201 26.449 31.1211C25.4321 31.5162 24.2698 31.7864 22.5701 31.8649C20.8646 31.9433 20.3212 31.9608 15.9804 31.9608C11.6395 31.9608 11.0962 31.9419 9.39211 31.8649C7.69238 31.7879 6.53017 31.5162 5.51323 31.1211C4.44679 30.7201 3.48056 30.0914 2.6818 29.279C1.8688 28.4809 1.23966 27.5152 0.838244 26.449C0.444545 25.4321 0.174331 24.2698 0.0958823 22.5701C0.0174331 20.8631 0 20.3198 0 15.9804C0 11.6395 0.0188859 11.0962 0.0958823 9.39356C0.172879 7.69092 0.444545 6.52871 0.838244 5.51178C1.24026 4.44557 1.86988 3.47982 2.68325 2.6818C3.48088 1.86898 4.44614 1.23985 5.51178 0.838244C6.52871 0.444545 7.69093 0.174331 9.39066 0.0958823H9.39211ZM22.4379 2.97235C20.7527 2.89536 20.2472 2.87938 15.9804 2.87938C11.7136 2.87938 11.2081 2.89536 9.52286 2.97235C7.96404 3.04354 7.11854 3.30358 6.55486 3.52295C5.8096 3.8135 5.27643 4.15781 4.71712 4.71712C4.18693 5.23293 3.7789 5.86085 3.52295 6.55486C3.30358 7.11854 3.04354 7.96404 2.97235 9.52286C2.89536 11.2081 2.87938 11.7136 2.87938 15.9804C2.87938 20.2472 2.89536 20.7527 2.97235 22.4379C3.04354 23.9967 3.30358 24.8422 3.52295 25.4059C3.77864 26.0989 4.18686 26.7279 4.71712 27.2437C5.23285 27.7739 5.8619 28.1821 6.55486 28.4378C7.11854 28.6572 7.96404 28.9172 9.52286 28.9884C11.2081 29.0654 11.7122 29.0814 15.9804 29.0814C20.2486 29.0814 20.7527 29.0654 22.4379 28.9884C23.9967 28.9172 24.8422 28.6572 25.4059 28.4378C26.1512 28.1473 26.6843 27.803 27.2437 27.2437C27.7739 26.7279 28.1821 26.0989 28.4378 25.4059C28.6572 24.8422 28.9172 23.9967 28.9884 22.4379C29.0654 20.7527 29.0814 20.2472 29.0814 15.9804C29.0814 11.7136 29.0654 11.2081 28.9884 9.52286C28.9172 7.96404 28.6572 7.11854 28.4378 6.55486C28.1473 5.8096 27.803 5.27643 27.2437 4.71712C26.7278 4.18696 26.0999 3.77894 25.4059 3.52295C24.8422 3.30358 23.9967 3.04354 22.4379 2.97235ZM13.9393 20.9067C15.0792 21.3812 16.3485 21.4453 17.5304 21.0879C18.7123 20.7305 19.7334 19.9739 20.4195 18.9473C21.1055 17.9207 21.4138 16.6877 21.2918 15.459C21.1697 14.2303 20.6249 13.0821 19.7503 12.2105C19.1928 11.6533 18.5187 11.2267 17.7765 10.9613C17.0343 10.6959 16.2425 10.5984 15.4581 10.6758C14.6737 10.7532 13.9162 11.0035 13.2402 11.4087C12.5642 11.814 11.9864 12.3641 11.5484 13.0194C11.1105 13.6748 10.8234 14.4191 10.7076 15.1987C10.5919 15.9784 10.6504 16.774 10.8791 17.5283C11.1077 18.2826 11.5008 18.9769 12.0299 19.561C12.5591 20.1452 13.2112 20.6048 13.9393 20.9067ZM10.1722 10.1722C10.935 9.40951 11.8405 8.80447 12.837 8.39168C13.8336 7.97889 14.9017 7.76643 15.9804 7.76643C17.0591 7.76643 18.1272 7.97889 19.1237 8.39168C20.1203 8.80447 21.0258 9.40951 21.7885 10.1722C22.5513 10.935 23.1563 11.8405 23.5691 12.837C23.9819 13.8336 24.1943 14.9017 24.1943 15.9804C24.1943 17.0591 23.9819 18.1272 23.5691 19.1237C23.1563 20.1203 22.5513 21.0258 21.7885 21.7885C20.2481 23.3289 18.1589 24.1943 15.9804 24.1943C13.8019 24.1943 11.7127 23.3289 10.1722 21.7885C8.63183 20.2481 7.76643 18.1589 7.76643 15.9804C7.76643 13.8019 8.63183 11.7127 10.1722 10.1722ZM26.0161 8.98969C26.2051 8.8114 26.3564 8.59698 26.4611 8.35916C26.5657 8.12133 26.6216 7.86492 26.6254 7.60511C26.6292 7.3453 26.5808 7.08737 26.4831 6.84659C26.3854 6.60582 26.2404 6.38709 26.0567 6.20335C25.873 6.01962 25.6542 5.87462 25.4135 5.77694C25.1727 5.67925 24.9147 5.63087 24.6549 5.63466C24.3951 5.63845 24.1387 5.69433 23.9009 5.79899C23.6631 5.90365 23.4486 6.05496 23.2703 6.24397C22.9236 6.61156 22.7337 7.09983 22.7411 7.60511C22.7485 8.11039 22.9525 8.59291 23.3098 8.95024C23.6671 9.30757 24.1496 9.51157 24.6549 9.51893C25.1602 9.5263 25.6485 9.33645 26.0161 8.98969Z" fill="black"/>
</svg>
