<svg width="33" height="32" viewBox="0 0 33 32" fill="none" xmlns="http://www.w3.org/2000/svg">
<path d="M4.96105 11.4647C4.96105 10.0829 5.2026 8.77745 5.67859 7.55905C6.13337 6.37564 6.80903 5.28951 7.66959 4.35854C8.52839 3.43978 9.51116 2.64532 10.5895 1.99811C11.6958 1.32879 12.8936 0.823842 14.1452 0.499089C15.4119 0.166465 16.7163 -0.00128123 18.026 7.36775e-06C20.0489 7.36775e-06 21.9316 0.428045 23.6775 1.28057C25.4006 2.11755 26.8673 3.40201 27.9241 4.9997C29.0147 6.62483 29.5564 8.46308 29.5564 10.5127C29.5564 11.7417 29.4356 12.9442 29.1887 14.1199C28.9463 15.2951 28.561 16.4361 28.0414 17.5176C27.5461 18.5645 26.8985 19.5323 26.1196 20.3895C25.3369 21.2331 24.3889 21.9066 23.3347 22.3681C22.1902 22.8697 20.9521 23.1221 19.7026 23.1087C18.8341 23.1087 17.9674 22.9045 17.1113 22.4942C16.2552 22.0857 15.6407 21.5245 15.2713 20.8051C15.1416 21.3042 14.964 22.0253 14.7278 22.9684C14.5004 23.9097 14.3477 24.5172 14.2802 24.7925C14.2092 25.066 14.0777 25.5224 13.8859 26.1547C13.7558 26.6224 13.5889 27.0791 13.3868 27.5205L12.7759 28.7176C12.5116 29.2313 12.2162 29.7284 11.8914 30.206C11.5699 30.6713 11.172 31.2272 10.6978 31.8666L10.4332 31.9608L10.2574 31.769C10.0673 29.7566 9.96963 28.5525 9.96963 28.1546C9.96963 26.9771 10.1099 25.6556 10.387 24.1886C10.6588 22.7233 11.0886 20.8815 11.6658 18.6667C12.243 16.4537 12.5734 15.1518 12.6622 14.7664C12.2555 13.937 12.0494 12.8536 12.0494 11.5215C12.0494 10.4576 12.3816 9.46125 13.0476 8.52347C13.7154 7.58925 14.559 7.12213 15.5821 7.12213C16.3653 7.12213 16.9728 7.38144 17.4079 7.90184C17.8448 8.42046 18.058 9.07406 18.058 9.87152C18.058 10.7169 17.7773 11.9407 17.2125 13.5409C16.6477 15.143 16.3671 16.3383 16.3671 17.1322C16.3671 17.9368 16.6548 18.6099 17.2303 19.1374C17.7982 19.6652 18.5492 19.9512 19.3243 19.9349C20.0276 19.9349 20.6795 19.775 21.2851 19.4535C21.8813 19.1415 22.3973 18.6959 22.793 18.1517C23.6548 16.9693 24.2692 15.6252 24.5993 14.1999C24.7698 13.4503 24.9012 12.7381 24.9829 12.0685C25.07 11.3954 25.1073 10.7596 25.1073 10.1557C25.1073 7.94091 24.4039 6.21455 23.0061 4.97839C21.6013 3.74223 19.7719 3.1277 17.5216 3.1277C14.9622 3.1277 12.822 3.95536 11.1081 5.61601C9.3924 7.27133 8.52922 9.37599 8.52922 11.9282C8.52922 12.4913 8.61447 13.0347 8.77609 13.5605C8.93417 14.0844 9.10645 14.5018 9.29294 14.8108C9.47765 15.1145 9.65171 15.4112 9.80978 15.6847C9.96963 15.9582 10.0531 16.1536 10.0531 16.2708C10.0531 16.6296 9.95897 17.0967 9.76893 17.6739C9.57178 18.2511 9.33912 18.5388 9.05849 18.5388C9.03185 18.5388 8.92173 18.5193 8.72992 18.4785C8.06559 18.2801 7.46565 17.9094 6.99112 17.4039C6.48749 16.8801 6.09003 16.2637 5.82068 15.5888C5.55209 14.9162 5.3429 14.2215 5.19549 13.5125C5.03624 12.8416 4.95753 12.1542 4.96105 11.4647Z" fill="black"/>
</svg>
