<svg width="33" height="32" viewBox="0 0 33 32" fill="none" xmlns="http://www.w3.org/2000/svg">
<path fill-rule="evenodd" clip-rule="evenodd" d="M24.1134 19.1525C23.7165 18.9541 21.7709 17.9979 21.4087 17.8648C21.0465 17.7329 20.7828 17.6677 20.5178 18.0645C20.2541 18.4587 19.4964 19.3509 19.266 19.6146C19.0343 19.8796 18.8039 19.9116 18.4084 19.7145C18.0129 19.5147 16.7371 19.0979 15.2256 17.7502C14.0497 16.7009 13.2547 15.4051 13.0243 15.0083C12.794 14.6128 12.999 14.3984 13.1975 14.2013C13.3759 14.0242 13.593 13.7392 13.7914 13.5088C13.9898 13.2771 14.0551 13.1119 14.1869 12.8469C14.3201 12.5833 14.2535 12.3529 14.1536 12.1544C14.0551 11.956 13.264 10.0078 12.9338 9.21539C12.6128 8.44434 12.2866 8.54955 12.0442 8.53623C11.8125 8.52558 11.5488 8.52291 11.2851 8.52291C11.0215 8.52291 10.5927 8.62146 10.2304 9.0183C9.86688 9.41382 8.84547 10.3713 8.84547 12.3196C8.84547 14.2665 10.2624 16.1482 10.4608 16.4132C10.6592 16.6769 13.2507 20.6746 17.2205 22.3885C18.166 22.796 18.9024 23.0397 19.4764 23.2208C20.4246 23.5231 21.2875 23.4805 21.9693 23.378C22.7284 23.2648 24.3105 22.4205 24.6407 21.4963C24.9697 20.5721 24.9697 19.7797 24.8711 19.6146C24.7726 19.4495 24.5089 19.3509 24.112 19.1525H24.1134ZM16.8929 29.0111H16.8876C14.5297 29.0115 12.2152 28.3777 10.1865 27.176L9.70708 26.891L4.72387 28.1987L6.05423 23.3407L5.74128 22.8426C4.42309 20.7444 3.72549 18.3159 3.72909 15.8379C3.73176 8.58018 9.6365 2.67543 16.8982 2.67543C20.4139 2.67543 23.7192 4.04708 26.2041 6.53469C27.4298 7.7553 28.4013 9.20683 29.0623 10.8053C29.7234 12.4038 30.0609 14.1175 30.0554 15.8472C30.0527 23.105 24.148 29.0111 16.8929 29.0111ZM28.0951 4.64501C26.6279 3.16806 24.8821 1.99698 22.9589 1.19965C21.0357 0.402312 18.9735 -0.00542832 16.8916 5.45697e-05C8.16364 5.45697e-05 1.05771 7.10466 1.05504 15.8366C1.05371 18.6278 1.78215 21.3525 3.16845 23.7535L0.921875 31.9608L9.31689 29.7581C11.6392 31.0234 14.2416 31.6864 16.8863 31.6864H16.8929C25.6209 31.6864 32.7268 24.5818 32.7295 15.8486C32.7359 13.7675 32.3296 11.7058 31.5342 9.78274C30.7387 7.85968 29.5698 6.11343 28.0951 4.64501Z" fill="black"/>
</svg>
