<svg width="60" height="60" viewBox="0 0 60 60" fill="none" xmlns="http://www.w3.org/2000/svg">
<path fill-rule="evenodd" clip-rule="evenodd" d="M11.7414 2.60877C6.70657 2.60877 2.61091 6.70443 2.61091 11.7392V48.2609C2.61091 53.2957 6.70657 57.3914 11.7414 57.3914H48.2631C53.2979 57.3914 57.3935 53.2957 57.3935 48.2609V11.7392C57.3935 6.70443 53.2979 2.60877 48.2631 2.60877H11.7414ZM48.2609 60H11.7391C5.26696 60 0 54.7304 0 48.2609V11.7391C0 5.26957 5.26696 0 11.7391 0H48.2609C54.733 0 60 5.26957 60 11.7391V48.2609C60 54.7304 54.733 60 48.2609 60Z" fill="white"/>
<path fill-rule="evenodd" clip-rule="evenodd" d="M19.5678 13.0421C17.4104 13.0421 15.6548 14.7899 15.6548 16.9551C15.6548 19.1203 17.4104 20.8682 19.5678 20.8682C21.7252 20.8682 23.4809 19.1203 23.4809 16.9551C23.4809 14.7899 21.7252 13.0421 19.5678 13.0421ZM19.5657 23.4766C15.9683 23.4766 13.0439 20.5548 13.0439 16.9548C13.0439 13.3548 15.9683 10.4331 19.5657 10.4331C23.1631 10.4331 26.0874 13.3548 26.0874 16.9548C26.0874 20.5548 23.1631 23.4766 19.5657 23.4766Z" fill="white"/>
<path fill-rule="evenodd" clip-rule="evenodd" d="M19.5695 7.82677C14.5347 7.82677 10.439 11.9224 10.439 16.9572C10.439 21.992 14.5347 26.0876 19.5695 26.0876H40.439C45.4738 26.0876 49.5695 21.992 49.5695 16.9572C49.5695 11.9224 45.4738 7.82677 40.439 7.82677H19.5695ZM40.4368 28.696H19.5673C13.0951 28.696 7.82812 23.4265 7.82812 16.9569C7.82812 10.4873 13.0951 5.21777 19.5673 5.21777H40.4368C46.909 5.21777 52.1759 10.4873 52.1759 16.9569C52.1759 23.4265 46.909 28.696 40.4368 28.696Z" fill="white"/>
<path fill-rule="evenodd" clip-rule="evenodd" d="M40.4304 39.1312C38.273 39.1312 36.5173 40.879 36.5173 43.0442C36.5173 45.2094 38.273 46.9572 40.4304 46.9572C42.5878 46.9572 44.3434 45.2094 44.3434 43.0442C44.3434 40.879 42.5878 39.1312 40.4304 39.1312ZM40.4329 49.5659C36.8355 49.5659 33.9111 46.6442 33.9111 43.0442C33.9111 39.4442 36.8355 36.5225 40.4329 36.5225C44.0303 36.5225 46.9546 39.4442 46.9546 43.0442C46.9546 46.6442 44.0303 49.5659 40.4329 49.5659Z" fill="white"/>
<path fill-rule="evenodd" clip-rule="evenodd" d="M19.5695 33.915C14.5347 33.915 10.439 38.0106 10.439 43.0454C10.439 48.0802 14.5347 52.1758 19.5695 52.1758H40.439C45.4738 52.1758 49.5695 48.0802 49.5695 43.0454C49.5695 38.0106 45.4738 33.915 40.439 33.915H19.5695ZM40.4368 54.7834H19.5673C13.0951 54.7834 7.82812 49.5139 7.82812 43.0443C7.82812 36.5747 13.0951 31.3052 19.5673 31.3052H40.4368C46.909 31.3052 52.1759 36.5747 52.1759 43.0443C52.1759 49.5139 46.909 54.7834 40.4368 54.7834Z" fill="white"/>
</svg>
