<svg width="65" height="66" viewBox="0 0 65 66" fill="none" xmlns="http://www.w3.org/2000/svg">
<path fill-rule="evenodd" clip-rule="evenodd" d="M18.0002 62.8362H22.7467C24.7008 62.8362 25.7775 61.9196 27.3178 59.9934L43.5289 37.2878C43.7564 36.9736 44.1355 36.8111 44.5168 36.8392L55.8188 37.9465C59.2114 38.1523 62.2075 35.9379 62.799 32.8112C62.8184 32.6964 62.8336 32.601 62.8336 32.5187C62.8336 32.4364 62.8184 32.3389 62.8011 32.2327C62.2075 29.1039 59.1529 26.9046 55.795 27.0909L44.5125 28.1635C44.1268 28.1917 43.7542 28.0292 43.5289 27.715L27.281 4.96389C25.914 3.25647 23.7476 2.16659 21.6635 2.16659H18.0002L30.2165 26.5991C30.3746 26.9176 30.3681 27.2903 30.1991 27.6023C30.0301 27.9122 29.7182 28.1223 29.3672 28.1613L9.86973 30.3281C9.31513 30.3844 8.88402 30.0768 8.72154 29.5936L4.78304 17.7782L2.27437 19.0327L4.3216 32.3367C4.33677 32.445 4.33677 32.5577 4.3216 32.666L2.27437 45.97L4.78304 47.2246L8.72154 35.4092C8.88402 34.9238 9.34546 34.6226 9.86973 34.6746L29.3672 36.8414C29.7182 36.8804 30.0301 37.0906 30.1991 37.4004C30.3681 37.7125 30.3746 38.0851 30.2165 38.4037L18.0002 62.8362ZM22.7467 65.0031H16.2476C15.875 65.0031 15.524 64.8081 15.3269 64.4896C15.1297 64.1689 15.1124 63.7702 15.2792 63.4344L27.5843 38.8242L10.5001 36.9261L6.44467 49.0947C6.34501 49.3915 6.12188 49.632 5.83158 49.7534C5.53912 49.8747 5.21199 49.8617 4.93253 49.7209L0.599749 47.5541C0.177303 47.3439 -0.0588331 46.8867 0.0126577 46.4209L2.15522 32.5016L0.0126577 18.5822C-0.0588331 18.1164 0.177303 17.6592 0.599749 17.449L4.93253 15.2822C5.21416 15.1414 5.54128 15.1306 5.83158 15.2497C6.12188 15.3711 6.34501 15.6116 6.44467 15.9084L10.5001 28.077L27.5843 26.1789L15.2792 1.56874C15.1124 1.23289 15.1297 0.834207 15.3269 0.513525C15.524 0.195009 15.875 0 16.2476 0H21.6636C24.391 0 27.2052 1.39973 29.0098 3.65751L44.9306 25.9471L55.6109 24.933C55.6239 24.9309 55.6369 24.9287 55.6499 24.9287C60.1603 24.6557 64.1378 27.6285 64.9263 31.8255C64.9783 32.079 65 32.3152 65 32.5189C65 32.7204 64.9783 32.9544 64.9263 33.2188C64.1378 37.4093 60.1516 40.4059 55.6499 40.1069L44.9306 39.0582L29.0466 61.3001C27.4673 63.274 25.8295 65.0031 22.7467 65.0031Z" fill="white"/>
<path fill-rule="evenodd" clip-rule="evenodd" d="M54.7844 36.6525C54.6209 36.6525 54.4553 36.6172 54.2963 36.5425C53.7581 36.2872 53.5424 35.6625 53.8104 35.1498C54.5251 33.7903 54.5251 31.2124 53.8104 29.8529C53.5424 29.3402 53.7581 28.7155 54.2963 28.4602C54.8388 28.2049 55.4882 28.4104 55.7584 28.923C56.7759 30.8637 56.7759 34.139 55.7584 36.0797C55.5666 36.4429 55.1853 36.6525 54.7844 36.6525Z" fill="white"/>
</svg>
