<svg width="24" height="24" viewBox="0 0 24 24" fill="none" xmlns="http://www.w3.org/2000/svg">
<path fill-rule="evenodd" clip-rule="evenodd" d="M1.89476 1.26316C1.54739 1.26316 1.26318 1.54611 1.26318 1.89474C1.26318 13.3869 10.6143 22.7368 22.1053 22.7368C22.4539 22.7368 22.7369 22.4526 22.7369 22.1053V17.6956C22.7369 17.3469 22.4539 17.064 22.1053 17.064C20.491 17.064 18.907 16.8114 17.3975 16.3124C17.1727 16.2366 16.9238 16.296 16.7546 16.4627L13.6447 18.8185C13.4501 18.9651 13.1899 18.9878 12.9764 18.8766C9.26781 16.9781 6.99287 14.7019 5.12213 11.0223C5.01224 10.8076 5.03497 10.5486 5.18024 10.3554L7.47792 7.31116C7.71034 7.07116 7.77097 6.82737 7.69645 6.59368C7.20129 5.09305 6.94739 3.50905 6.94739 1.89474C6.94739 1.54611 6.66445 1.26316 6.31581 1.26316H1.89476ZM22.1053 24C9.91705 24 0 14.0829 0 1.89474C0 0.848842 0.850105 0 1.89474 0H6.31579C7.36042 0 8.21053 0.848842 8.21053 1.89474C8.21053 3.37389 8.44168 4.82526 8.89768 6.20589C9.11621 6.89558 8.93558 7.63326 8.42905 8.13853L6.42821 10.7975C8.07411 13.9011 10.0749 15.9006 13.2013 17.5705L15.9272 15.5128C16.368 15.0632 17.1297 14.8851 17.8004 15.1162C19.1747 15.5697 20.6248 15.8008 22.1053 15.8008C23.1499 15.8008 24 16.6509 24 17.6956V22.1053C24 23.1499 23.1499 24 22.1053 24Z" fill="white"/>
</svg>
