<svg width="24" height="24" viewBox="0 0 24 24" fill="none" xmlns="http://www.w3.org/2000/svg">
<path fill-rule="evenodd" clip-rule="evenodd" d="M8.5 1C4.364 1 1 4.364 1 8.5C1 12.636 4.364 16 8.5 16C12.636 16 16 12.636 16 8.5C16 4.364 12.636 1 8.5 1ZM8.5 17C3.813 17 0 13.187 0 8.5C0 3.813 3.813 0 8.5 0C13.186 0 17 3.813 17 8.5C17 13.187 13.186 17 8.5 17Z" fill="white"/>
<path fill-rule="evenodd" clip-rule="evenodd" d="M23.5002 23.9997C23.3722 23.9997 23.2442 23.9507 23.1462 23.8537L13.8042 14.5107C13.6082 14.3147 13.6082 13.9987 13.8042 13.8037C13.9992 13.6077 14.3152 13.6077 14.5112 13.8037L23.8532 23.1457C24.0492 23.3417 24.0492 23.6577 23.8532 23.8537C23.7562 23.9507 23.6282 23.9997 23.5002 23.9997Z" fill="white"/>
</svg>
