<svg width="32" height="32" viewBox="0 0 32 32" fill="none" xmlns="http://www.w3.org/2000/svg">
<path d="M4.74918 14.8125H23.0336L12.0898 5.3125C11.9148 5.15938 12.0211 4.875 12.2523 4.875H15.0179C15.1398 4.875 15.2554 4.91875 15.3461 4.99687L27.1554 15.2437C27.2636 15.3375 27.3503 15.4534 27.4098 15.5836C27.4692 15.7138 27.5 15.8553 27.5 15.9984C27.5 16.1416 27.4692 16.283 27.4098 16.4133C27.3503 16.5435 27.2636 16.6594 27.1554 16.7531L15.2773 27.0625C15.2304 27.1031 15.1742 27.125 15.1148 27.125H12.2554C12.0242 27.125 11.9179 26.8375 12.0929 26.6875L23.0336 17.1875H4.74918C4.61168 17.1875 4.49918 17.075 4.49918 16.9375V15.0625C4.49918 14.925 4.61168 14.8125 4.74918 14.8125Z" fill="black"/>
</svg>
