<svg width="15" height="15" viewBox="0 0 15 15" fill="none" xmlns="http://www.w3.org/2000/svg">
<path fill-rule="evenodd" clip-rule="evenodd" d="M2.91188 14.375H13.9369C12.1994 12.0069 11.8881 5.02688 11.875 0.625H0.625C0.6475 8.1825 1.49688 13.2875 2.91188 14.375ZM14.6875 15H2.8125C2.75062 15 2.69125 14.9819 2.63937 14.9481C0.343125 13.4256 0 5.125 0 0.3125C0 0.14 0.139375 0 0.3125 0H12.1875C12.36 0 12.5 0.14 12.5 0.3125C12.5 8.17125 13.3825 13.4475 14.86 14.4269C14.975 14.5031 15.0263 14.6456 14.9862 14.7775C14.9469 14.9094 14.8256 15 14.6875 15Z" fill="black"/>
<path fill-rule="evenodd" clip-rule="evenodd" d="M5.9375 2.5H2.1875C2.015 2.5 1.875 2.36 1.875 2.1875C1.875 2.015 2.015 1.875 2.1875 1.875H5.9375C6.11 1.875 6.25 2.015 6.25 2.1875C6.25 2.36 6.11 2.5 5.9375 2.5Z" fill="black"/>
<path fill-rule="evenodd" clip-rule="evenodd" d="M7.8125 12.5H4.0625C3.89 12.5 3.75 12.36 3.75 12.1875C3.75 12.015 3.89 11.875 4.0625 11.875H7.8125C7.985 11.875 8.125 12.015 8.125 12.1875C8.125 12.36 7.985 12.5 7.8125 12.5Z" fill="black"/>
<path fill-rule="evenodd" clip-rule="evenodd" d="M10.3125 5H2.5C2.3275 5 2.1875 4.86 2.1875 4.6875C2.1875 4.515 2.3275 4.375 2.5 4.375H10.3125C10.485 4.375 10.625 4.515 10.625 4.6875C10.625 4.86 10.485 5 10.3125 5Z" fill="black"/>
<path fill-rule="evenodd" clip-rule="evenodd" d="M10.625 6.875H2.8125C2.64 6.875 2.5 6.735 2.5 6.5625C2.5 6.39 2.64 6.25 2.8125 6.25H10.625C10.7975 6.25 10.9375 6.39 10.9375 6.5625C10.9375 6.735 10.7975 6.875 10.625 6.875Z" fill="black"/>
<path fill-rule="evenodd" clip-rule="evenodd" d="M10.9375 8.75H3.125C2.9525 8.75 2.8125 8.61 2.8125 8.4375C2.8125 8.265 2.9525 8.125 3.125 8.125H10.9375C11.11 8.125 11.25 8.265 11.25 8.4375C11.25 8.61 11.11 8.75 10.9375 8.75Z" fill="black"/>
</svg>
