<svg width="15" height="15" viewBox="0 0 15 15" fill="none" xmlns="http://www.w3.org/2000/svg">
<path fill-rule="evenodd" clip-rule="evenodd" d="M4.21875 0.625C2.23688 0.625 0.625 2.2375 0.625 4.21875C0.625 8.46875 6.36875 13.3625 7.5 14.2875C8.63125 13.3625 14.375 8.4625 14.375 4.21875C14.375 2.2375 12.7631 0.625 10.7812 0.625C9.55812 0.625 8.42937 1.24375 7.7625 2.275C7.705 2.3625 7.60625 2.41875 7.5 2.41875C7.39375 2.41875 7.295 2.3625 7.2375 2.275C6.57125 1.24375 5.4425 0.625 4.21875 0.625ZM7.5 15C7.4325 15 7.365 14.9812 7.30813 14.9375C7.01 14.7063 0 9.2125 0 4.21875C0 1.89375 1.8925 0 4.21875 0C5.50562 0 6.7025 0.58125 7.5 1.56875C8.29813 0.58125 9.495 0 10.7812 0C13.1075 0 15 1.89375 15 4.21875C15 9.2125 7.99 14.7063 7.69187 14.9375C7.635 14.9812 7.5675 15 7.5 15Z" fill="black"/>
</svg>
