<svg width="83" height="83" viewBox="0 0 83 83" fill="none" xmlns="http://www.w3.org/2000/svg">
<rect width="82.7389" height="82.7389" rx="41.3695" fill="#052555"/>
<path fill-rule="evenodd" clip-rule="evenodd" d="M19.7835 18.6162C19.19 18.6162 18.7043 19.0796 18.7043 19.6505V63.0896C18.7043 63.6605 19.19 64.1239 19.7835 64.1239H28.4174C29.011 64.1239 29.4966 63.6605 29.4966 63.0896V19.6505C29.4966 19.0796 29.011 18.6162 28.4174 18.6162H19.7835ZM28.4194 66.1926H19.7856C18.0005 66.1926 16.5479 64.8004 16.5479 63.0898V19.6506C16.5479 17.94 18.0005 16.5479 19.7856 16.5479H28.4194C30.2045 16.5479 31.6571 17.94 31.6571 19.6506V63.0898C31.6571 64.8004 30.2045 66.1926 28.4194 66.1926Z" fill="white"/>
<path fill-rule="evenodd" clip-rule="evenodd" d="M24.1029 57.9168C23.5093 57.9168 23.0237 58.3802 23.0237 58.9511C23.0237 59.522 23.5093 59.9854 24.1029 59.9854C24.6965 59.9854 25.1821 59.522 25.1821 58.9511C25.1821 58.3802 24.6965 57.9168 24.1029 57.9168ZM24.101 62.0552C22.3159 62.0552 20.8633 60.6631 20.8633 58.9524C20.8633 57.2417 22.3159 55.8496 24.101 55.8496C25.886 55.8496 27.3387 57.2417 27.3387 58.9524C27.3387 60.6631 25.886 62.0552 24.101 62.0552Z" fill="white"/>
<path fill-rule="evenodd" clip-rule="evenodd" d="M37.0497 18.6167C36.4562 18.6167 35.9705 19.0801 35.9705 19.651V63.0901C35.9705 63.661 36.4562 64.1244 37.0497 64.1244H45.6836C46.2772 64.1244 46.7628 63.661 46.7628 63.0901V19.651C46.7628 19.0801 46.2772 18.6167 45.6836 18.6167H37.0497ZM45.686 66.1926H37.0522C35.2671 66.1926 33.8145 64.8004 33.8145 63.0898V19.6506C33.8145 17.94 35.2671 16.5479 37.0522 16.5479H45.686C47.4711 16.5479 48.9237 17.94 48.9237 19.6506V63.0898C48.9237 64.8004 47.4711 66.1926 45.686 66.1926Z" fill="white"/>
<path fill-rule="evenodd" clip-rule="evenodd" d="M41.3696 57.9168C40.776 57.9168 40.2904 58.3802 40.2904 58.9511C40.2904 59.522 40.776 59.9854 41.3696 59.9854C41.9632 59.9854 42.4488 59.522 42.4488 58.9511C42.4488 58.3802 41.9632 57.9168 41.3696 57.9168ZM41.3676 62.0552C39.5825 62.0552 38.1299 60.6631 38.1299 58.9524C38.1299 57.2417 39.5825 55.8496 41.3676 55.8496C43.1526 55.8496 44.6053 57.2417 44.6053 58.9524C44.6053 60.6631 43.1526 62.0552 41.3676 62.0552Z" fill="white"/>
<path fill-rule="evenodd" clip-rule="evenodd" d="M54.317 18.6167C53.7234 18.6167 53.2378 19.0801 53.2378 19.651V63.0901C53.2378 63.661 53.7234 64.1244 54.317 64.1244H62.9508C63.5444 64.1244 64.0301 63.661 64.0301 63.0901V19.651C64.0301 19.0801 63.5444 18.6167 62.9508 18.6167H54.317ZM62.9536 66.1926H54.3197C52.5347 66.1926 51.082 64.8004 51.082 63.0898V19.6506C51.082 17.94 52.5347 16.5479 54.3197 16.5479H62.9536C64.7386 16.5479 66.1913 17.94 66.1913 19.6506V63.0898C66.1913 64.8004 64.7386 66.1926 62.9536 66.1926Z" fill="white"/>
<path fill-rule="evenodd" clip-rule="evenodd" d="M58.6401 57.9168C58.0466 57.9168 57.5609 58.3802 57.5609 58.9511C57.5609 59.522 58.0466 59.9854 58.6401 59.9854C59.2337 59.9854 59.7194 59.522 59.7194 58.9511C59.7194 58.3802 59.2337 57.9168 58.6401 57.9168ZM58.642 62.0552C56.8569 62.0552 55.4043 60.6631 55.4043 58.9524C55.4043 57.2417 56.8569 55.8496 58.642 55.8496C60.427 55.8496 61.8797 57.2417 61.8797 58.9524C61.8797 60.6631 60.427 62.0552 58.642 62.0552Z" fill="white"/>
<path fill-rule="evenodd" clip-rule="evenodd" d="M23.0237 33.0955H25.1821V22.7529H23.0237V33.0955ZM26.2594 35.1633H21.9425C21.3468 35.1633 20.8633 34.7 20.8633 34.129V21.7179C20.8633 21.1469 21.3468 20.6836 21.9425 20.6836H26.2594C26.8573 20.6836 27.3387 21.1469 27.3387 21.7179V34.129C27.3387 34.7 26.8573 35.1633 26.2594 35.1633Z" fill="white"/>
<path fill-rule="evenodd" clip-rule="evenodd" d="M40.2904 33.0955H42.4488V22.7529H40.2904V33.0955ZM43.526 35.1633H39.2091C38.6134 35.1633 38.1299 34.7 38.1299 34.129V21.7179C38.1299 21.1469 38.6134 20.6836 39.2091 20.6836H43.526C44.1239 20.6836 44.6053 21.1469 44.6053 21.7179V34.129C44.6053 34.7 44.1239 35.1633 43.526 35.1633Z" fill="white"/>
<path fill-rule="evenodd" clip-rule="evenodd" d="M57.5609 33.0955H59.7194V22.7529H57.5609V33.0955ZM60.8005 35.1633H56.4835C55.8878 35.1633 55.4043 34.7 55.4043 34.129V21.7179C55.4043 21.1469 55.8878 20.6836 56.4835 20.6836H60.8005C61.3984 20.6836 61.8797 21.1469 61.8797 21.7179V34.129C61.8797 34.7 61.3984 35.1633 60.8005 35.1633Z" fill="white"/>
</svg>
