<svg width="83" height="83" viewBox="0 0 83 83" fill="none" xmlns="http://www.w3.org/2000/svg">
<rect width="82.7389" height="82.7389" rx="41.3695" fill="#052555"/>
<path fill-rule="evenodd" clip-rule="evenodd" d="M32.2681 66.0554H36.1954C37.8121 66.0554 38.703 65.297 39.9774 63.7032L53.3903 44.9169C53.5785 44.6569 53.8922 44.5225 54.2077 44.5458L63.5589 45.4619C66.3658 45.6322 68.8448 43.8 69.3341 41.213C69.3503 41.118 69.3628 41.0391 69.3628 40.971C69.3628 40.9029 69.3503 40.8222 69.3359 40.7344C68.8448 38.1456 66.3174 36.326 63.5391 36.4801L54.2041 37.3676C53.885 37.3909 53.5767 37.2564 53.3903 36.9965L39.9469 18.1725C38.8159 16.7598 37.0235 15.858 35.2991 15.858H32.2681L42.3757 36.0732C42.5066 36.3367 42.5012 36.6451 42.3614 36.9032C42.2216 37.1596 41.9634 37.3335 41.6731 37.3658L25.541 39.1585C25.0822 39.2051 24.7255 38.9506 24.591 38.5508L21.3324 28.7748L19.2567 29.8129L20.9506 40.8204C20.9631 40.9101 20.9631 41.0033 20.9506 41.0929L19.2567 52.1005L21.3324 53.1385L24.591 43.3626C24.7255 42.961 25.1073 42.7118 25.541 42.7548L41.6731 44.5476C41.9634 44.5798 42.2216 44.7537 42.3614 45.0101C42.5012 45.2683 42.5066 45.5766 42.3757 45.8402L32.2681 66.0554ZM36.1954 67.8483H30.8181C30.5098 67.8483 30.2194 67.687 30.0563 67.4234C29.8932 67.1581 29.8788 66.8282 30.0169 66.5504L40.198 46.1882L26.0627 44.6177L22.7073 54.6858C22.6248 54.9315 22.4402 55.1305 22.2 55.2308C21.958 55.3312 21.6873 55.3205 21.4561 55.204L17.8712 53.4112C17.5217 53.2373 17.3263 52.859 17.3855 52.4736L19.1582 40.9569L17.3855 29.4402C17.3263 29.0547 17.5217 28.6764 17.8712 28.5025L21.4561 26.7098C21.6891 26.5933 21.9598 26.5843 22.2 26.6829C22.4402 26.7833 22.6248 26.9823 22.7073 27.2279L26.0627 37.296L40.198 35.7256L30.0169 15.3634C29.8788 15.0855 29.8932 14.7556 30.0563 14.4903C30.2194 14.2268 30.5098 14.0654 30.8181 14.0654H35.2992C37.5559 14.0654 39.8843 15.2236 41.3774 17.0916L54.5501 35.5338L63.3868 34.6947C63.3976 34.693 63.4084 34.6912 63.4191 34.6912C67.151 34.4653 70.4419 36.9249 71.0944 40.3975C71.1374 40.6073 71.1553 40.8027 71.1553 40.9712C71.1553 41.1379 71.1374 41.3316 71.0944 41.5503C70.4419 45.0175 67.1438 47.4969 63.4191 47.2495L54.5501 46.3818L41.4079 64.7845C40.1012 66.4177 38.7461 67.8483 36.1954 67.8483Z" fill="white"/>
<path fill-rule="evenodd" clip-rule="evenodd" d="M62.7028 44.3914C62.5676 44.3914 62.4306 44.3622 62.299 44.3004C61.8537 44.0892 61.6752 43.5722 61.897 43.1481C62.4883 42.0232 62.4883 39.8903 61.897 38.7655C61.6752 38.3413 61.8537 37.8244 62.299 37.6131C62.7479 37.4019 63.2851 37.5719 63.5087 37.9961C64.3506 39.6018 64.3506 42.3117 63.5087 43.9174C63.35 44.2179 63.0346 44.3914 62.7028 44.3914Z" fill="white"/>
</svg>
