<svg width="83" height="83" viewBox="0 0 83 83" fill="none" xmlns="http://www.w3.org/2000/svg">
<rect width="82.7389" height="82.7389" rx="41.3695" fill="#052555"/>
<path fill-rule="evenodd" clip-rule="evenodd" d="M65.2596 36.82C65.8853 36.82 66.3973 36.2966 66.3973 35.6823C66.3973 35.0451 65.8853 34.5445 65.2596 34.5445C64.6338 34.5445 64.1219 35.0451 64.1219 35.6823C64.1219 36.2966 64.6338 36.82 65.2596 36.82ZM65.2597 32.2689C67.1415 32.2689 68.6729 33.7934 68.6729 35.6821C68.6729 37.5707 67.1415 39.0952 65.2597 39.0952C63.3779 39.0952 61.8465 37.5707 61.8465 35.6821C61.8465 33.7934 63.3779 32.2689 65.2597 32.2689Z" fill="white"/>
<path fill-rule="evenodd" clip-rule="evenodd" d="M56.1638 27.7179C56.7895 27.7179 57.3015 27.1945 57.3015 26.5802C57.3015 25.943 56.7895 25.4424 56.1638 25.4424C55.5381 25.4424 55.0261 25.943 55.0261 26.5802C55.0261 27.1945 55.5381 27.7179 56.1638 27.7179ZM56.164 23.1669C58.0458 23.1669 59.5771 24.6914 59.5771 26.58C59.5771 28.4686 58.0458 29.9932 56.164 29.9932C54.2822 29.9932 52.7508 28.4686 52.7508 26.58C52.7508 24.6914 54.2822 23.1669 56.164 23.1669Z" fill="white"/>
<path fill-rule="evenodd" clip-rule="evenodd" d="M22.0295 50.4735C22.6552 50.4735 23.1672 49.9502 23.1672 49.3358C23.1672 48.6987 22.6552 48.1981 22.0295 48.1981C21.4037 48.1981 20.8917 48.6987 20.8917 49.3358C20.8917 49.9502 21.4037 50.4735 22.0295 50.4735ZM22.0292 45.9217C23.911 45.9217 25.4424 47.4463 25.4424 49.3349C25.4424 51.2235 23.911 52.748 22.0292 52.748C20.1474 52.748 18.6161 51.2235 18.6161 49.3349C18.6161 47.4463 20.1474 45.9217 22.0292 45.9217Z" fill="white"/>
<path fill-rule="evenodd" clip-rule="evenodd" d="M17.4785 36.82C18.1042 36.82 18.6162 36.2966 18.6162 35.6823C18.6162 35.0451 18.1042 34.5445 17.4785 34.5445C16.8527 34.5445 16.3407 35.0451 16.3407 35.6823C16.3407 36.2966 16.8527 36.82 17.4785 36.82ZM17.4784 32.2684C19.3602 32.2684 20.8916 33.793 20.8916 35.6816C20.8916 37.5702 19.3602 39.0947 17.4784 39.0947C15.5967 39.0947 14.0653 37.5702 14.0653 35.6816C14.0653 33.793 15.5967 32.2684 17.4784 32.2684Z" fill="white"/>
<path fill-rule="evenodd" clip-rule="evenodd" d="M53.8875 34.5439L62.9892 34.5439C63.6173 34.5439 64.127 35.0445 64.127 35.6816C64.127 36.3187 63.6173 36.8193 62.9892 36.8193L53.8875 36.8193C53.2595 36.8193 52.7498 36.3187 52.7498 35.6816C52.7498 35.0445 53.2595 34.5439 53.8875 34.5439Z" fill="white"/>
<path fill-rule="evenodd" clip-rule="evenodd" d="M19.7517 34.5439L31.1289 34.5439C31.7569 34.5439 32.2666 35.0445 32.2666 35.6816C32.2666 36.3187 31.7569 36.8193 31.1289 36.8193L19.7517 36.8193C19.1237 36.8193 18.614 36.3187 18.614 35.6816C18.614 35.0445 19.1237 34.5439 19.7517 34.5439Z" fill="white"/>
<path fill-rule="evenodd" clip-rule="evenodd" d="M42.5104 39.0977C45.5936 39.0977 48.199 37.5277 48.199 35.6846C48.199 33.8415 45.5936 32.2714 42.5104 32.2714C39.4272 32.2714 36.8218 33.8415 36.8218 35.6846C36.8218 37.5277 39.4272 39.0977 42.5104 39.0977ZM42.5106 29.9944C46.9773 29.9944 50.4746 32.4974 50.4746 35.683C50.4746 38.8686 46.9773 41.3716 42.5106 41.3716C38.0439 41.3716 34.5466 38.8686 34.5466 35.683C34.5466 32.4974 38.0439 29.9944 42.5106 29.9944Z" fill="white"/>
<path fill-rule="evenodd" clip-rule="evenodd" d="M42.5076 57.2983C44.3894 57.2983 45.9208 55.7737 45.9208 53.8851C45.9208 51.9965 44.3894 50.472 42.5076 50.472C40.6258 50.472 39.0944 51.9965 39.0944 53.8851C39.0944 55.7737 40.6258 57.2983 42.5076 57.2983ZM42.5097 48.1975C45.6475 48.1975 48.1982 50.746 48.1982 53.8861C48.1982 57.0262 45.6475 59.5747 42.5097 59.5747C39.3718 59.5747 36.8211 57.0262 36.8211 53.8861C36.8211 50.746 39.3718 48.1975 42.5097 48.1975Z" fill="white"/>
<path fill-rule="evenodd" clip-rule="evenodd" d="M42.5088 43.6463C43.1368 43.6463 43.6465 44.1469 43.6465 44.7841L43.6465 49.3349C43.6465 49.9721 43.1368 50.4727 42.5088 50.4727C41.8807 50.4727 41.371 49.9721 41.371 49.3349L41.371 44.7841C41.371 44.1469 41.8807 43.6463 42.5088 43.6463Z" fill="white"/>
<path fill-rule="evenodd" clip-rule="evenodd" d="M53.8871 27.7158C54.3035 27.7158 54.704 27.9434 54.9043 28.3529C55.1841 28.8991 54.9589 29.5817 54.3968 29.8775L52.1214 31.0152C51.5571 31.2883 50.8767 31.0607 50.5946 30.4919C50.3147 29.9458 50.54 29.2631 51.102 28.9673L53.3774 27.8296C53.5435 27.7613 53.7165 27.7158 53.8871 27.7158Z" fill="white"/>
<path fill-rule="evenodd" clip-rule="evenodd" d="M33.4075 40.2281C33.7852 40.2281 34.1561 40.4102 34.3723 40.7515C34.7045 41.2976 34.5429 42.003 34.0105 42.3215L24.9087 48.0101C24.3763 48.3514 23.6755 48.1922 23.341 47.6461C23.0088 47.1227 23.1703 46.4173 23.7028 46.0988L32.8045 40.4102C32.9911 40.2736 33.2004 40.2281 33.4075 40.2281Z" fill="white"/>
<path fill-rule="evenodd" clip-rule="evenodd" d="M32.2701 27.7175L33.4079 27.7175L32.2701 27.7175ZM32.2695 25.4418C33.5255 25.4418 34.5449 26.4657 34.5449 27.7172C34.5449 28.9687 33.5255 29.9927 32.2695 29.9927C31.0134 29.9927 29.994 28.9687 29.994 27.7172C29.994 26.4658 31.0134 25.4418 32.2695 25.4418Z" fill="white"/>
<path fill-rule="evenodd" clip-rule="evenodd" d="M33.4037 27.7172C33.6949 27.7172 33.9862 27.831 34.2092 28.0585L35.3469 29.1963C35.7906 29.6286 35.7906 30.3567 35.3469 30.7891C34.9009 31.2441 34.1819 31.2441 33.7359 30.7891L32.5982 29.6513C32.1545 29.219 32.1545 28.4909 32.5982 28.0585C32.8212 27.831 33.1124 27.7172 33.4037 27.7172Z" fill="white"/>
<path fill-rule="evenodd" clip-rule="evenodd" d="M59.5751 45.9218C60.8312 45.9218 61.8506 46.9457 61.8506 48.1972C61.8506 49.4487 60.8312 50.4727 59.5751 50.4727C58.3191 50.4727 57.2997 49.4487 57.2997 48.1972C57.2997 46.9457 58.3191 45.9218 59.5751 45.9218Z" fill="white"/>
<path fill-rule="evenodd" clip-rule="evenodd" d="M50.4732 40.2325C50.703 40.2325 50.9328 40.3008 51.1353 40.4373L59.0994 46.1259C59.6113 46.49 59.7274 47.1953 59.3633 47.7187C58.997 48.2193 58.2916 48.3331 57.7751 47.9917L49.811 42.3032C49.2991 41.9391 49.183 41.2109 49.5471 40.7104C49.7678 40.3918 50.1205 40.2325 50.4732 40.2325Z" fill="white"/>
</svg>
