<svg width="84" height="83" viewBox="0 0 84 83" fill="none" xmlns="http://www.w3.org/2000/svg">
<rect x="0.30957" width="82.7389" height="82.7389" rx="41.3695" fill="#052555"/>
<path fill-rule="evenodd" clip-rule="evenodd" d="M26.572 18.7064C22.4062 18.7064 19.0175 22.0951 19.0175 26.2608V56.4785C19.0175 60.6443 22.4062 64.033 26.572 64.033H56.7897C60.9554 64.033 64.3441 60.6443 64.3441 56.4785V26.2608C64.3441 22.0951 60.9554 18.7064 56.7897 18.7064H26.572ZM56.788 66.1912H26.5703C21.2152 66.1912 16.8574 61.8312 16.8574 56.4784V26.2607C16.8574 20.9078 21.2152 16.5479 26.5703 16.5479H56.788C62.143 16.5479 66.5008 20.9078 66.5008 26.2607V56.4784C66.5008 61.8312 62.143 66.1912 56.788 66.1912Z" fill="white"/>
<path fill-rule="evenodd" clip-rule="evenodd" d="M33.0471 27.3382C31.2621 27.3382 29.8095 28.7843 29.8095 30.5758C29.8095 32.3672 31.2621 33.8134 33.0471 33.8134C34.8321 33.8134 36.2847 32.3672 36.2847 30.5758C36.2847 28.7843 34.8321 27.3382 33.0471 27.3382ZM33.0454 35.9717C30.069 35.9717 27.6494 33.5543 27.6494 30.5757C27.6494 27.5971 30.069 25.1797 33.0454 25.1797C36.0219 25.1797 38.4415 27.5971 38.4415 30.5757C38.4415 33.5543 36.0219 35.9717 33.0454 35.9717Z" fill="white"/>
<path fill-rule="evenodd" clip-rule="evenodd" d="M33.0486 23.024C28.8829 23.024 25.4942 26.4127 25.4942 30.5785C25.4942 34.7442 28.8829 38.1329 33.0486 38.1329H50.3159C54.4816 38.1329 57.8703 34.7442 57.8703 30.5785C57.8703 26.4127 54.4816 23.024 50.3159 23.024H33.0486ZM50.3141 40.2909H33.0468C27.6918 40.2909 23.334 35.9309 23.334 30.5781C23.334 25.2252 27.6918 20.8652 33.0468 20.8652H50.3141C55.6691 20.8652 60.0269 25.2252 60.0269 30.5781C60.0269 35.9309 55.6691 40.2909 50.3141 40.2909Z" fill="white"/>
<path fill-rule="evenodd" clip-rule="evenodd" d="M50.309 48.9252C48.524 48.9252 47.0714 50.3713 47.0714 52.1628C47.0714 53.9543 48.524 55.4004 50.309 55.4004C52.094 55.4004 53.5466 53.9543 53.5466 52.1628C53.5466 50.3713 52.094 48.9252 50.309 48.9252ZM50.3111 57.5586C47.3346 57.5586 44.915 55.1412 44.915 52.1626C44.915 49.184 47.3346 46.7666 50.3111 46.7666C53.2875 46.7666 55.7071 49.184 55.7071 52.1626C55.7071 55.1412 53.2875 57.5586 50.3111 57.5586Z" fill="white"/>
<path fill-rule="evenodd" clip-rule="evenodd" d="M33.0486 44.6088C28.8829 44.6088 25.4942 47.9975 25.4942 52.1632C25.4942 56.3289 28.8829 59.7176 33.0486 59.7176H50.3159C54.4816 59.7176 57.8703 56.3289 57.8703 52.1632C57.8703 47.9975 54.4816 44.6088 50.3159 44.6088H33.0486ZM50.3141 61.8749H33.0468C27.6918 61.8749 23.334 57.5149 23.334 52.1621C23.334 46.8092 27.6918 42.4492 33.0468 42.4492H50.3141C55.6691 42.4492 60.0269 46.8092 60.0269 52.1621C60.0269 57.5149 55.6691 61.8749 50.3141 61.8749Z" fill="white"/>
</svg>
