<svg width="83" height="83" viewBox="0 0 83 83" fill="none" xmlns="http://www.w3.org/2000/svg">
<rect width="82.7389" height="82.7389" rx="41.3695" fill="#052555"/>
<path fill-rule="evenodd" clip-rule="evenodd" d="M39.0856 50.204C38.7931 50.204 38.5006 50.0884 38.2766 49.8574L29.136 40.6151C28.6904 40.1761 28.6904 39.4367 29.136 38.9977C29.5839 38.5356 30.306 38.5356 30.7539 38.9977L39.0856 47.4082L54.2728 32.0591C54.7207 31.6086 55.4429 31.6086 55.8907 32.0591C56.3364 32.5097 56.3364 33.2421 55.8907 33.6927L39.8945 49.8574C39.6706 50.0884 39.3781 50.204 39.0856 50.204Z" fill="white"/>
<path fill-rule="evenodd" clip-rule="evenodd" d="M19.6577 22.1864V46.7408C19.6577 54.8508 32.3701 63.3768 41.3668 66.3343C50.3636 63.3768 63.076 54.8508 63.076 46.7408V22.1864L41.3668 15.599L19.6577 22.1864ZM41.3693 68.6918C41.255 68.6918 41.1385 68.6687 41.0311 68.6455C32.7816 66.0346 17.375 56.9541 17.375 46.7414V21.3252C17.375 20.8169 17.7063 20.3664 18.1885 20.2185L41.0402 13.2868C41.255 13.2221 41.4836 13.2221 41.6984 13.2868L64.5501 20.2185C65.0322 20.3664 65.3636 20.8169 65.3636 21.3252V46.7414C65.3636 56.9541 49.957 66.0346 41.7075 68.6455C41.6001 68.6687 41.4836 68.6918 41.3693 68.6918Z" fill="white"/>
</svg>
