<svg width="83" height="83" viewBox="0 0 83 83" fill="none" xmlns="http://www.w3.org/2000/svg">
<rect width="82.7389" height="82.7389" rx="41.3695" fill="#052555"/>
<path fill-rule="evenodd" clip-rule="evenodd" d="M28.5316 27.1097C28.3024 27.1097 28.1111 27.3011 28.1111 27.5302C28.1111 42.5736 40.3467 54.8093 55.3901 54.8093C55.6193 54.8093 55.8106 54.6179 55.8106 54.3912V48.5315C55.8106 48.3049 55.6193 48.111 55.3901 48.111C53.2018 48.111 51.0513 47.7685 49.0041 47.0912C48.8379 47.0408 48.6868 47.0811 48.5785 47.1868L44.4009 50.3597C44.0106 50.6518 43.4919 50.6946 43.0663 50.4755C38.0552 47.907 34.978 44.8299 32.4473 39.8515C32.2282 39.4234 32.271 38.9072 32.5631 38.5219L35.6151 34.4778C35.9047 34.1731 35.8644 33.9792 35.8418 33.9011C35.1719 31.8715 34.827 29.7235 34.827 27.5302C34.827 27.3011 34.6356 27.1097 34.4064 27.1097H28.5316ZM55.388 57.3276C38.9596 57.3276 25.5908 43.9613 25.5908 27.5305C25.5908 25.9113 26.9078 24.5918 28.5295 24.5918H34.4043C36.026 24.5918 37.343 25.9113 37.343 27.5305C37.343 29.4518 37.6426 31.3379 38.2344 33.1283C38.5718 34.201 38.2923 35.3443 37.5092 36.1249L35.0515 39.4035C37.1491 43.2814 39.6068 45.7417 43.5175 47.867L46.9245 45.296C47.5742 44.6236 48.7602 44.3466 49.8028 44.7042C51.5856 45.2934 53.4692 45.5931 55.388 45.5931C57.0097 45.5931 58.3267 46.9126 58.3267 48.5318V54.3915C58.3267 56.0107 57.0097 57.3276 55.388 57.3276Z" fill="white"/>
<path fill-rule="evenodd" clip-rule="evenodd" d="M41.9586 69.9173C25.9911 69.9173 13 56.9287 13 40.9586C13 24.9911 25.9911 12 41.9586 12C57.9262 12 70.9173 24.9911 70.9173 40.9586C70.9173 41.6562 70.3532 42.2177 69.6582 42.2177C68.9632 42.2177 68.3991 41.6562 68.3991 40.9586C68.3991 26.3811 56.5387 14.5181 41.9586 14.5181C27.3786 14.5181 15.5181 26.3811 15.5181 40.9586C15.5181 55.5387 27.3786 67.3991 41.9586 67.3991C50.7344 67.3991 59.2608 62.9345 62.2297 56.7801C62.7937 55.6067 62.8542 54.6699 62.3984 53.9976C61.6757 52.9223 59.6435 52.3557 57.1506 52.5245C56.4883 52.5647 55.8588 52.046 55.8109 51.351C55.7656 50.656 56.2894 50.0567 56.9844 50.0113C60.5098 49.7923 63.2269 50.7215 64.4859 52.5874C65.1683 53.5972 65.7223 55.3347 64.496 57.8755C61.1292 64.8533 51.6535 69.9173 41.9586 69.9173Z" fill="white"/>
</svg>
