<svg width="215" height="130" viewBox="0 0 215 130" fill="none" xmlns="http://www.w3.org/2000/svg">
<rect width="215" height="130" fill="white"/>
<path d="M42.409 65.3942V55.4829H32.3149L32.5988 56.7139H40.3271L35.0277 62.0168H30.2645L24.9967 56.7455H32.5988L32.3149 55.5145H22L29.3813 62.9006V67.6668L22 75.0529H32.7565L33.1981 73.8219H24.9967L30.2645 68.5506H35.0277L40.2955 73.8219H33.1981L32.7565 75.0529H42.3774L42.409 65.3942L41.1472 65.4573V72.9065L35.8794 67.6352V62.869L41.1788 57.5977V65.4257L42.409 65.3942Z" fill="black"/>
<path d="M190.508 57.4399V56.6508H191.012C191.076 56.6508 191.139 56.6508 191.202 56.6824C191.265 56.6824 191.328 56.7139 191.359 56.7455C191.423 56.7771 191.454 56.8086 191.486 56.8402C191.517 56.9033 191.549 56.9664 191.549 57.0296C191.549 57.1243 191.517 57.1874 191.486 57.2505C191.454 57.3137 191.391 57.3452 191.328 57.3768C191.265 57.4083 191.202 57.4083 191.139 57.4399C191.076 57.4399 190.981 57.4399 190.886 57.4399C190.886 57.4399 190.508 57.4399 190.508 57.4399ZM190.129 56.3667V58.7972H190.508V57.7556H190.918L191.58 58.7972H191.99L191.296 57.724C191.486 57.6924 191.643 57.6609 191.738 57.5346C191.864 57.4399 191.927 57.2821 191.927 57.0611C191.927 56.8402 191.864 56.6508 191.706 56.5245C191.58 56.3983 191.359 56.3667 191.076 56.3667C191.076 56.3667 190.129 56.3667 190.129 56.3667ZM189.214 57.5662C189.214 57.3137 189.246 57.0927 189.341 56.8717C189.435 56.6508 189.561 56.4614 189.719 56.3036C189.877 56.1458 190.066 56.0195 190.255 55.9248C190.476 55.8301 190.697 55.7986 190.949 55.7986C191.202 55.7986 191.423 55.8617 191.612 55.9248C191.833 56.0195 191.99 56.1458 192.148 56.3036C192.306 56.4614 192.432 56.6508 192.495 56.8717C192.59 57.0927 192.621 57.3137 192.621 57.5662C192.621 57.8187 192.59 58.0712 192.495 58.2922C192.4 58.5131 192.306 58.7025 192.148 58.8603C191.99 59.0181 191.801 59.1444 191.612 59.2391C191.391 59.3338 191.17 59.3653 190.949 59.3653C190.697 59.3653 190.476 59.3338 190.255 59.2391C190.035 59.1444 189.877 59.0181 189.719 58.8603C189.561 58.7025 189.435 58.5131 189.341 58.2922C189.278 58.0712 189.214 57.8187 189.214 57.5662ZM188.836 57.5662C188.836 57.8502 188.899 58.1343 188.994 58.3868C189.12 58.6394 189.246 58.8603 189.435 59.0497C189.625 59.2391 189.845 59.3653 190.098 59.4916C190.35 59.5863 190.634 59.6494 190.918 59.6494C191.202 59.6494 191.486 59.5863 191.738 59.4916C191.99 59.3969 192.211 59.2391 192.4 59.0497C192.59 58.8603 192.747 58.6394 192.842 58.3868C192.968 58.1343 193 57.8502 193 57.5662C193 57.2821 192.937 56.998 192.842 56.7455C192.747 56.493 192.59 56.272 192.4 56.0826C192.211 55.8932 191.99 55.7354 191.738 55.6407C191.486 55.546 191.202 55.4829 190.918 55.4829C190.634 55.4829 190.35 55.546 190.098 55.6407C189.845 55.7354 189.625 55.8932 189.435 56.0826C189.246 56.272 189.088 56.493 188.994 56.7455C188.899 56.998 188.836 57.2821 188.836 57.5662Z" fill="black"/>
<path d="M55.4678 75.0846H59.4423C65.625 75.0846 70.4827 71.865 70.4827 65.2049C70.4827 58.7026 65.4988 55.5146 59.5054 55.5146H55.4678V75.0846V75.0846ZM57.9282 57.7241H58.7799C63.7638 57.7241 68.0538 59.5549 68.0538 65.268C68.0538 70.9496 63.7323 72.8119 58.7799 72.8119H57.9282V57.7241ZM72.1546 75.0846H82.6587V72.8435H74.5834V65.4574H82.4064V63.2163H74.5834V57.7241H82.6587V55.5146H72.1546V75.0846ZM88.1158 55.5146H85.6869V75.0846H94.0776V72.8435H88.1474V55.5146H88.1158ZM100.134 57.7241H104.771V55.5146H93.0367V57.7557H97.6737V75.0846H100.103L100.134 57.7241ZM116.379 70.1605L118.619 75.053H121.237L111.868 54.6624L102.531 75.0846H105.15L107.389 70.1921L116.379 70.1605ZM115.37 67.951H108.43L111.9 60.0283L115.37 67.951Z" fill="black"/>
<path d="M124.707 55.5153H123.445V75.0853H129.691V73.9174H124.707V55.5153ZM134.202 55.5153H132.972V75.0853H134.202V55.5153ZM148.775 65.6475V66.8154H155.778C155.715 68.9618 155.084 70.5715 153.381 72.0235C151.772 73.3177 149.721 74.1699 147.608 74.1699C142.75 74.1699 138.744 70.1296 138.744 65.3003C138.744 60.5972 142.845 56.4307 147.608 56.4307C150.762 56.4307 153.412 58.0404 155.147 60.6287L156.156 59.8081C154.138 56.9988 151.267 55.2312 147.703 55.2312C142.088 55.2312 137.514 59.7449 137.514 65.3634C137.514 70.7609 142.119 75.3378 147.545 75.3378C150.289 75.3378 153.097 74.2015 154.958 72.1813C156.693 70.2875 157.071 68.1411 157.008 65.679L148.775 65.6475ZM161.298 63.8167V55.5153H160.068V75.0853H161.298V64.9846H173.19V75.0853H174.452V55.5153H173.19V63.8167H161.298V63.8167ZM182.969 56.6832H188.016V55.5153H176.66V56.6832H181.707V75.0853H182.937L182.969 56.6832Z" fill="black"/>
</svg>
