<svg width="215" height="130" viewBox="0 0 215 130" fill="none" xmlns="http://www.w3.org/2000/svg">
<rect width="215" height="130" fill="white"/>
<path d="M88.9233 39.4912H106.547V43.4588H93.431V52.6533H105.375V56.6196H93.431V66.9861H106.547V70.9516H88.9233V39.4912" fill="black"/>
<path d="M137.647 45.0799C135.438 43.6372 133.05 42.9162 128.993 42.9162C121.736 42.9162 116.913 48.1902 116.913 55.2217C116.913 62.6144 122.231 67.5266 128.767 67.5266C131.878 67.5266 132.689 67.2117 133.816 66.9859V57.4301H127.19V53.7346H138.323V70.0956C136.61 70.6823 133.635 71.4937 128.722 71.4937C118.761 71.4937 112.135 65.0929 112.135 55.0864C112.135 45.3966 119.167 38.95 128.767 38.95C133.365 38.95 135.393 39.6277 138.008 40.5273L137.647 45.0799" fill="black"/>
<path d="M146.254 39.4912H150.761V66.9861H163.923V70.9516H146.254V39.4912" fill="black"/>
<path d="M182.357 67.5266C189.613 67.5266 192.725 61.4871 192.725 55.2217C192.725 48.8218 189.298 42.8709 182.357 42.9162C175.416 42.8709 171.989 48.8218 171.989 55.2217C171.989 61.4871 175.1 67.5266 182.357 67.5266ZM182.357 38.95C191.912 38.95 197.501 45.8923 197.501 55.2217C197.501 64.7771 191.958 71.4937 182.357 71.4937C172.755 71.4937 167.213 64.7771 167.213 55.2217C167.213 45.8923 172.8 38.95 182.357 38.95" fill="black"/>
<path d="M88.9233 83.0457H90.0791V83.9986H90.1053C90.5777 83.2387 91.2479 82.8916 92.233 82.8916C93.0077 82.8916 93.7824 83.2772 94.1367 84.1666C94.5965 83.2268 95.6078 82.8916 96.2119 82.8916C97.9188 82.8916 98.5365 83.9744 98.5365 85.4037V89.6163H97.3016V85.6995C97.3016 84.8884 97.1048 83.8708 96.1065 83.8708C94.8458 83.8708 94.3471 85.0811 94.3471 86.305V89.6163H93.1127V85.6995C93.1127 84.8884 92.9154 83.8708 91.9176 83.8708C90.6569 83.8708 90.1582 85.0811 90.1582 86.305V89.6163H88.9233V83.0457" fill="black"/>
<path d="M100.114 91.3936C100.272 91.4452 100.482 91.4969 100.692 91.4969C101.796 91.4969 102.163 90.0025 102.163 89.8742C102.163 89.7318 102.006 89.3979 101.927 89.1787L99.6543 83.0459H101.008L102.806 88.4823H102.833L104.671 83.0459H105.919L103.45 89.7578C102.99 91.0198 102.504 92.4761 100.876 92.4761C100.482 92.4761 100.259 92.4244 100.036 92.3861L100.114 91.3937" fill="black"/>
<path d="M110.99 79.9529H112.224V89.6156H110.99V79.9529Z" fill="black"/>
<path d="M114.641 83.0454H115.875V89.616H114.641V83.0454ZM115.954 81.5768H114.562V80.2124H115.954V81.5768Z" fill="black"/>
<path d="M122.823 86.4086C122.823 85.043 122.18 83.8708 120.867 83.8708C119.619 83.8708 119.002 85.1975 119.002 86.3185C119.002 87.5546 119.711 88.6371 120.867 88.6371C122.023 88.6371 122.823 87.6317 122.823 86.4086V86.4086ZM124.058 89.3327C124.058 91.3296 123.007 92.4759 120.604 92.4759C119.895 92.4759 119.278 92.3859 118.201 92.0246L118.332 90.9045C119.278 91.3296 119.842 91.4968 120.748 91.4968C122.048 91.4968 122.823 90.6341 122.823 89.2428V88.5986H122.797C122.272 89.2811 121.405 89.6162 120.552 89.6162C118.634 89.6162 117.689 88.0838 117.689 86.3828C117.689 84.6949 118.661 82.8916 120.683 82.8916C121.865 82.8916 122.522 83.3166 122.889 84.0257H122.915V83.0457H124.058V89.3327" fill="black"/>
<path d="M126.16 79.9529H127.395V83.9856H127.42C127.867 83.2909 128.642 82.8909 129.574 82.8909C131.307 82.8909 132.083 83.9476 132.083 85.7121V89.6156H130.848V86.2145C130.848 84.6817 130.506 83.9344 129.43 83.8701C128.024 83.8701 127.395 84.9767 127.395 86.5756V89.6156H126.16V79.9529" fill="black"/>
<path d="M137.744 84.0265H135.971V87.6194C135.971 88.3797 136.444 88.792 137.009 88.792C137.39 88.792 137.665 88.6764 137.849 88.5608V89.5917C137.573 89.6687 137.192 89.772 136.798 89.772C135.524 89.772 134.737 89.1794 134.737 87.8645V84.0265H133.227V83.0465H134.737V81.5266L135.971 81.1401V83.0465H137.744V84.0265" fill="black"/>
<path d="M143.699 80.0002V91.6532H143.185V80.0002H143.699Z" fill="black"/>
<path d="M149.5 83.0457H150.656V83.9986H150.683C151.155 83.2387 151.826 82.8916 152.809 82.8916C153.584 82.8916 154.358 83.2772 154.714 84.1666C155.173 83.2268 156.184 82.8916 156.788 82.8916C158.496 82.8916 159.113 83.9744 159.113 85.4037V89.6163H157.878V85.6995C157.878 84.8884 157.682 83.8708 156.684 83.8708C155.423 83.8708 154.924 85.0811 154.924 86.305V89.6163H153.69V85.6995C153.69 84.8884 153.492 83.8708 152.493 83.8708C151.233 83.8708 150.734 85.0811 150.734 86.305V89.6163H149.5V83.0457" fill="black"/>
<path d="M160.69 91.3936C160.848 91.4452 161.059 91.4969 161.268 91.4969C162.37 91.4969 162.738 90.0025 162.738 89.8742C162.738 89.7318 162.582 89.3979 162.503 89.1787L160.23 83.0459H161.583L163.382 88.4823H163.409L165.246 83.0459H166.495L164.025 89.7578C163.565 91.0198 163.081 92.4761 161.452 92.4761C161.059 92.4761 160.835 92.4244 160.612 92.3861L160.69 91.3937" fill="black"/>
<path d="M170.908 88.328C171.395 88.637 172.091 88.7912 172.446 88.7912C173.01 88.7912 173.706 88.56 173.706 87.851C173.706 86.6534 170.804 86.7557 170.804 84.9147C170.804 83.5481 171.841 82.8916 173.167 82.8916C173.745 82.8916 174.218 83.0073 174.704 83.1489L174.599 84.2051C174.325 84.0386 173.587 83.8709 173.299 83.8709C172.669 83.8709 172.118 84.1278 172.118 84.6693C172.118 86.0093 175.02 85.6234 175.02 87.7216C175.02 89.1266 173.877 89.7713 172.683 89.7713C172.052 89.7713 171.408 89.7067 170.842 89.4107L170.908 88.3283" fill="black"/>
<path d="M180.076 84.0265H178.302V87.6194C178.302 88.3797 178.775 88.792 179.341 88.792C179.721 88.792 179.996 88.6764 180.18 88.5608V89.5917C179.905 89.6687 179.525 89.772 179.13 89.772C177.855 89.772 177.069 89.1794 177.069 87.8645V84.0265H175.558V83.0465H177.069V81.5266L178.302 81.1401V83.0465H180.076V84.0265" fill="black"/>
<path d="M181.127 91.3936C181.285 91.4452 181.495 91.4969 181.705 91.4969C182.808 91.4969 183.177 90.0025 183.177 89.8742C183.177 89.7318 183.019 89.3979 182.94 89.1787L180.668 83.0459H182.02L183.819 88.4823H183.846L185.686 83.0459H186.931L184.463 89.7578C184.004 91.0198 183.518 92.4761 181.889 92.4761C181.495 92.4761 181.272 92.4244 181.049 92.3861L181.127 91.3937" fill="black"/>
<path d="M188.351 79.9529H189.585V89.6156H188.351V79.9529Z" fill="black"/>
<path d="M196.18 85.6995C196.18 84.6949 195.576 83.8708 194.511 83.8708C193.303 83.8708 192.804 84.8499 192.712 85.6995H196.18ZM196.98 89.3454C196.507 89.5127 195.969 89.7712 194.866 89.7712C192.489 89.7712 191.399 88.3535 191.399 86.2152C191.399 84.2699 192.647 82.8916 194.538 82.8916C196.769 82.8916 197.493 84.4889 197.493 86.6018H192.712C192.712 87.9036 193.75 88.7912 194.918 88.7912C195.733 88.7912 196.678 88.3788 196.98 88.1351V89.3454" fill="black"/>
<path d="M66.5607 35H64.8259L64.4466 39.818L62.1263 54.3082L58.7853 67.5897L36.7337 71.5154L25.9512 90.3093L76.0651 89.9231L78.0222 89.938V71.5461L73.6787 70.4712L67.4718 64.499L66.5607 35" fill="white"/>
<path d="M29.2633 89.6909C29.2633 89.6909 29.0244 80.9888 41.5856 75.7407C46.9154 73.5132 52.6172 72.1142 57.8725 70.3431C62.1966 68.8871 64.9098 65.6534 64.9098 63.2646V35.009H30.3539C23.1028 35.009 17.4985 40.8765 17.4985 48.1271V95.0001H78.0222V89.6909H29.2633" fill="black"/>
<path d="M66.4217 63.2646C66.4217 65.6534 69.0583 69.2419 73.3818 70.6996C74.6925 71.1378 76.6504 71.5231 78.022 71.896V35.009H66.4209L66.4219 63.2646" fill="black"/>
</svg>
