<svg width="215" height="130" viewBox="0 0 215 130" fill="none" xmlns="http://www.w3.org/2000/svg">
<rect width="215" height="130" fill="white"/>
<path d="M20 39.5868V90.3336H54.6998V82.0242H30.6769V67.5569H52.3272V59.6926H30.6027V47.6736H53.736V39.5868H20Z" fill="black"/>
<path d="M144.193 52.5699C144.193 43.2218 134.702 38.251 126.472 38.3252C104.451 38.4735 105.934 61.1019 105.563 64.3663C105.267 85.0656 114.461 91.3719 127.213 91.6687C140.041 91.9654 144.489 82.6915 144.193 78.0916H139.818C139.892 81.8012 136.556 87.5881 127.658 87.9591C121.801 88.1817 109.789 85.585 109.864 65.405C109.864 55.315 112.236 42.1089 126.917 42.4798C135.073 42.6282 139.151 46.8571 139.151 52.5699H144.193V52.5699Z" fill="black"/>
<path d="M96.8881 75.8663C96.4432 72.6019 94.6637 65.6278 89.9184 64.3666C89.9184 64.3666 98.1485 62.3635 98.3709 52.6444C98.5192 48.2671 95.331 39.5868 87.3975 39.5868H62.4106V90.4078H69.6027V67.2601C69.6027 67.2601 78.7225 67.2601 82.0591 67.2601C82.0591 67.2601 88.3614 67.2601 89.4736 76.534C89.9926 78.7598 90.8081 85.5112 92.3652 90.3335C92.3652 90.3335 99.5815 90.3969 100.147 90.4066C99.551 90.3795 97.7023 82.0882 96.8881 75.8663ZM83.1712 61.1022C79.6864 61.1022 69.6027 61.1022 69.6027 61.1022V45.077C69.6027 45.077 83.8385 45.077 85.3214 45.077C85.3214 45.077 91.253 45.0027 91.6238 52.3476C91.9945 54.8701 89.7701 61.1022 83.1712 61.1022Z" fill="black"/>
<path d="M100.146 90.4083C100.147 90.4083 100.148 90.4095 100.149 90.4095C100.2 90.4095 100.193 90.4091 100.146 90.4083Z" fill="black"/>
<path d="M194.909 61.6961C194.315 51.4577 189.051 38.6968 171.775 38.6968C153.61 38.771 149.013 51.161 148.494 61.6961C147.678 77.2021 154.129 91.521 171.775 91.521C189.274 91.521 195.872 77.2021 194.909 61.6961ZM171.775 88.5533C157.539 88.5533 151.385 78.0182 151.682 64.2928C151.756 60.2123 150.941 41.4418 171.775 41.5903C191.35 41.7386 191.572 60.2865 191.572 64.367C191.572 78.1666 185.863 88.5533 171.775 88.5533Z" fill="black"/>
</svg>
