<svg width="215" height="130" viewBox="0 0 215 130" fill="none" xmlns="http://www.w3.org/2000/svg">
<rect width="215" height="130" fill="white"/>
<path d="M63.5782 50.4067H49.0327V61.2137H62.4781V65.3076H49.0327V81.832H44.0049V46.3128H63.5782V50.4067V50.4067ZM79.3287 73.9949V71.0223H76.7246C71.2065 71.0223 69.3899 72.7705 69.3899 76.2643C69.3899 78.0951 71.4768 78.9428 72.9288 78.9428C76.6545 78.9428 77.6252 76.8294 79.3287 73.9949ZM79.3287 77.9928C77.3927 80.0882 74.8927 82.4186 71.8405 82.4186C68.605 82.4186 65.4765 80.099 65.4765 76.5038C65.4765 70.668 68.8439 67.7545 77.4681 67.7545H79.3278C79.3278 65.9641 79.2488 63.5432 79.0863 62.7332C78.9246 61.9214 78.472 61.2567 77.7366 60.7266C76.9922 60.1902 76.3259 59.9238 74.7149 59.9238C71.325 59.9238 70.3426 61.3366 70.2331 64.154H66.4373C66.7193 59.0331 69.0379 56.4641 74.9142 56.4641C77.6639 56.4641 79.2865 57.0992 80.823 58.3747C82.3513 59.6439 83.1236 61.9806 83.1236 65.6977V81.8311H79.3278V77.9928H79.3287V77.9928V77.9928ZM163.305 73.9949V71.0223H160.701C155.183 71.0223 153.366 72.7705 153.366 76.2643C153.366 78.0951 155.453 78.9428 156.905 78.9428C160.631 78.9428 161.603 76.8294 163.305 73.9949ZM163.305 77.9928C161.371 80.0882 158.87 82.4186 155.818 82.4186C152.581 82.4186 149.453 80.099 149.453 76.5038C149.453 70.668 152.82 67.7545 161.445 67.7545H163.304C163.304 65.9641 163.225 63.5432 163.064 62.7332C162.9 61.9214 162.449 61.2567 161.713 60.7266C160.968 60.1902 160.303 59.9238 158.691 59.9238C155.301 59.9238 154.319 61.3366 154.209 64.154H150.413C150.695 59.0331 153.013 56.4641 158.891 56.4641C161.639 56.4641 163.261 57.0992 164.799 58.3747C166.327 59.6439 167.099 61.9806 167.099 65.6977V81.8311H163.303V77.9928H163.305L163.305 77.9928ZM92.9313 60.7795C94.4561 58.2715 96.7531 56.5233 99.263 56.4533C102.125 56.3735 104.272 57.4678 105.843 59.7812C107.418 62.099 108.199 65.2232 108.199 69.1574C108.199 73.2495 107.317 76.4769 105.561 78.8548C103.805 81.2301 101.591 82.4186 98.9244 82.4186C90.7869 82.4186 89.0242 76.4922 89.0242 72.4835V46.5155H92.9313V60.7795V60.7795ZM98.4763 78.9428C100.103 78.9428 101.391 78.1247 102.351 76.4778C103.305 74.8417 103.789 72.401 103.789 69.1583C103.789 66.0834 103.331 63.7557 102.427 62.1582C101.527 60.5696 100.26 59.9058 98.6398 59.9139C95.4591 59.9292 93.0247 64.9344 92.9322 68.5627C92.9008 69.7755 92.9322 70.9891 92.9322 72.2036C92.9313 75.9522 93.6991 78.9427 98.4763 78.9427L98.4763 78.9428ZM118.261 60.7795C119.785 58.2715 122.082 56.5233 124.592 56.4533C127.455 56.3735 129.601 57.4678 131.173 59.7812C132.746 62.099 133.528 65.2232 133.528 69.1574C133.528 73.2495 132.646 76.4769 130.89 78.8548C129.134 81.2301 126.919 82.4186 124.253 82.4186C116.116 82.4186 114.353 76.4922 114.353 72.4835V46.5155H118.261V60.7795V60.7795ZM123.805 78.9428C125.432 78.9428 126.72 78.1247 127.68 76.4778C128.633 74.8417 129.117 72.401 129.117 69.1583C129.117 66.0834 128.659 63.7557 127.754 62.1582C126.854 60.5696 125.588 59.9058 123.967 59.9139C120.788 59.9292 118.353 64.9344 118.261 68.5627C118.229 69.7755 118.261 70.9891 118.261 72.2036C118.261 75.9522 119.029 78.9427 123.805 78.9427V78.9428ZM143.163 81.832H139.035V57.1942H143.163V81.832V81.832ZM143.163 51.2238H139.035V46.346H143.163V51.2238ZM177.57 62.6614C179.474 59.0151 182.972 56.5089 185.863 56.6596C188.977 56.8229 191.5 58.9811 191.5 64.6429V81.8311H187.4V65.6977C187.4 62.3717 186.274 60.8872 184.904 60.8315C182.164 60.7185 178.445 64.1603 177.57 68.5188V81.832H173.753V57.1736H177.57V62.6614V62.6614Z" fill="black"/>
<path d="M29.1537 55.3745C32.267 55.3745 34.8074 57.9112 34.8074 61.0219C34.8074 64.1327 32.267 66.6685 29.1537 66.6685C26.0395 66.6685 23.5 64.1318 23.5 61.0219C23.5 57.9121 26.0395 55.3745 29.1537 55.3745H29.1537V55.3745ZM29.1537 72.3922C32.267 72.3922 34.8074 74.9289 34.8074 78.0406C34.8074 81.1505 32.267 83.6872 29.1537 83.6872C26.0395 83.6872 23.5 81.1505 23.5 78.0406C23.4991 74.9289 26.0395 72.3922 29.1537 72.3922H29.1537Z" fill="black"/>
</svg>
