<svg width="215" height="130" viewBox="0 0 215 130" fill="none" xmlns="http://www.w3.org/2000/svg">
<rect width="215" height="130" fill="white"/>
<path d="M196.923 84.0377C196.983 84.485 196.864 84.9919 196.834 85.469C196.446 87.8546 195.999 90.2104 194.717 92.268C193.941 93.6397 192.987 94.8623 191.824 95.9955C191.078 96.7708 190.214 97.4268 189.319 97.9337C187.44 98.9774 185.353 99.6335 183.206 100.051C181.387 100.319 179.508 100.349 177.689 100.14C176.347 99.9317 175.065 99.6335 173.813 99.216C171.457 98.4407 169.25 97.3075 167.163 95.9358C166.715 95.6376 166.328 95.1903 166.268 94.6536L166.238 93.1327L166.029 87.2582L165.851 82.487C165.91 82.2485 166 81.9503 166.238 81.8608C166.477 81.8012 166.745 81.7415 166.954 81.8906C167.342 82.0696 167.401 82.487 167.521 82.8449C168.296 85.4392 168.952 88.0634 170.115 90.4788C171.397 93.1327 173.723 95.7569 176.347 96.9199C177.958 97.7548 179.777 98.1723 181.685 98.2319C183.623 98.1425 185.502 97.7548 187.112 96.7708C189.11 95.5482 191.138 93.5502 191.854 91.2243C192.271 89.942 192.659 88.6299 192.57 87.1688C192.391 85.1112 192.092 83.1431 191.108 81.4434C190.542 80.4295 189.886 79.5051 189.14 78.6105L184.399 73.2429C184.309 72.9745 184.011 72.885 183.802 72.6465L174.976 62.6568C172.918 60.3607 170.95 57.9453 169.161 55.4702C168.445 54.3371 167.789 53.2337 167.312 52.0111C166.775 50.699 166.387 49.3572 166.208 47.896C166 46.5839 166 45.1526 166.03 43.7808C166.268 41.4549 166.924 39.278 168.087 37.3397C168.743 36.0873 169.847 35.0138 170.86 33.9701C171.457 33.4632 172.083 33.0755 172.709 32.658C174.17 31.8231 175.721 31.1968 177.391 30.839C179.747 30.2426 182.371 30.2128 184.757 30.7495C186.546 31.1372 188.216 31.7932 189.826 32.6282C190.84 33.1948 191.884 33.7912 192.719 34.6559C193.077 34.9542 193.136 35.3716 193.196 35.7891L193.405 37.966C193.554 40.3217 193.852 42.5582 194.001 44.914C193.971 45.2718 193.762 45.6595 193.405 45.7788C193.196 45.7788 192.987 45.7191 192.868 45.5402C192.51 45.0035 192.45 44.3176 192.242 43.7212C191.705 41.8127 191.079 39.9937 189.975 38.3536V38.2642C189.438 37.5485 188.902 36.7732 188.216 36.1171C186.934 34.7454 185.443 33.8508 183.892 33.165C181.506 32.2405 178.316 32.3002 175.99 33.2544C174.26 33.9403 172.501 35.4015 171.606 37.2205C170.711 38.8009 170.503 40.8585 170.652 42.767C170.532 42.8862 170.741 42.8862 170.711 43.0353C170.89 44.7649 171.576 46.2559 172.381 47.7171C173.067 48.8502 173.872 49.9237 174.737 50.9973L178.286 54.9931L183.087 60.3011L187.112 64.7442C190.751 68.7401 194.568 72.7061 196.059 77.7457C196.595 79.7138 196.923 81.8608 196.804 84.0079L196.923 84.0377Z" fill="black"/>
<path d="M86.8564 98.6778C86.7073 99.1251 86.26 99.1549 85.8723 99.1847L81.2502 99.1549L74.5407 99.2145L65.2367 99.1251L57.2151 99.1847C56.4696 99.1549 55.7241 99.304 55.0084 99.1251C54.7997 99.0654 54.6207 98.8567 54.5313 98.6181C54.4716 98.3796 54.4418 98.0814 54.5909 97.9025C54.8295 97.5446 55.247 97.5148 55.6048 97.3657C57.0064 97.157 58.4079 97.1868 59.5709 96.322C60.4059 95.5169 60.8234 94.4434 60.9426 93.2804L60.9128 74.5833L60.883 60.0312L61.0321 36.8314C60.9128 35.6982 60.7339 34.565 59.72 33.8792C58.4676 32.8355 56.7082 33.0144 55.2768 32.5373C55.0681 32.3584 54.9786 32.1198 54.9786 31.8514C54.9786 31.6129 55.0382 31.3743 55.2172 31.255C55.4855 31.1059 55.7837 31.0165 56.1118 31.0165L73.2286 31.1059C73.3777 31.1059 73.4075 31.1059 73.5268 31.0761C74.0934 31.1358 74.8985 30.8972 75.2563 31.5831C75.316 31.7918 75.4054 32.1198 75.2862 32.3286C75.0774 32.7162 74.6898 32.7162 74.3319 32.746C72.6023 32.746 70.9026 32.8951 69.4414 33.6704C68.9345 33.909 68.4573 34.3563 68.0995 34.8632C67.8908 35.3702 67.682 35.8771 67.7118 36.4735L67.6224 44.3161L67.4434 61.6117C67.3838 64.4446 67.4434 67.3669 67.4136 70.1998V85.5869L67.4733 94.6223C67.6224 95.4274 67.1751 96.3816 68.0398 96.7991C68.8152 97.0377 69.68 96.9482 70.4851 96.9184C72.7813 96.7693 74.988 96.7097 77.1052 96.1133C78.9242 95.6361 80.6836 95.0099 82.2641 93.8469C84.5006 91.9385 85.097 89.2249 86.1109 86.7498L87.1248 83.7082C87.2441 83.4994 87.423 83.3205 87.6615 83.3205C87.9597 83.3504 88.2281 83.4995 88.3772 83.7678L88.4667 84.1555L88.258 86.0043L86.8564 98.6778Z" fill="black"/>
<path d="M48.7763 45.8082C48.5676 45.9871 48.2097 45.9871 47.9712 45.8977C47.673 45.7784 47.5537 45.3907 47.4642 45.1223C46.8082 42.8859 46.1223 40.709 45.2277 38.5918C44.6313 37.2797 43.8262 35.8185 42.5141 35.073C39.532 33.3435 35.7747 33.433 32.2261 33.3435C32.0472 33.4031 31.749 33.3435 31.6595 33.5522L31.5999 34.0592L31.4508 42.7069L31.4209 45.7784L31.242 61.0163L31.2718 62.5073C31.3017 62.6564 31.4806 62.7161 31.5999 62.7459C33.9855 62.8055 36.4307 62.9248 38.6076 62.2688C40.2775 61.6127 41.1423 59.8534 41.6493 58.2431C42.0668 56.8117 42.4246 55.3506 42.8719 53.949C43.021 53.7105 43.2894 53.5315 43.5578 53.5614C43.7963 53.621 44.0647 53.7701 44.184 54.0087L44.2735 54.3963L44.0945 62.5371L44.0647 65.7875L44.2436 74.0178C44.2138 74.3458 44.0051 74.644 43.7069 74.7335C43.4683 74.8229 43.1999 74.7335 43.021 74.5546C42.8421 74.3756 42.7526 74.1669 42.693 73.9582C42.1562 72.3181 41.9177 70.5885 41.2914 69.0081C40.8441 67.8451 40.2775 66.4435 39.0251 65.9068C38.0112 65.3402 36.7289 65.3402 35.5063 65.2209C34.1346 65.1315 32.7628 65.1911 31.3911 65.3104C31.2718 65.3402 31.2122 65.4595 31.2122 65.5788L31.0333 75.8666V76.3437L31.0929 85.0213L31.2122 92.2676C31.2718 92.9534 31.242 93.7287 31.5104 94.355C31.7191 95.3688 32.6137 96.3231 33.5978 96.6511C34.9695 97.2773 36.5798 97.3071 38.0708 97.6351C38.2796 97.6948 38.4585 97.8737 38.5182 98.0824C38.5778 98.321 38.6374 98.6192 38.4585 98.7981C38.2796 99.0963 38.0112 99.0963 37.7428 99.156L27.932 99.1261L19.7016 99.1262C19.135 99.0963 18.4491 99.2156 18.1211 98.6192C18.0317 98.3807 18.0317 98.0825 18.1808 97.8439C18.2404 97.6351 18.4193 97.6053 18.5982 97.5457C20.0892 97.3071 21.6101 97.0388 22.8923 96.174C23.6975 95.4285 24.0255 94.3848 24.2343 93.3411C24.443 91.4326 24.5026 89.4943 24.5623 87.5262L24.6219 84.9319L24.8008 68.352L24.8307 64.8333L24.8903 59.0184L24.8605 52.5475L24.8008 50.639L24.7412 42.3491L24.6517 36.7728C24.5026 35.6694 24.3237 34.5065 23.3397 33.7908C22.1767 32.9558 20.7751 32.7769 19.3736 32.5085C19.1648 32.4191 18.9561 32.1805 18.9263 31.9718C18.8666 31.763 18.9561 31.5543 19.0157 31.3754C19.1946 31.0772 19.4928 31.0772 19.791 31.0175C22.5941 31.0772 25.3674 30.9579 28.2302 31.0474L33.4785 31.0772L44.7208 31.0474L47.6431 31.0175C47.9413 31.0772 48.1501 31.2561 48.2694 31.5245L48.329 31.8227L48.6272 37.8463L49.1043 44.9136C49.0149 45.2714 49.0149 45.5995 48.7763 45.8082Z" fill="black"/>
<path d="M100.276 79.5943C107.582 92.6554 125.743 103.599 141.905 93.6395C158.694 83.292 157.024 61.0166 150.493 50.6094C140.176 34.119 123.238 27.9761 108.894 36.4748C95.4751 44.4069 91.688 64.2073 100.276 79.5943ZM157.561 46.6434C166.895 62.8356 162.362 84.9619 143.038 95.6673C125.534 105.359 102.662 100.021 93.2386 83.7095C82.235 64.6546 91.3003 43.9894 107.791 34.4769C125.295 24.3977 148.078 30.2126 157.561 46.6434Z" fill="black"/>
</svg>
