<svg width="215" height="130" viewBox="0 0 215 130" fill="none" xmlns="http://www.w3.org/2000/svg">
<rect width="215" height="130" fill="white"/>
<path d="M120.216 42.7041H111.649L104.558 87.1941H110.976L112.56 77.206H119.336L120.937 87.1941H127.346L120.216 42.7041ZM113.592 70.782L115.942 51.6084L118.305 70.782H113.592Z" fill="black"/>
<path d="M150.574 85.9221L145.531 67.0779C147.696 65.8954 149.997 62.9944 149.997 55.8904C149.997 46.395 146.324 42.7684 139.127 42.7684H130.123V87.2443H136.541V69.008C137.481 69.008 138.563 68.9623 139.368 68.8806L144.288 87.2658H150.93V87.244L150.574 85.9221ZM138.82 62.7278H136.541V49.0457H138.82C142.286 49.0457 143.582 50.5908 143.582 55.8901C143.582 61.1798 142.286 62.7278 138.82 62.7278Z" fill="black"/>
<path d="M199.5 42.7684H192.702V87.2489H199.5V42.7684Z" fill="black"/>
<path d="M161.01 42.7684H154.21V87.2489H161.01V42.7684Z" fill="black"/>
<path d="M180.909 42.7684V67.5826L173.058 42.7684H166.643V87.2442H173.058V62.6775L180.873 87.1645L180.909 87.1477V87.2439L187.332 87.2442V42.7684H180.909Z" fill="black"/>
<path d="M96.2708 57.6162V54.1599C96.2708 50.4011 94.7374 48.7958 92.9823 48.7958C90.2422 48.7958 89.3601 50.4011 89.3601 53.7251V76.2728C89.3601 79.5988 90.2422 81.1968 92.9823 81.1968C95.4486 81.1968 96.2708 79.5988 96.2708 76.7028V71.3506H103.071V76.4574C103.071 82.7445 99.778 87.854 92.9826 87.854C85.8483 87.854 82.5674 82.7445 82.5674 76.4574V53.5422C82.5674 47.2621 85.8486 42.1456 92.9826 42.1456C99.778 42.1456 103.071 47.6926 103.071 54.3495V57.6156H96.2708V57.6162Z" fill="black"/>
<path d="M73.5615 53.7251C73.2949 49.9087 71.5064 48.7958 69.9921 48.7958C67.8216 48.7958 66.3312 50.4011 66.3312 53.1794C66.3312 60.7523 79.9916 64.3861 79.9916 76.4577C79.9916 83.7879 75.648 87.8543 69.3528 87.8543C63.1317 87.8543 59.5455 82.1945 59.2739 75.54L65.6703 74.4923C65.9419 78.9863 67.514 81.1971 69.6796 81.1971C72.0184 81.1971 73.5879 79.7889 73.5879 77.1356C73.5879 68.3275 59.9299 65.9865 59.9299 53.2346C59.9299 46.1568 63.7278 42.1456 70.3332 42.1456C75.8114 42.1456 79.3711 46.6397 79.9675 52.9244L73.5615 53.7251Z" fill="black"/>
<path d="M46.6218 42.1456C39.5787 42.1456 36.3193 47.2623 36.3193 53.5422V76.4574C36.3193 82.7445 39.5787 87.854 46.6218 87.854C53.6767 87.854 56.9265 82.7445 56.9265 76.4574V53.5422C56.9265 47.262 53.6767 42.1456 46.6218 42.1456ZM50.2057 76.2725C50.2057 79.5985 49.3331 81.1965 46.6218 81.1965C43.9175 81.1965 43.0475 79.5985 43.0475 76.2725V53.7247C43.0475 50.4008 43.9177 48.7955 46.6218 48.7955C49.3331 48.7955 50.2057 50.4008 50.2057 53.7247V76.2725Z" fill="black"/>
<path d="M34.2539 49.5594V42.7511L15.5 42.768V87.2437H22.2953V67.6757H31.189V60.8793H22.2953V49.5597H34.2539V49.5594Z" fill="black"/>
</svg>
