<svg width="215" height="130" viewBox="0 0 215 130" fill="none" xmlns="http://www.w3.org/2000/svg">
<rect width="215" height="130" fill="white"/>
<path d="M61.8048 60.0874H59.687V71.084H61.8048V60.0874Z" fill="black"/>
<path d="M66.2044 63.5896C66.2044 62.8565 66.123 61.6346 66.0415 60.0055H68.1593L68.3222 61.879C69.381 60.3313 70.9286 59.7611 73.1279 59.7611C76.3859 59.7611 78.015 61.3088 78.015 64.4856V71.0021H75.8158V64.8114C75.8158 62.3677 74.8383 61.2273 72.4762 61.2273C69.9512 61.2273 68.3222 62.6936 68.3222 64.8929V71.0836H66.2044C66.2044 71.0836 66.2044 63.5896 66.2044 63.5896Z" fill="black"/>
<path d="M85.2636 60.0871H88.4402V61.5533H85.2636V66.685C85.2636 68.8029 85.2636 69.7804 86.7297 69.7804C87.137 69.7804 87.7886 69.6989 88.4402 69.536V71.0837C87.7072 71.1651 87.0556 71.2466 86.4039 71.2466C84.0418 71.2466 83.1458 70.5135 83.1458 68.1513V61.4718H80.3765V60.0871H83.1458V58.1321L85.2636 57.1547V60.0871V60.0871Z" fill="black"/>
<path d="M91.3724 63.8339C91.3724 62.6121 91.2909 61.3903 91.2095 60.087H93.4087L93.4901 62.1234C94.3047 60.4942 95.6893 59.7611 97.97 59.7611H98.3773V61.7161H97.8886C94.8748 61.7161 93.4901 63.0194 93.4901 65.8704V71.0836H91.3724V63.8339V63.8339Z" fill="black"/>
<path d="M109.13 65.5439C109.13 65.7068 109.13 65.8697 109.13 66.0326C109.13 68.3949 107.501 69.8611 105.057 69.8611C103.184 69.8611 102.125 69.0465 102.125 67.7432C102.125 65.9512 103.591 65.5439 106.605 65.5439C106.605 65.5439 109.13 65.5439 109.13 65.5439ZM109.374 71.0829H111.329C111.248 70.3498 111.166 69.5352 111.166 68.6392V64.2406C111.166 61.3896 109.374 59.842 106.035 59.842C102.777 59.842 100.985 61.0638 100.822 63.1002H103.021C103.184 61.8784 104.161 61.3082 105.953 61.3082C108.071 61.3082 109.048 62.2042 109.048 64.1591H106.605C102.125 64.1591 99.9258 65.1366 99.9258 67.8247C99.9258 69.9425 101.636 71.4087 104.65 71.4087C106.523 71.4087 107.99 70.7571 109.211 69.4538L109.374 71.0829Z" fill="black"/>
<path d="M121.347 55.2812H119.962V71.4096H121.347V55.2812Z" fill="black"/>
<path d="M126.56 60.0874H125.175V71.3283H126.56V60.0874Z" fill="black"/>
<path d="M131.203 65.4624C131.203 62.6115 132.506 60.9009 134.624 60.9009C136.823 60.9009 138.208 62.6115 138.208 65.5439C138.208 68.3949 136.823 70.024 134.624 70.024C132.425 70.1054 131.203 68.4763 131.203 65.4624ZM139.511 70.4313V62.9373C139.511 62.4486 139.593 61.4711 139.674 60.0863H138.289L138.208 61.8784C137.23 60.4936 136.09 59.842 134.461 59.842C131.61 59.842 129.737 62.0413 129.737 65.4624C129.737 69.0465 131.529 71.2458 134.298 71.2458C136.009 71.2458 137.23 70.5942 138.126 69.2094V70.92C138.126 73.3637 136.905 74.667 134.624 74.667C132.751 74.667 131.692 73.9339 131.61 72.6306H130.063C130.144 74.7484 131.692 75.8074 134.543 75.8074C138.045 75.7259 139.511 74.0968 139.511 70.4313Z" fill="black"/>
<path d="M143.501 55.2812H144.886V62.0421C145.945 60.7388 147.085 60.0057 148.47 60.0057C151.077 60.0057 152.298 61.4719 152.298 64.4858V71.4096H150.914V64.5672C150.914 62.2865 150.181 61.2275 148.307 61.2275C146.352 61.2275 144.886 62.6123 144.886 64.7302V71.3281H143.501V55.2812V55.2812Z" fill="black"/>
<path d="M159.711 70.4312C160.118 70.4312 160.525 70.3498 160.932 70.2683V71.4902C160.281 71.6531 159.792 71.6531 159.385 71.6531C157.674 71.6531 156.778 70.7571 156.778 69.0465V61.2267H154.579V60.0863H156.778V57.8055L158.163 57.2353V60.1678H160.688V61.2267H158.163V68.4763C158.163 69.7796 158.489 70.4312 159.711 70.4312Z" fill="black"/>
<path d="M164.761 60.0874H163.376V71.3283H164.761V60.0874Z" fill="black"/>
<path d="M168.671 62.6938C168.671 61.7164 168.589 60.9018 168.589 60.0872H169.974L170.056 61.9607C171.114 60.6574 172.336 59.9243 173.721 59.9243C176.409 59.9243 177.549 61.3905 177.549 64.4044V71.3282H176.164V64.5673C176.164 62.2866 175.513 61.2276 173.558 61.2276C171.603 61.2276 170.137 62.6124 170.137 64.7302V71.3282H168.671V62.6938Z" fill="black"/>
<path d="M182.029 65.4624C182.029 62.6115 183.332 60.9009 185.45 60.9009C187.649 60.9009 189.034 62.6115 189.034 65.5439C189.034 68.3949 187.649 70.024 185.45 70.024C183.25 70.1054 182.029 68.4763 182.029 65.4624ZM190.337 70.4313V62.9373C190.337 62.4486 190.418 61.4711 190.5 60.0863H189.115L189.034 61.8784C188.056 60.4936 186.916 59.842 185.287 59.842C182.436 59.842 180.562 62.0413 180.562 65.4624C180.562 69.0465 182.354 71.2458 185.124 71.2458C186.834 71.2458 188.056 70.5942 188.952 69.2094V70.92C188.952 73.3637 187.73 74.667 185.45 74.667C183.576 74.667 182.517 73.9339 182.517 72.6306H180.97C181.051 74.7484 182.599 75.8074 185.45 75.8074C188.871 75.7259 190.337 74.0968 190.337 70.4313Z" fill="black"/>
<path d="M50.6463 61.7974C50.0762 60.0869 48.2028 59.1094 46.4923 59.6796L41.035 61.4716V55.6882C41.035 53.8962 39.5688 52.3485 37.6954 52.3485C35.822 52.3485 34.3559 53.8147 34.3559 55.6882V61.4716L28.8171 59.6796C27.1066 59.1094 25.2332 60.0869 24.663 61.7974C24.0929 63.508 25.0703 65.3815 26.7808 65.9517L32.2381 67.7437L28.8171 72.3867C27.7582 73.853 28.084 75.9708 29.5502 77.0298C31.0163 78.0887 33.1341 77.7629 34.193 76.2966L37.614 71.6536L41.035 76.2966C42.0938 77.7629 44.2116 78.0887 45.6777 77.0298C47.1439 75.9708 47.4697 73.853 46.4108 72.3868L42.9898 67.7437L48.4471 65.9517C50.2391 65.3815 51.2165 63.508 50.6463 61.7974Z" fill="black"/>
</svg>
