<svg width="215" height="130" viewBox="0 0 215 130" fill="none" xmlns="http://www.w3.org/2000/svg">
<rect width="215" height="130" fill="white"/>
<path d="M27.8672 67.2793H32.9515L42.3939 56.1508C42.7901 55.6145 43.1863 55.3464 43.9786 55.3464H49.2611C50.0534 55.3464 50.3176 56.0168 49.9214 56.6872L38.3 70.3631L49.3931 86.8548C49.9214 87.5251 49.5252 88.1955 48.8649 88.1955H43.1863C42.658 88.1955 42.2618 87.9274 41.8656 87.3911L32.2912 73.1788H27.8672V87.1229C27.8672 87.7933 27.471 88.1955 26.8107 88.1955H22.0565C21.3962 88.1955 21 87.7933 21 87.1229V42.0726C21 41.4022 21.3962 41 22.0565 41H26.8107C27.471 41 27.8672 41.4022 27.8672 42.0726V67.2793ZM63.1275 88.1955H58.5053C57.845 88.1955 57.3168 87.7933 57.3168 87.1229V69.5587C57.3168 59.771 64.184 54.5419 72.1076 54.5419C74.3527 54.5419 76.2015 54.9441 77.6542 55.6145C78.3145 55.8827 78.4466 56.419 78.0504 57.0894L75.8053 60.4413C75.2771 61.2458 74.7489 61.1117 74.2206 60.9777C73.6924 60.8436 72.7679 60.7095 72.1076 60.7095C67.4855 60.7095 64.184 63.7933 64.184 70.7654V87.1229C64.184 87.7933 63.7878 88.1955 63.1275 88.1955ZM106.972 78.676C107.368 78.2737 107.764 78.1397 108.292 78.676L110.934 81.3575C111.33 81.7598 111.462 82.162 111.198 82.5642C108.821 85.514 103.802 89 97.1992 89C87.4267 89 79.5031 82.6983 79.5031 71.7039C79.5031 61.1117 87.2947 54.5419 96.671 54.5419C106.179 54.5419 113.443 60.7095 113.443 71.5698C113.443 72.6425 112.915 73.0447 112.122 73.0447H86.5023C87.0305 79.6816 91.5866 83.2346 97.4634 83.2346C102.614 83.2346 105.255 80.8212 106.972 78.676ZM86.8985 67.9497H106.377C105.123 63.0559 101.359 60.4413 96.671 60.4413C91.9168 60.4413 88.1531 63.0559 86.8985 67.9497ZM119.65 71.7039C119.65 61.2458 127.705 54.5419 137.082 54.5419C146.59 54.5419 154.778 61.2458 154.778 71.7039C154.778 82.2961 146.59 89 137.082 89C127.705 89 119.65 82.2961 119.65 71.7039ZM147.647 71.7039C147.647 64.8659 143.024 60.7095 137.082 60.7095C131.139 60.7095 126.781 64.8659 126.781 71.7039C126.781 78.5419 131.139 82.8324 137.082 82.8324C143.024 82.8324 147.647 78.5419 147.647 71.7039ZM169.965 88.1955H165.211C164.55 88.1955 164.154 87.7933 164.154 87.1229V70.6313C164.154 60.7095 169.833 54.5419 179.077 54.5419C188.453 54.5419 194 60.7095 194 70.6313V87.1229C194 87.7933 193.604 88.1955 192.944 88.1955H188.189C187.529 88.1955 187.133 87.7933 187.133 87.1229V70.4972C187.133 64.1955 184.36 60.8436 179.077 60.8436C173.927 60.8436 171.021 64.1955 171.021 70.4972V87.1229C171.021 87.7933 170.625 88.1955 169.965 88.1955Z" fill="black"/>
</svg>
