<svg width="215" height="130" viewBox="0 0 215 130" fill="none" xmlns="http://www.w3.org/2000/svg">
<rect width="215" height="130" fill="white"/>
<path opacity="0.9" fill-rule="evenodd" clip-rule="evenodd" d="M69.5 96.4883H145.5V20.5195H69.5V96.4883ZM70.5929 95.3944H144.404V21.6135H70.5929V95.3944Z" fill="black"/>
<path opacity="0.9" fill-rule="evenodd" clip-rule="evenodd" d="M75.0786 54.1702V89.6201H90.2721V85.5768H79.5012V54.1702H75.0786Z" fill="black"/>
<path opacity="0.9" fill-rule="evenodd" clip-rule="evenodd" d="M125.726 54.1702V89.6201H140.921V85.5768H130.147V54.1702H125.726Z" fill="black"/>
<path opacity="0.9" fill-rule="evenodd" clip-rule="evenodd" d="M69.5 100.95V107.243H72.1968V106.526H70.2846V100.95H69.5Z" fill="black"/>
<path opacity="0.9" fill-rule="evenodd" clip-rule="evenodd" d="M79.496 103.337V105.497C79.496 106.124 79.3376 106.677 78.5952 106.677C77.8509 106.677 77.6924 106.124 77.6924 105.497V103.337H76.9395V105.582C76.9395 106.65 77.4427 107.378 78.5952 107.378C79.7467 107.378 80.249 106.65 80.249 105.582V103.337H79.496Z" fill="black"/>
<path opacity="0.9" fill-rule="evenodd" clip-rule="evenodd" d="M85.2896 105.325C85.2896 106.494 86.2336 107.377 87.3851 107.377C87.7789 107.377 88.1198 107.303 88.4627 107.119V106.161C88.1784 106.476 87.8279 106.677 87.3938 106.677C86.6005 106.677 86.0406 106.093 86.0406 105.291C86.0406 104.574 86.6091 103.922 87.3438 103.922C87.7952 103.922 88.1631 104.105 88.4627 104.447V103.48C88.1631 103.304 87.7789 103.22 87.4264 103.22C86.224 103.22 85.2896 104.113 85.2896 105.325Z" fill="black"/>
<path opacity="0.9" fill-rule="evenodd" clip-rule="evenodd" d="M95.2209 103.874C95.8221 103.874 96.2062 104.264 96.2984 104.849H94.1097C94.2019 104.289 94.637 103.874 95.2209 103.874ZM93.3164 105.325C93.3164 106.476 94.0434 107.378 95.2362 107.378C95.9969 107.378 96.6826 106.986 97.0495 106.311L96.4137 105.949C96.1304 106.418 95.8221 106.71 95.2468 106.71C94.5275 106.71 94.077 106.084 94.0684 105.417H97.0495V105.3C97.0495 104.14 96.4636 103.22 95.2209 103.22C93.9599 103.22 93.3164 104.124 93.3164 105.325Z" fill="black"/>
<path opacity="0.9" fill-rule="evenodd" clip-rule="evenodd" d="M102.691 105.516C102.691 104.914 103.402 104.486 103.835 104.187L103.91 104.137L105.304 105.839C104.912 106.232 104.444 106.673 103.861 106.673C103.259 106.673 102.691 106.117 102.691 105.516ZM103.869 102.885C103.686 102.652 103.494 102.418 103.494 102.1C103.494 101.697 103.818 101.433 104.195 101.433C104.613 101.433 104.928 101.675 104.928 102.118C104.928 102.574 104.494 102.835 104.177 103.084L104.077 103.151L103.869 102.885ZM102.759 102.192C102.759 102.726 103.093 103.191 103.451 103.57L103.059 103.852C102.456 104.287 101.957 104.72 101.957 105.523C101.957 106.61 102.833 107.376 103.886 107.376C104.628 107.376 105.297 106.95 105.773 106.391L106.458 107.241H107.426L106.3 105.848L107.067 104.947L106.565 104.43L105.832 105.281L104.52 103.694C105.048 103.309 105.665 102.835 105.665 102.124C105.665 101.298 104.979 100.812 104.212 100.812C103.384 100.812 102.759 101.322 102.759 102.192Z" fill="black"/>
<path opacity="0.9" fill-rule="evenodd" clip-rule="evenodd" d="M112.238 100.95V107.243H114.935V106.526H113.021V100.95H112.238Z" fill="black"/>
<path opacity="0.9" fill-rule="evenodd" clip-rule="evenodd" d="M119.876 107.241H120.627V103.337H119.876V107.241ZM119.733 101.549C119.733 101.833 119.967 102.059 120.251 102.059C120.535 102.059 120.769 101.833 120.769 101.549C120.769 101.256 120.535 101.023 120.251 101.023C119.967 101.023 119.733 101.256 119.733 101.549Z" fill="black"/>
<path opacity="0.9" fill-rule="evenodd" clip-rule="evenodd" d="M126.618 105.293C126.618 104.564 127.079 103.89 127.854 103.89C128.664 103.89 129.124 104.531 129.124 105.293C129.124 106.059 128.673 106.71 127.854 106.71C127.06 106.71 126.618 106.025 126.618 105.293ZM125.867 105.267C125.867 106.385 126.536 107.378 127.739 107.378C128.289 107.378 128.764 107.078 129.067 106.635H129.082V107.378C129.082 108.181 128.889 108.814 127.963 108.814C127.278 108.814 126.794 108.414 126.794 107.712H126.042C126.06 108.814 126.842 109.481 127.93 109.481C129.449 109.481 129.833 108.514 129.833 107.17V103.337H129.082V104.006H129.067C128.757 103.522 128.289 103.22 127.703 103.22C126.576 103.22 125.867 104.196 125.867 105.267Z" fill="black"/>
<path opacity="0.9" fill-rule="evenodd" clip-rule="evenodd" d="M135.15 99.999V107.244H135.9V105.45C135.9 104.739 135.9 103.889 136.869 103.889C137.638 103.889 137.729 104.339 137.729 105.006V107.244H138.482V104.916C138.482 103.965 138.198 103.221 137.095 103.221C136.622 103.221 136.153 103.447 135.918 103.864H135.9V99.999H135.15Z" fill="black"/>
<path opacity="0.9" fill-rule="evenodd" clip-rule="evenodd" d="M143.97 101.843V103.336H143.561V104.039H143.97V107.243H144.721V104.039H145.455V103.336H144.721V101.843H143.97Z" fill="black"/>
<path opacity="0.9" fill-rule="evenodd" clip-rule="evenodd" d="M103.293 72.1285L111.148 81.7206C108.938 83.9307 106.304 86.4232 103.011 86.4232C99.6245 86.4232 96.4264 83.2724 96.4264 79.8864C96.4264 76.5004 100.424 74.1043 102.871 72.4109L103.293 72.1285ZM104.234 66.5787L103.059 65.0751C102.023 63.7604 100.94 62.4428 100.94 60.6569C100.94 58.3995 102.777 56.896 104.892 56.896C107.244 56.896 109.032 58.2579 109.032 60.7503C109.032 63.3373 106.586 64.7946 104.799 66.2037L104.234 66.5787ZM117.64 89.6202H123.096L116.746 81.7678L121.072 76.6913L118.251 73.7747L114.113 78.5698L106.728 69.6379C109.689 67.476 113.171 64.7946 113.171 60.7995C113.171 56.1432 109.312 53.4165 104.987 53.4165C100.33 53.4165 96.8019 56.2859 96.8019 61.1754C96.8019 64.1826 98.6843 66.8158 100.706 68.9324L98.4961 70.5304C95.1107 72.9747 92.2861 75.419 92.2861 79.9327C92.2861 86.0453 97.2255 90.373 103.152 90.373C107.338 90.373 111.101 87.973 113.782 84.8241L117.64 89.6202Z" fill="black"/>
</svg>
