<svg width="215" height="130" viewBox="0 0 215 130" fill="none" xmlns="http://www.w3.org/2000/svg">
<rect width="215" height="130" fill="white"/>
<path d="M107.459 50.943C115.748 50.943 122.469 44.2171 122.469 35.922C122.469 27.6258 115.748 20.9009 107.459 20.9009C99.1691 20.9009 92.4492 27.6258 92.4492 35.922C92.4492 44.2171 99.1691 50.943 107.459 50.943ZM100.484 43.0073L98.2059 46.0558C98.2059 46.0558 98.1726 46.1469 98.1325 46.1469C98.1041 46.1469 98.0718 46.1038 98.0434 45.9627C98.0434 45.9627 97.369 43.7998 98.6709 42.1472C98.6709 42.1472 98.9283 41.8445 99.1368 41.6819C99.1368 41.6819 99.1828 41.5889 99.2758 41.7054C99.2758 41.7054 99.8563 42.4264 100.415 42.8222C100.415 42.8222 100.599 42.9143 100.484 43.0073ZM102.647 44.171L101.741 47.0324C101.741 47.0324 101.701 47.1392 101.649 47.1392C101.619 47.1392 101.587 47.1079 101.555 47.0089C101.555 47.0089 100.368 45.6591 101.158 43.4952C101.158 43.4952 101.205 43.3091 101.298 43.403C101.298 43.403 102.158 43.8449 102.577 44.0075C102.577 44.0075 102.74 44.032 102.647 44.171ZM110.294 44.4738C110.294 44.4738 109.601 46.2439 107.311 46.2439C107.267 46.2439 107.224 46.2429 107.179 46.2419C107.179 46.2419 105.133 46.0793 104.506 44.4277C104.506 44.4277 104.389 44.2416 104.669 44.3572C104.669 44.3572 106.946 45.0086 110.131 44.3572C110.131 44.3572 110.411 44.2651 110.294 44.4738ZM113.317 46.9619C113.317 46.9619 113.242 47.1559 113.165 47.1559C113.128 47.1559 113.09 47.1128 113.06 46.9854C113.06 46.9854 112.339 44.6824 112.154 44.1466C112.154 44.1466 112.014 44.0075 112.294 43.9859C112.294 43.9859 113.245 43.5902 113.478 43.4266C113.478 43.4266 113.571 43.356 113.642 43.4736C113.642 43.4736 114.549 45.0772 113.317 46.9619ZM116.756 46.0323C116.756 46.0323 116.756 46.1214 116.712 46.1214C116.682 46.1214 116.632 46.0803 116.548 45.9382L114.317 42.9848C114.317 42.9848 114.178 42.9378 114.363 42.8222C114.363 42.8222 114.803 42.6361 115.525 41.6819C115.525 41.6819 115.571 41.5438 115.664 41.6594C115.664 41.6594 116.872 42.6361 116.895 44.2171C116.895 44.2171 116.989 45.3564 116.756 46.0323ZM119.847 44.0094C119.84 44.0094 119.815 43.9977 119.732 43.9154L116.083 41.0295C116.083 41.0295 116.013 40.9844 116.129 40.7748C116.129 40.7748 116.549 40.1224 116.735 39.1458C116.735 39.1458 116.758 39.0537 116.874 39.0772C116.874 39.0772 118.314 39.1222 119.174 40.7053C119.174 40.7053 119.896 41.7505 119.85 44.0075C119.85 44.0075 119.85 44.0094 119.847 44.0094ZM117.873 37.8664C117.873 37.8664 117.728 37.8958 117.498 37.8958C116.964 37.8958 115.975 37.7371 115.293 36.6792C115.293 36.6792 114.176 35.4929 114.129 31.887L120.104 36.9818C120.104 36.9818 119.222 37.6568 117.873 37.8664ZM112.875 23.8603C112.875 23.8603 114.989 24.0258 116.593 26.4679C116.593 26.4679 118.338 28.7455 118.059 33.9109C118.059 33.9109 118.096 34.0872 118.023 34.0872C117.997 34.0872 117.957 34.0656 117.896 34.0039L108.597 26.1182C108.597 26.1182 108.436 26.0722 108.436 25.9556C108.436 25.9556 110.411 23.6046 112.875 23.8603ZM109.341 34.2606C109.341 34.2606 111.014 34.3321 112.666 35.6809C112.666 35.6809 115.57 38.0291 115.803 38.2396C115.803 38.2396 116.013 38.4003 115.99 38.61C115.99 38.61 115.826 40.7288 113.549 42.2403C113.549 42.2403 111.48 43.8684 107.04 43.8684C107.04 43.8684 103.111 43.7743 100.903 41.9601C100.903 41.9601 99.0193 40.6818 98.8099 38.5414C98.8099 38.5414 98.7188 38.4473 98.9978 38.2612L102.345 35.5399C102.345 35.5399 104.04 34.0745 105.924 34.2606H109.341V34.2606ZM98.3224 26.3043C98.3224 26.3043 100.765 22.6064 104.135 24.2805C104.135 24.2805 105.367 24.8634 106.342 25.9791L106.25 26.0947L98.4614 32.7245L96.8805 34.0509C96.8805 34.0509 96.8218 34.1685 96.7963 34.1685C96.7865 34.1685 96.7807 34.1499 96.7885 34.0969C96.7885 34.0969 96.2296 29.3048 98.3224 26.3043ZM94.7887 36.8663L100.554 32.0046C100.554 32.0046 100.716 31.794 100.693 32.0506C100.693 32.0506 100.809 35.9817 98.8099 37.4246C98.8099 37.4246 98.2675 37.8919 97.2681 37.8919C96.6133 37.8919 95.7646 37.6921 94.7437 37.0289C94.7437 37.0289 94.6742 36.9838 94.7887 36.8663ZM94.9913 43.9712C94.9561 43.9712 94.9316 43.9321 94.9512 43.7978C94.9512 43.7978 94.8122 40.7268 96.7415 39.4945C96.7415 39.4945 97.276 39.1222 97.9514 39.0772C97.9514 39.0772 98.0904 39.0507 98.0904 39.1918C98.0904 39.1918 98.3233 40.2175 98.6944 40.8219C98.6944 40.8219 98.8118 41.006 98.6484 41.0765L95.1147 43.8919C95.1147 43.8919 95.0422 43.9712 94.9913 43.9712Z" fill="black"/>
<path d="M30.6063 66.7843C30.6063 62.9664 33.1342 60.8972 36.5808 60.8972C39.3845 60.8972 41.6366 61.8166 42.28 63.8867V59.931C40.4413 59.6555 38.971 58.9648 36.5808 58.9648C31.8471 58.9648 28.1706 61.8625 28.1706 67.0139C28.1706 76.167 40.4413 75.8905 40.4413 83.4335C40.4413 87.1587 38.1437 89.8267 34.2832 89.8267C31.0661 89.8267 28.2623 88.3545 27.2515 86.4689V90.5624C29.549 90.9766 31.2955 91.8041 34.191 91.8041C39.4763 91.8041 43.0151 88.1708 43.0151 83.204C43.0151 74.0509 30.6063 74.2346 30.6063 66.7843Z" fill="black"/>
<path d="M49.4502 59.6071H46.6929C46.7846 60.9875 46.8769 64.7126 46.8769 67.8398V82.88C46.8769 86.0072 46.7846 89.6874 46.6929 91.1127H49.4502C49.3585 89.6874 49.2667 86.0072 49.2667 82.88V67.8398C49.2667 64.7126 49.3585 60.9875 49.4502 59.6071Z" fill="black"/>
<path d="M70.4088 91.6199C73.9017 91.6199 76.1075 91.1139 78.9112 90.0558V82.1455C78.9112 79.0173 79.003 77.9143 79.0952 76.5339H76.3833C76.4755 77.9143 76.5673 79.0173 76.5673 82.1914V88.354C75.2806 89.1824 72.9826 89.5039 70.4546 89.5039C62.1821 89.5039 56.1154 83.2035 56.1154 75.3381C56.1154 67.5195 62.1362 61.2182 70.4088 61.2182C73.6259 61.2182 76.1538 61.8161 78.4514 63.6557V60.7122C75.9239 59.6082 73.4882 59.0572 70.3629 59.0572C60.6197 59.0572 53.6338 66.3697 53.6338 75.3381C53.6338 84.3065 60.6197 91.6199 70.4088 91.6199Z" fill="black"/>
<path d="M114.119 83.9855L111.775 58.9648H110.993L98.8145 87.1128L86.7273 58.9648H86.084L83.0968 82.7897C82.6828 86.1475 82.1313 89.689 81.9019 91.1143H84.6133C84.6592 89.137 84.8891 86.8832 85.2108 83.8937L87.3707 65.2662L98.401 91.6204H98.9526L110.121 65.2203L111.775 84.5375C112.051 87.8953 112.142 89.5502 112.142 91.1143H115.084C114.671 88.9064 114.44 87.2046 114.119 83.9855Z" fill="black"/>
<path d="M139.491 85.3194C140.502 87.711 141.283 89.6434 141.789 91.1147H144.959C143.949 89.2292 142.754 86.653 141.651 84.1236L131.035 59.0111H130.298L119.728 84.1236C118.672 86.653 117.568 89.1373 116.511 91.1147H119.453C119.775 89.9189 120.51 88.0334 121.659 85.2735L124.278 78.8803H136.779L139.491 85.3194ZM125.106 76.903L130.529 63.6106L135.952 76.903H125.106Z" fill="black"/>
<path d="M168.078 88.9048C166.699 88.9967 164.079 89.0895 160.908 89.0895H155.025V67.8398C155.025 64.6667 155.117 60.9875 155.163 59.6071H152.452C152.544 60.9875 152.59 64.6667 152.59 67.8398V82.88C152.59 84.9501 152.544 88.5834 152.452 91.1127H160.908C164.079 91.1127 166.699 91.2046 168.078 91.2964V88.9048V88.9048Z" fill="black"/>
<path d="M187.613 91.2527V88.7692C186.188 88.907 183.339 88.9529 180.719 88.9988C178.513 88.9988 175.388 89.0448 173.227 88.9988C176.353 85.7339 179.11 82.8362 182.144 79.0652C185.315 75.0177 186.647 72.2119 186.693 68.946C186.693 63.6567 183.109 59.8398 177.961 59.8398C173.825 59.8398 171.803 61.7712 170.194 62.2314V65.7269C171.389 63.7027 174.193 62.0018 177.502 62.0018C181.27 62.0018 184.12 65.0372 184.12 69.1306C184.12 72.0282 183.431 74.0515 180.167 78.2367C176.261 83.2964 173.641 86.0094 169.643 90.1028V91.1149H180.489C183.017 91.1149 186.05 91.1149 187.613 91.2527Z" fill="black"/>
<path d="M28.3287 107.87V104.443C28.3287 103.827 28.3464 103.113 28.3641 102.845H27C27.0177 103.113 27.0358 103.827 27.0358 104.443V107.361C27.0358 107.762 27.0177 108.467 27 108.958H29.2201C29.8357 108.958 30.4686 108.976 30.7362 108.994V107.843C30.4686 107.861 29.8357 107.87 29.2201 107.87H28.3287V107.87Z" fill="black"/>
<path d="M33.8555 102.845H32.5005C32.5182 103.113 32.5359 103.836 32.5359 104.443V107.361C32.5359 107.968 32.5182 108.682 32.5005 108.958H33.8555C33.8378 108.682 33.8201 107.968 33.8201 107.361V104.443C33.8201 103.836 33.8378 103.113 33.8555 102.845Z" fill="black"/>
<path d="M39.7581 107.271V107.877C39.6511 107.949 39.4728 107.967 39.2677 107.967C38.1354 107.967 37.2436 107.048 37.2436 105.896C37.2436 104.745 38.0728 103.835 39.2854 103.835C39.8652 103.835 40.3732 103.978 40.7924 104.38V102.952C40.302 102.844 39.9632 102.729 39.2319 102.729C37.2436 102.729 35.9507 104.147 35.9507 105.896C35.9507 107.646 37.2703 109.064 39.2586 109.064C40.1505 109.064 40.4359 108.895 40.9798 108.778V107.306C40.9798 106.7 40.9889 106.388 41.0156 106.12H39.7223C39.7404 106.388 39.7581 106.655 39.7581 107.271Z" fill="black"/>
<path d="M48.4864 102.845H47.1223C47.1491 103.22 47.1577 103.934 47.1577 104.443V105.193H44.5628V104.443C44.5628 103.81 44.5719 103.086 44.5896 102.845H43.2432C43.2613 103.086 43.279 103.81 43.279 104.443V107.664C43.279 108.137 43.2613 108.708 43.2432 108.958H44.5896C44.5719 108.708 44.5628 108.137 44.5628 107.673V106.255H47.1577V107.664C47.1577 108.137 47.14 108.708 47.1223 108.958H48.4864C48.4687 108.708 48.4419 108.137 48.4419 107.673V104.443C48.4419 103.952 48.4687 103.238 48.4864 102.845Z" fill="black"/>
<path d="M51.802 102.845C51.1955 102.845 50.5001 102.828 50.2324 102.81V103.943C50.5001 103.925 51.1955 103.907 51.802 103.907H52.194C52.2121 104.237 52.2207 104.684 52.2207 105.049V107.361C52.2207 107.968 52.2031 108.682 52.1854 108.958H53.5585C53.5318 108.682 53.5141 107.968 53.5141 107.361V105.049C53.5141 104.684 53.5141 104.237 53.5227 103.907H53.9151C54.5302 103.907 55.2348 103.925 55.5024 103.943V102.81C55.2348 102.828 54.5302 102.845 53.9151 102.845H51.802Z" fill="black"/>
<path d="M58.6133 102.845H57.2583C57.276 103.113 57.2937 103.836 57.2937 104.443V107.361C57.2937 107.968 57.276 108.682 57.2583 108.958H58.6133C58.5956 108.682 58.578 107.968 58.578 107.361V104.443C58.578 103.836 58.5956 103.113 58.6133 102.845Z" fill="black"/>
<path d="M66.0949 102.845H64.7929C64.8106 103.22 64.8197 103.934 64.8197 104.442V106.459L62.1001 103.63C61.8147 103.354 61.5915 103.14 61.1991 102.721H60.9229C60.9405 103.202 60.9587 103.934 60.9587 104.469V107.663C60.9587 108.137 60.9405 108.708 60.9229 108.958H62.2248C62.2067 108.708 62.189 108.137 62.189 107.673L62.198 105.29L65.0515 108.235C65.3368 108.521 65.5595 108.762 65.8272 109.065H66.0949C66.059 108.547 66.0499 108.065 66.0499 107.69V104.442C66.0499 103.952 66.0767 103.238 66.0949 102.845Z" fill="black"/>
<path d="M71.9778 107.271V107.877C71.8708 107.949 71.6925 107.967 71.4875 107.967C70.3552 107.967 69.4633 107.048 69.4633 105.896C69.4633 104.745 70.2926 103.835 71.5051 103.835C72.0849 103.835 72.593 103.978 73.0122 104.38V102.952C72.5218 102.844 72.1829 102.729 71.4516 102.729C69.4633 102.729 68.1704 104.147 68.1704 105.896C68.1704 107.646 69.4901 109.064 71.4784 109.064C72.3703 109.064 72.6556 108.895 73.1995 108.778V107.306C73.1995 106.7 73.2086 106.388 73.2354 106.12H71.942C71.9602 106.388 71.9778 106.655 71.9778 107.271Z" fill="black"/>
<path d="M80.8037 102.737H80.4467L78.2357 107.6C78.0125 108.118 77.7716 108.564 77.5488 108.957H78.9129C78.9932 108.716 79.0826 108.484 79.2164 108.171L79.4927 107.538H81.6148L81.8916 108.198C82.0072 108.466 82.1234 108.751 82.1946 108.957H83.7996C83.5855 108.591 83.3183 108.109 83.0774 107.6L80.8037 102.737ZM79.9209 106.493L80.5538 104.968L81.1871 106.493H79.9209Z" fill="black"/>
<path d="M90.5748 102.845H89.2729C89.2906 103.22 89.2996 103.934 89.2996 104.442V106.459L86.58 103.63C86.2947 103.354 86.0715 103.14 85.6791 102.721H85.4028C85.4205 103.202 85.4387 103.934 85.4387 104.469V107.663C85.4387 108.137 85.4205 108.708 85.4028 108.958H86.7048C86.6866 108.708 86.6689 108.137 86.6689 107.673L86.678 105.29L89.5314 108.235C89.8168 108.521 90.0395 108.762 90.3072 109.065H90.5748C90.539 108.547 90.5299 108.065 90.5299 107.69V104.442C90.5299 103.952 90.5567 103.238 90.5748 102.845Z" fill="black"/>
<path d="M94.996 102.845H92.8647C92.8915 103.113 92.9092 103.836 92.9092 104.443V107.361C92.9092 107.968 92.8915 108.682 92.8647 108.958H94.996C96.6813 108.958 98.0635 107.583 98.0635 105.897C98.0635 104.21 96.6813 102.845 94.996 102.845ZM94.898 107.905H94.2021V103.899H94.8889C95.9409 103.899 96.7702 104.818 96.7702 105.897C96.7702 106.986 95.9409 107.905 94.898 107.905Z" fill="black"/>
<path d="M104.169 102.845H102.814C102.832 103.113 102.849 103.836 102.849 104.443V107.361C102.849 107.968 102.832 108.682 102.814 108.958H104.169C104.151 108.682 104.134 107.968 104.134 107.361V104.443C104.134 103.836 104.151 103.113 104.169 102.845Z" fill="black"/>
<path d="M111.65 102.845H110.348C110.366 103.22 110.375 103.934 110.375 104.442V106.459L107.655 103.63C107.37 103.354 107.147 103.14 106.755 102.721H106.479C106.496 103.202 106.514 103.934 106.514 104.469V107.663C106.514 108.137 106.496 108.708 106.479 108.958H107.78C107.762 108.708 107.745 108.137 107.745 107.673L107.754 105.29L110.607 108.235C110.892 108.521 111.116 108.762 111.382 109.065H111.65C111.615 108.547 111.606 108.065 111.606 107.69V104.442C111.606 103.952 111.633 103.238 111.65 102.845Z" fill="black"/>
<path d="M114.956 102.845C114.35 102.845 113.654 102.828 113.388 102.81V103.943C113.654 103.925 114.35 103.907 114.956 103.907H115.349C115.366 104.237 115.376 104.684 115.376 105.049V107.361C115.376 107.968 115.358 108.682 115.34 108.958H116.713C116.687 108.682 116.668 107.968 116.668 107.361V105.049C116.668 104.684 116.668 104.237 116.678 103.907H117.07C117.686 103.907 118.39 103.925 118.657 103.943V102.81C118.39 102.828 117.686 102.845 117.07 102.845H114.956Z" fill="black"/>
<path d="M121.706 107.885V106.297H122.215C122.821 106.297 123.41 106.315 123.686 106.333V105.199C123.41 105.217 122.821 105.235 122.215 105.235H121.706V103.905H122.285C122.892 103.905 123.534 103.915 123.81 103.941V102.799C123.534 102.816 122.892 102.843 122.285 102.843H120.377C120.396 103.111 120.413 103.816 120.413 104.432V107.358C120.413 107.76 120.396 108.465 120.377 108.956H122.357C122.972 108.956 123.614 108.974 123.882 108.991V107.859C123.614 107.876 122.972 107.885 122.357 107.885H121.706V107.885Z" fill="black"/>
<path d="M130.025 104.755C130.025 103.649 129.222 102.845 127.76 102.845H125.932C125.958 103.113 125.977 103.836 125.977 104.443V107.379C125.977 107.985 125.958 108.682 125.932 108.958H127.296C127.27 108.682 127.26 107.985 127.26 107.379V106.629H127.555C127.608 106.629 127.662 106.629 127.724 106.62C128.099 107.379 128.875 108.476 129.267 108.958H130.952C130.185 108.253 129.516 107.2 128.821 106.414C129.463 106.21 130.025 105.719 130.025 104.755ZM127.751 105.71H127.26V103.863H127.697C128.385 103.863 128.732 104.309 128.732 104.791C128.732 105.326 128.331 105.71 127.751 105.71Z" fill="black"/>
<path d="M133.803 102.845H132.448C132.466 103.113 132.484 103.836 132.484 104.443V107.361C132.484 107.968 132.466 108.682 132.448 108.958H133.803C133.786 108.682 133.768 107.968 133.768 107.361V104.443C133.768 103.836 133.786 103.113 133.803 102.845Z" fill="black"/>
<path d="M139.136 102.729C137.299 102.729 135.89 104.147 135.89 105.896C135.89 107.646 137.299 109.064 139.136 109.064C140.99 109.064 142.39 107.646 142.39 105.896C142.39 104.147 140.99 102.729 139.136 102.729ZM139.136 107.976C138.039 107.976 137.192 107.048 137.192 105.896C137.192 104.745 138.039 103.817 139.136 103.817C140.232 103.817 141.088 104.745 141.088 105.896C141.088 107.048 140.232 107.976 139.136 107.976Z" fill="black"/>
<path d="M148.541 104.755C148.541 103.649 147.738 102.845 146.276 102.845H144.448C144.475 103.113 144.493 103.836 144.493 104.443V107.379C144.493 107.985 144.475 108.682 144.448 108.958H145.812C145.786 108.682 145.776 107.985 145.776 107.379V106.629H146.071C146.124 106.629 146.178 106.629 146.24 106.62C146.615 107.379 147.391 108.476 147.783 108.958H149.468C148.702 108.253 148.032 107.2 147.337 106.414C147.979 106.21 148.541 105.719 148.541 104.755ZM146.267 105.71H145.776V103.863H146.213C146.901 103.863 147.248 104.309 147.248 104.791C147.248 105.326 146.847 105.71 146.267 105.71Z" fill="black"/>
<path d="M155.931 102.845H153.8C153.827 103.113 153.845 103.836 153.845 104.443V107.361C153.845 107.968 153.827 108.682 153.8 108.958H155.931C157.616 108.958 158.999 107.583 158.999 105.897C158.999 104.21 157.616 102.845 155.931 102.845ZM155.834 107.905H155.138V103.899H155.824C156.876 103.899 157.706 104.818 157.706 105.897C157.706 106.986 156.876 107.905 155.834 107.905Z" fill="black"/>
<path d="M162.385 107.885V106.297H162.893C163.499 106.297 164.088 106.315 164.365 106.333V105.199C164.088 105.217 163.499 105.235 162.893 105.235H162.385V103.905H162.964C163.57 103.905 164.213 103.915 164.489 103.941V102.799C164.213 102.816 163.57 102.843 162.964 102.843H161.056C161.074 103.111 161.092 103.816 161.092 104.432V107.358C161.092 107.76 161.074 108.465 161.056 108.956H163.036C163.651 108.956 164.293 108.974 164.561 108.991V107.859C164.293 107.876 163.651 107.885 163.036 107.885H162.385V107.885Z" fill="black"/>
<path d="M168.003 104.343C168.003 103.932 168.28 103.701 168.717 103.701C169.18 103.701 169.662 103.879 169.885 104.245V102.862C169.484 102.835 169.18 102.71 168.708 102.71C167.46 102.71 166.675 103.406 166.675 104.54C166.675 106.288 168.708 106.377 168.708 107.386C168.708 107.796 168.432 108.091 167.959 108.091C167.406 108.091 166.738 107.814 166.443 107.422V108.912C166.951 108.965 167.317 109.099 167.941 109.099C169.18 109.099 170.072 108.35 170.072 107.208C170.072 105.441 168.003 105.289 168.003 104.343Z" fill="black"/>
<path d="M173.449 102.845H172.094C172.112 103.113 172.13 103.836 172.13 104.443V107.361C172.13 107.968 172.112 108.682 172.094 108.958H173.449C173.432 108.682 173.414 107.968 173.414 107.361V104.443C173.414 103.836 173.432 103.113 173.449 102.845Z" fill="black"/>
<path d="M179.352 107.271V107.877C179.245 107.949 179.067 107.967 178.862 107.967C177.729 107.967 176.837 107.048 176.837 105.896C176.837 104.745 177.667 103.835 178.879 103.835C179.458 103.835 179.967 103.978 180.387 104.38V102.952C179.896 102.844 179.557 102.729 178.826 102.729C176.837 102.729 175.544 104.147 175.544 105.896C175.544 107.646 176.864 109.064 178.852 109.064C179.744 109.064 180.029 108.895 180.573 108.778V107.306C180.573 106.7 180.583 106.388 180.609 106.12H179.316C179.334 106.388 179.352 106.655 179.352 107.271Z" fill="black"/>
<path d="M187.956 104.442C187.956 103.952 187.983 103.238 188 102.845H186.698C186.716 103.22 186.725 103.934 186.725 104.442V106.459L184.005 103.63C183.72 103.354 183.498 103.14 183.105 102.721H182.829C182.847 103.202 182.864 103.934 182.864 104.469V107.663C182.864 108.137 182.847 108.708 182.829 108.958H184.131C184.112 108.708 184.095 108.137 184.095 107.673L184.104 105.29L186.957 108.235C187.242 108.521 187.466 108.762 187.732 109.065H188C187.965 108.547 187.956 108.065 187.956 107.69V104.442V104.442Z" fill="black"/>
</svg>
