<svg width="215" height="130" viewBox="0 0 215 130" fill="none" xmlns="http://www.w3.org/2000/svg">
<rect width="215" height="130" fill="white"/>
<path d="M48.1984 51.2081L37.3872 78.7099H42.638L51.2105 56.0735L59.7197 78.7099H65.0328L54.2227 51.2081H48.1984Z" fill="black"/>
<path d="M127.643 55.3651L127.649 55.4551H147.187V51.2081H127.643V55.3651Z" fill="black"/>
<path d="M193.34 51.2081L193.25 51.2173V78.7202H197.5V51.2081H193.34Z" fill="black"/>
<path d="M109.116 63.2717V67.4287L109.12 67.5186H118.283C117.172 71.6283 113.427 74.6568 108.962 74.6568C103.626 74.6568 99.2987 70.3338 99.2987 65C99.2987 59.6663 103.626 55.3432 108.962 55.3432C111.901 55.3432 114.517 56.6665 116.288 58.7341L120.221 56.2916C117.617 52.9272 113.549 50.7548 108.962 50.7548C101.089 50.7548 94.707 57.1326 94.707 65C94.707 72.8674 101.089 79.2452 108.962 79.2452C116.836 79.2452 123.219 72.8674 123.219 65C123.219 64.4139 123.173 63.8394 123.103 63.2717H109.116V63.2717Z" fill="black"/>
<path d="M127.643 63.2771V78.6321V78.721H147.187V74.4741H131.893V67.5193H147.187V63.2724H127.733L127.643 63.2771Z" fill="black"/>
<path d="M86.6429 66.8875C87.4268 66.4894 88.1206 65.9541 88.7257 65.2803C89.3307 64.6077 89.819 63.8047 90.1908 62.8702C90.5614 61.9356 90.7473 61.0576 90.7473 59.822C90.7473 58.5586 90.5337 57.3968 90.1077 56.3388C89.6816 55.282 89.0766 54.3751 88.2939 53.6195C87.5099 52.8638 86.5609 52.2731 85.4479 51.8473C84.3338 51.4216 83.103 51.2081 81.7568 51.2081H69.6733V55.4562L81.0964 55.4539C82.4715 55.4539 83.5983 55.8519 84.4781 56.648C85.3579 57.4453 85.7988 58.3106 85.7988 59.6293C85.7988 60.948 85.3579 61.991 84.4781 62.7871C83.5983 63.5843 82.4715 63.9824 81.0964 63.9824H69.6733V78.696H74.4982V68.227H79.2826L85.3856 78.696H90.9527L84.2311 67.6916C85.0554 67.5544 85.86 67.2867 86.6429 66.8875Z" fill="black"/>
<path d="M163.993 63.27H159.166V78.7082H163.993V63.27Z" fill="black"/>
<path d="M189.524 51.2081H150.832V55.4551H189.524V51.2081Z" fill="black"/>
<path d="M181.189 63.27H176.361V78.7082H181.189V63.27Z" fill="black"/>
<path d="M38.9977 51.2081H17.5V55.4551H38.9977V51.2081Z" fill="black"/>
<path d="M30.6612 63.27H25.834V78.7082H30.6612V63.27Z" fill="black"/>
</svg>
