<svg width="215" height="130" viewBox="0 0 215 130" fill="none" xmlns="http://www.w3.org/2000/svg">
<rect width="215" height="130" fill="white"/>
<path d="M63.8081 65.0648C63.975 65.3518 63.8761 65.7209 63.588 65.8879C63.3004 66.0561 62.9312 65.9576 62.7647 65.6689L56.0272 55.9992C56.0272 55.9992 54.7511 54.1602 52.3843 54.1602C49.5841 54.1602 48.3684 56.4837 48.3684 56.4837L41.5519 68.0042C40.6488 69.5287 38.6825 70.0334 37.1584 69.1287C35.6347 68.2257 35.1316 66.2578 36.0343 64.7316L42.1361 53.1934C42.1361 53.1934 43.947 49.3564 49.2285 49.3564C52.0206 49.3564 54.4563 50.8809 55.7636 53.1355L63.8081 65.0648Z" fill="black"/>
<path d="M27.5814 64.6238C27.4145 64.3363 27.5125 63.9673 27.8002 63.8007C28.0874 63.6329 28.4566 63.7314 28.6239 64.0197L35.3618 73.6898C35.3618 73.6898 36.6367 75.5284 39.0047 75.5284C41.8045 75.5284 43.0202 73.2062 43.0202 73.2062L49.8375 61.6844C50.739 60.1604 52.7066 59.6552 54.2307 60.5594C55.7543 61.4629 56.2574 63.4312 55.3547 64.9557L49.2521 76.4952C49.2521 76.4952 47.4416 80.3317 42.1602 80.3317C39.3672 80.3317 36.9315 78.8073 35.6254 76.5531L27.5814 64.6238Z" fill="black"/>
<path d="M84.2738 49.3668H90.997L80.4805 80.3316H74.32L63.8906 49.3668H70.8284L77.4649 72.8298H77.5519L84.2738 49.3668Z" fill="black"/>
<path d="M98.6593 57.3878V80.3312H92.6255V57.3878H98.6593ZM98.6593 54.6716H92.6255V49.0646H98.6593V54.6716Z" fill="black"/>
<path d="M114.958 64.3752C114.701 62.9086 114.182 61.3559 110.908 61.3559C107.632 61.3559 107.201 62.606 107.201 63.599C107.201 67.2212 121.551 64.5908 121.551 73.0434C121.551 79.7284 115.088 80.9354 111.511 80.9354C106.297 80.9354 100.652 79.1234 100.479 73.0003H106.685C106.685 74.9411 107.891 76.3637 111.683 76.3637C114.786 76.3637 115.519 74.8557 115.519 73.992C115.519 70.1538 101.297 73.0434 101.297 64.4619C101.297 61.0967 103.409 56.785 110.563 56.785C115.046 56.785 120.388 57.9066 120.861 64.3752C120.861 64.3752 114.958 64.3752 114.958 64.3752Z" fill="black"/>
<path d="M130.443 57.3884H134.193V61.7022H130.443V74.1647C130.443 75.5027 130.486 76.0197 132.944 76.0197C133.331 76.0197 133.761 75.9779 134.193 75.9347V80.506C133.245 80.5491 132.297 80.5927 131.349 80.5927H130.573C125.359 80.5927 124.41 78.6074 124.41 75.6333V61.7022H121.308V57.3884H124.41V51.1786H130.443V57.3884V57.3884Z" fill="black"/>
<path d="M146.137 80.9355C139.975 80.9355 134.417 77.1408 134.417 68.8603C134.417 60.5798 139.975 56.7852 146.137 56.7852C152.299 56.7852 157.858 60.5794 157.858 68.8603C157.858 77.1413 152.299 80.9355 146.137 80.9355ZM146.137 61.8734C141.484 61.8734 140.623 65.9272 140.623 68.8599C140.623 71.7926 141.484 75.8464 146.137 75.8464C150.791 75.8464 151.654 71.7926 151.654 68.8599C151.654 65.9272 150.791 61.8734 146.137 61.8734Z" fill="black"/>
<path d="M172.572 64.3753C172.315 62.9088 171.798 61.356 168.522 61.356C165.247 61.356 164.816 62.6061 164.816 63.5991C164.816 67.2213 179.166 64.5909 179.166 73.0435C179.166 79.7285 172.703 80.9355 169.126 80.9355C163.911 80.9355 158.267 79.1236 158.094 73.0004H164.3C164.3 74.9412 165.506 76.3638 169.298 76.3638C172.401 76.3638 173.133 74.8558 173.133 73.9922C173.133 70.154 158.912 73.0435 158.912 64.462C158.912 61.0968 161.023 56.7852 168.177 56.7852C172.659 56.7852 178.003 57.9067 178.477 64.3753C178.477 64.3753 172.572 64.3753 172.572 64.3753Z" fill="black"/>
<path d="M187.5 57.3878V80.3312H181.467V57.3878H187.5ZM187.5 54.6716H181.467V49.0646H187.5V54.6716Z" fill="black"/>
</svg>
