<svg width="56" height="60" viewBox="0 0 56 60" fill="none" xmlns="http://www.w3.org/2000/svg">
<path fill-rule="evenodd" clip-rule="evenodd" d="M28.3178 46.3964C27.9178 46.3964 27.5178 46.1464 27.3778 45.7404L14.1778 9.68842L0.497778 1.87042C0.0177778 1.59442 -0.142222 0.984415 0.137778 0.506415C0.397778 0.0224153 1.01778 -0.141585 1.49778 0.132415L15.4978 8.13242C15.6978 8.25042 15.8578 8.43641 15.9378 8.65841L29.2578 45.0524C29.4378 45.5724 29.1778 46.1464 28.6578 46.3364C28.5578 46.3764 28.4378 46.3964 28.3178 46.3964Z" fill="white"/>
<path fill-rule="evenodd" clip-rule="evenodd" d="M32.5001 50.3817C32.0801 50.3817 31.7001 50.1337 31.5601 49.7297C31.3601 49.2117 31.6201 48.6377 32.1401 48.4437L54.6401 40.0637C55.1801 39.8697 55.7401 40.1337 55.9401 40.6517C56.1201 41.1697 55.8601 41.7437 55.3401 41.9377L32.8401 50.3197C32.7201 50.3617 32.6001 50.3817 32.5001 50.3817Z" fill="white"/>
<path fill-rule="evenodd" clip-rule="evenodd" d="M29.2961 30.5821L33.5761 41.7161L47.6961 36.4181L43.4161 25.2841L29.2961 30.5821ZM32.9979 44.0005C32.5979 44.0005 32.2179 43.7565 32.0579 43.3605L27.0579 30.3605C26.9579 30.1125 26.9779 29.8345 27.0779 29.5905C27.1979 29.3485 27.3979 29.1585 27.6379 29.0645L43.6379 23.0645C44.1579 22.8705 44.7379 23.1285 44.9379 23.6425L49.9379 36.6425C50.0179 36.8905 50.0179 37.1685 49.9179 37.4105C49.7979 37.6545 49.5979 37.8445 49.3579 37.9385L33.3579 43.9385C33.2379 43.9805 33.1179 44.0005 32.9979 44.0005Z" fill="white"/>
<path fill-rule="evenodd" clip-rule="evenodd" d="M21.6989 47.484C21.2789 47.484 20.8989 47.224 20.7389 46.81L14.0589 27.326C13.9589 27.032 13.9989 26.706 14.1589 26.446L18.1589 20.446C18.4789 19.986 19.0989 19.866 19.5589 20.168C20.0189 20.476 20.1389 21.096 19.8389 21.556L16.0989 27.144L22.6389 46.16C22.8189 46.682 22.5389 47.25 22.0189 47.43C21.9189 47.466 21.7989 47.484 21.6989 47.484Z" fill="white"/>
<path fill-rule="evenodd" clip-rule="evenodd" d="M18.2172 37.3479C17.8172 37.3479 17.4372 37.1119 17.2772 36.7239C17.0772 36.2119 17.3172 35.6279 17.8372 35.4199L23.6172 33.0739C24.1372 32.8659 24.7172 33.1119 24.9172 33.6239C25.1372 34.1359 24.8772 34.7199 24.3772 34.9279L18.5772 37.2739C18.4572 37.3239 18.3372 37.3479 18.2172 37.3479Z" fill="white"/>
<path fill-rule="evenodd" clip-rule="evenodd" d="M25.9998 45.9998C22.6998 45.9998 19.9998 48.6918 19.9998 51.9998C19.9998 55.3098 22.6998 57.9998 25.9998 57.9998C29.2998 57.9998 31.9998 55.3098 31.9998 51.9998C31.9998 48.6918 29.2998 45.9998 25.9998 45.9998ZM26 60C21.58 60 18 56.412 18 52C18 47.59 21.58 44 26 44C30.42 44 34 47.59 34 52C34 56.412 30.42 60 26 60Z" fill="white"/>
</svg>
