<svg width="60" height="62" viewBox="0 0 60 62" fill="none" xmlns="http://www.w3.org/2000/svg">
<path fill-rule="evenodd" clip-rule="evenodd" d="M39.0011 20.4292H15.0012C14.4492 20.4292 14.0012 19.9715 14.0012 19.4077C14.0012 18.8438 14.4492 18.3862 15.0012 18.3862H39.0011C39.5531 18.3862 40.0011 18.8438 40.0011 19.4077C40.0011 19.9715 39.5531 20.4292 39.0011 20.4292Z" fill="white"/>
<path fill-rule="evenodd" clip-rule="evenodd" d="M6.99711 18.3864C6.44511 18.3864 5.99711 18.846 5.99711 19.4078C5.99711 19.9696 6.44511 20.4293 6.99711 20.4293C7.54911 20.4293 7.9971 19.9696 7.9971 19.4078C7.9971 18.846 7.54911 18.3864 6.99711 18.3864ZM6.99804 22.472C5.34404 22.472 3.99805 21.0972 3.99805 19.4077C3.99805 17.7182 5.34404 16.3433 6.99804 16.3433C8.65203 16.3433 9.99803 17.7182 9.99803 19.4077C9.99803 21.0972 8.65203 22.472 6.99804 22.472Z" fill="white"/>
<path fill-rule="evenodd" clip-rule="evenodd" d="M37.0012 30.644H15.0012C14.4492 30.644 14.0012 30.1864 14.0012 29.6225C14.0012 29.0587 14.4492 28.6011 15.0012 28.6011H37.0012C37.5532 28.6011 38.0012 29.0587 38.0012 29.6225C38.0012 30.1864 37.5532 30.644 37.0012 30.644Z" fill="white"/>
<path fill-rule="evenodd" clip-rule="evenodd" d="M6.99711 28.601C6.44511 28.601 5.99711 29.0606 5.99711 29.6225C5.99711 30.1843 6.44511 30.6439 6.99711 30.6439C7.54911 30.6439 7.9971 30.1843 7.9971 29.6225C7.9971 29.0606 7.54911 28.601 6.99711 28.601ZM6.99804 32.6869C5.34404 32.6869 3.99805 31.312 3.99805 29.6225C3.99805 27.933 5.34404 26.5581 6.99804 26.5581C8.65203 26.5581 9.99803 27.933 9.99803 29.6225C9.99803 31.312 8.65203 32.6869 6.99804 32.6869Z" fill="white"/>
<path fill-rule="evenodd" clip-rule="evenodd" d="M27.0012 40.8584H15.0012C14.4492 40.8584 14.0012 40.4007 14.0012 39.8369C14.0012 39.273 14.4492 38.8154 15.0012 38.8154H27.0012C27.5532 38.8154 28.0012 39.273 28.0012 39.8369C28.0012 40.4007 27.5532 40.8584 27.0012 40.8584Z" fill="white"/>
<path fill-rule="evenodd" clip-rule="evenodd" d="M6.99711 38.8156C6.44511 38.8156 5.99711 39.2753 5.99711 39.8371C5.99711 40.3989 6.44511 40.8586 6.99711 40.8586C7.54911 40.8586 7.9971 40.3989 7.9971 39.8371C7.9971 39.2753 7.54911 38.8156 6.99711 38.8156ZM6.99804 42.9012C5.34404 42.9012 3.99805 41.5264 3.99805 39.8369C3.99805 38.1474 5.34404 36.7725 6.99804 36.7725C8.65203 36.7725 9.99803 38.1474 9.99803 39.8369C9.99803 41.5264 8.65203 42.9012 6.99804 42.9012Z" fill="white"/>
<path fill-rule="evenodd" clip-rule="evenodd" d="M25.0012 51.0732H15.0012C14.4492 51.0732 14.0012 50.6156 14.0012 50.0517C14.0012 49.4879 14.4492 49.0303 15.0012 49.0303H25.0012C25.5532 49.0303 26.0012 49.4879 26.0012 50.0517C26.0012 50.6156 25.5532 51.0732 25.0012 51.0732Z" fill="white"/>
<path fill-rule="evenodd" clip-rule="evenodd" d="M6.99711 49.0303C6.44511 49.0303 5.99711 49.4899 5.99711 50.0517C5.99711 50.6135 6.44511 51.0732 6.99711 51.0732C7.54911 51.0732 7.9971 50.6135 7.9971 50.0517C7.9971 49.4899 7.54911 49.0303 6.99711 49.0303ZM6.99804 53.1161C5.34404 53.1161 3.99805 51.7412 3.99805 50.0517C3.99805 48.3622 5.34404 46.9873 6.99804 46.9873C8.65203 46.9873 9.99803 48.3622 9.99803 50.0517C9.99803 51.7412 8.65203 53.1161 6.99804 53.1161Z" fill="white"/>
<path fill-rule="evenodd" clip-rule="evenodd" d="M11.9975 8.17171H31.9974V7.15025C31.9974 5.46075 30.6514 4.08586 28.9974 4.08586H24.8134C24.3914 4.08586 24.0134 3.81415 23.8714 3.40556C23.5874 2.59248 22.8334 2.04293 21.9974 2.04293C21.1615 2.04293 20.4075 2.59248 20.1235 3.40556C19.9815 3.81415 19.6035 4.08586 19.1815 4.08586H14.9975C13.3435 4.08586 11.9975 5.46075 11.9975 7.15025V8.17171ZM32.9992 10.2146H10.9993C10.4473 10.2146 9.99927 9.75702 9.99927 9.19317V7.15025C9.99927 4.33305 12.2433 2.04293 14.9993 2.04293H18.5472C19.2532 0.796742 20.5632 0 21.9992 0C23.4352 0 24.7452 0.796742 25.4512 2.04293H28.9992C31.7552 2.04293 33.9992 4.33305 33.9992 7.15025V9.19317C33.9992 9.75702 33.5512 10.2146 32.9992 10.2146Z" fill="white"/>
<path fill-rule="evenodd" clip-rule="evenodd" d="M53.9983 28.6004C53.7423 28.6004 53.4863 28.5003 53.2903 28.3022L46.2903 21.1519C45.9003 20.7515 45.9003 20.1059 46.2903 19.7055C46.6823 19.3071 47.3143 19.3071 47.7063 19.7055L54.7063 26.8558C55.0963 27.2562 55.0963 27.9017 54.7063 28.3022C54.5103 28.5003 54.2543 28.6004 53.9983 28.6004Z" fill="white"/>
<path fill-rule="evenodd" clip-rule="evenodd" d="M35.0001 49.0301C34.4621 49.0301 34.0181 48.5929 34.0001 48.0392C33.9981 47.9473 33.8721 45.5755 31.6261 43.2833C29.3821 40.9911 27.0621 40.8624 26.9641 40.8584C26.4161 40.8318 25.9841 40.3599 26.0041 39.7981C26.0261 39.2363 26.5661 38.8379 27.0321 38.8154C27.1601 38.8195 30.2101 38.9462 33.0421 41.8369C35.8741 44.7317 35.9981 47.8472 36.0001 47.978C36.0181 48.5418 35.5841 49.0117 35.0321 49.0301H35.0001Z" fill="white"/>
<path fill-rule="evenodd" clip-rule="evenodd" d="M42.9982 24.0281C42.4462 24.0281 41.9982 23.5704 41.9982 23.0066V9.68058C41.9982 8.84707 41.3382 8.17086 40.5282 8.17086H33.1162C32.5622 8.17086 32.1162 7.71528 32.1162 7.14939C32.1162 6.58555 32.5622 6.12793 33.1162 6.12793H40.5282C42.4422 6.12793 43.9982 7.72346 43.9982 9.68058V23.0066C43.9982 23.5704 43.5502 24.0281 42.9982 24.0281Z" fill="white"/>
<path fill-rule="evenodd" clip-rule="evenodd" d="M40.5299 61.288H3.47199C1.558 61.288 0 59.6945 0 57.7373V9.67951C0 7.72239 1.558 6.12891 3.47199 6.12891H10.884C11.436 6.12891 11.884 6.58652 11.884 7.15037C11.884 7.71422 11.436 8.17183 10.884 8.17183H3.47199C2.65999 8.17183 1.99999 8.84804 1.99999 9.67951V57.7373C1.99999 58.5688 2.65999 59.245 3.47199 59.245H40.5299C41.3399 59.245 41.9999 58.5688 41.9999 57.7373V39.8372C41.9999 39.2734 42.4479 38.8158 42.9999 38.8158C43.5539 38.8158 43.9999 39.2734 43.9999 39.8372V57.7373C43.9999 59.6945 42.4439 61.288 40.5299 61.288Z" fill="white"/>
<path fill-rule="evenodd" clip-rule="evenodd" d="M27.9212 40.3499L26.2753 48.7483L34.5012 47.0691L56.7752 23.5938C57.5692 22.7807 58.0012 21.7184 58.0012 20.5845C58.0012 18.2474 56.1392 16.3434 53.8532 16.3434C52.7412 16.3434 51.6992 16.7847 50.9152 17.5835L27.9212 40.3499ZM25.0002 51.073C24.7382 51.073 24.4822 50.9668 24.2942 50.7747C24.0562 50.5316 23.9542 50.1843 24.0202 49.8513L26.0202 39.6367C26.0602 39.4344 26.1582 39.2485 26.3042 39.1035L49.5101 16.1287C50.6621 14.952 52.2061 14.3003 53.8461 14.3003C57.2421 14.3003 60.0001 17.1175 60.0001 20.5803C60.0001 22.2616 59.3601 23.8408 58.2001 25.0257L35.7181 48.7195C35.5781 48.8687 35.3942 48.9708 35.1962 49.0096L25.1962 51.0526C25.1302 51.0669 25.0662 51.073 25.0002 51.073Z" fill="white"/>
</svg>
