<svg width="61" height="45" viewBox="0 0 61 45" fill="none" xmlns="http://www.w3.org/2000/svg">
<path fill-rule="evenodd" clip-rule="evenodd" d="M2.10345 2.10345V9.46552C2.10345 10.0545 2.56621 10.5172 3.15517 10.5172H57.8448C58.4338 10.5172 58.8965 10.0545 58.8965 9.46552V2.10345H2.10345ZM57.8448 12.6207H3.15517C1.40931 12.6207 0 11.2114 0 9.46552V1.05172C0 0.483793 0.462759 0 1.05172 0H59.9483C60.5372 0 61 0.483793 61 1.05172V9.46552C61 11.2114 59.5907 12.6207 57.8448 12.6207Z" fill="white"/>
<path fill-rule="evenodd" clip-rule="evenodd" d="M30.4993 21.0345C27.5965 21.0345 25.2406 23.3903 25.2406 26.2931C25.2406 29.1959 27.5965 31.5517 30.4993 31.5517C33.402 31.5517 35.7579 29.1959 35.7579 26.2931C35.7579 23.3903 33.402 21.0345 30.4993 21.0345ZM30.5 33.6553C26.4404 33.6553 23.1379 30.3529 23.1379 26.2932C23.1379 22.2336 26.4404 18.9312 30.5 18.9312C34.5597 18.9312 37.8621 22.2336 37.8621 26.2932C37.8621 30.3529 34.5597 33.6553 30.5 33.6553Z" fill="white"/>
<path fill-rule="evenodd" clip-rule="evenodd" d="M30.4995 16.8276C25.283 16.8276 21.034 21.0766 21.034 26.2931C21.034 31.5097 25.283 35.7586 30.4995 35.7586C35.7161 35.7586 39.965 31.5097 39.965 26.2931C39.965 21.0766 35.7161 16.8276 30.4995 16.8276ZM30.5001 37.8621C24.1267 37.8621 18.9312 32.6876 18.9312 26.2931C18.9312 19.9196 24.1267 14.7241 30.5001 14.7241C36.8736 14.7241 42.0691 19.9196 42.0691 26.2931C42.0691 32.6876 36.8736 37.8621 30.5001 37.8621Z" fill="white"/>
<path fill-rule="evenodd" clip-rule="evenodd" d="M30.4999 44.1723C16.0071 44.1723 4.20679 32.393 4.20679 17.8792V11.5688C4.20679 11.0009 4.66955 10.5171 5.25851 10.5171C5.84748 10.5171 6.31024 11.0009 6.31024 11.5688V17.8792C6.31024 31.215 17.164 42.0688 30.4999 42.0688C43.8358 42.0688 54.6895 31.215 54.6895 17.8792V11.5688C54.6895 11.0009 55.1523 10.5171 55.7413 10.5171C56.3302 10.5171 56.793 11.0009 56.793 11.5688V17.8792C56.793 32.393 44.9927 44.1723 30.4999 44.1723Z" fill="white"/>
<path fill-rule="evenodd" clip-rule="evenodd" d="M48.3793 19.9829C48.3793 20.5718 47.9166 21.0346 47.3276 21.0346C46.7386 21.0346 46.2759 20.5718 46.2759 19.9829C46.2759 19.4149 46.7386 18.9312 47.3276 18.9312C47.9166 18.9312 48.3793 19.4149 48.3793 19.9829Z" fill="white"/>
</svg>
