<svg width="58" height="58" viewBox="0 0 58 58" fill="none" xmlns="http://www.w3.org/2000/svg">
<path fill-rule="evenodd" clip-rule="evenodd" d="M51.2333 57.9866H5.8C2.60227 57.9866 0 55.3959 0 52.1866V32.3699C0 29.2959 2.43987 27.0532 5.8 27.0532H18.3667C18.9003 27.0532 19.3333 27.496 19.3333 28.0199C19.3333 28.5612 18.9003 28.9866 18.3667 28.9866H5.8C3.9382 28.9866 1.93333 30.0499 1.93333 32.3699V52.1866C1.93333 54.3326 3.66753 56.0532 5.8 56.0532H51.2333C53.4083 56.0532 56.0667 54.2746 56.0667 52.1866V32.8532C56.0667 31.6932 55.7844 28.9866 53.1667 28.9866H41.5667C41.0331 28.9866 40.6 28.5612 40.6 28.0199C40.6 27.496 41.0331 27.0532 41.5667 27.0532H53.1667C56.1034 27.0532 58 29.3346 58 32.8532V52.1866C58 55.4539 54.3615 57.9866 51.2333 57.9866Z" fill="white"/>
<path fill-rule="evenodd" clip-rule="evenodd" d="M13.4282 40.064L10.4335 47.5653L17.9213 44.5686L54.8847 7.60331C55.6696 6.81451 56.066 6.05857 56.066 5.35291C56.066 4.64724 55.6696 3.89131 54.8847 3.10637C53.3168 1.53844 51.9634 1.53844 50.3916 3.10637L13.4282 40.064ZM8.69905 50.2531C8.44772 50.2531 8.20025 50.1565 8.01465 49.9825C7.74205 49.7118 7.65892 49.2865 7.80198 48.9385L11.7093 39.1751C11.7557 39.0398 11.8291 38.9431 11.9219 38.8465L49.0245 1.74C51.3484 -0.58 53.9313 -0.58 56.2513 1.74C57.4113 2.9 57.9991 4.11413 57.9991 5.3534C57.9991 6.59073 57.4113 7.81647 56.2513 8.95713L19.1468 46.0771C19.054 46.1545 18.9457 46.2318 18.822 46.2898L9.05865 50.1951C8.94265 50.2338 8.82085 50.2531 8.69905 50.2531Z" fill="white"/>
<path fill-rule="evenodd" clip-rule="evenodd" d="M31.9003 17.3866C31.6528 17.3866 31.4053 17.29 31.2159 17.116C30.8389 16.7293 30.8389 16.1106 31.2159 15.7433L44.7492 2.20998C45.1281 1.83105 45.7391 1.83105 46.118 2.20998L55.7847 11.8766C56.1617 12.244 56.1617 12.8626 55.7847 13.2493C55.4057 13.6166 54.7948 13.6166 54.4159 13.2493L45.4336 4.25931L32.5847 17.116C32.3952 17.29 32.1477 17.3866 31.9003 17.3866Z" fill="white"/>
<path fill-rule="evenodd" clip-rule="evenodd" d="M18.3665 46.3867C18.119 46.3867 17.8716 46.29 17.6821 46.116L11.8821 40.316C11.5051 39.9293 11.5051 39.3107 11.8821 38.9433C12.261 38.5567 12.872 38.5567 13.2509 38.9433L19.0509 44.7433C19.4279 45.1107 19.4279 45.7293 19.0509 46.116C18.8614 46.29 18.614 46.3867 18.3665 46.3867Z" fill="white"/>
<path fill-rule="evenodd" clip-rule="evenodd" d="M49.2996 34.7868H35.7662C35.2326 34.7868 34.7996 34.3615 34.7996 33.8202C34.7996 33.2962 35.2326 32.8535 35.7662 32.8535H49.2996C49.8332 32.8535 50.2662 33.2962 50.2662 33.8202C50.2662 34.3615 49.8332 34.7868 49.2996 34.7868Z" fill="white"/>
<path fill-rule="evenodd" clip-rule="evenodd" d="M49.3002 42.5202H28.0336C27.5 42.5202 27.0669 42.0949 27.0669 41.5536C27.0669 41.0316 27.5 40.5869 28.0336 40.5869H49.3002C49.8338 40.5869 50.2669 41.0316 50.2669 41.5536C50.2669 42.0949 49.8338 42.5202 49.3002 42.5202Z" fill="white"/>
<path fill-rule="evenodd" clip-rule="evenodd" d="M49.3006 50.2532H20.3007C19.7671 50.2532 19.334 49.8278 19.334 49.2865C19.334 48.7645 19.7671 48.3198 20.3007 48.3198H49.3006C49.8342 48.3198 50.2673 48.7645 50.2673 49.2865C50.2673 49.8278 49.8342 50.2532 49.3006 50.2532Z" fill="white"/>
</svg>
